<?xml version="1.0" standalone="no"?>
<!DOCTYPE svg PUBLIC "-//W3C//DTD SVG 1.1//EN" "http://www.w3.org/Graphics/SVG/1.1/DTD/svg11.dtd" >
<svg xmlns="http://www.w3.org/2000/svg" xmlns:xlink="http://www.w3.org/1999/xlink" version="1.1">
<metadata>
Created by FontForge 20170731 at Fri Jul  7 15:21:21 2017
 By ,,,
Copyright (c) 2017 by Daniel Hernandez. All rights reserved.
</metadata>
<defs>
<font id="LotaGrotesque-SemiBold" horiz-adv-x="562" >
  <font-face 
    font-family="Lota Grotesque SemiBold"
    font-weight="600"
    font-stretch="normal"
    units-per-em="1000"
    panose-1="0 0 7 0 0 0 0 0 0 0"
    ascent="800"
    descent="-200"
    x-height="490"
    cap-height="686"
    bbox="-536 -294.085 1338 907"
    underline-thickness="50"
    underline-position="-200"
    unicode-range="U+0020-FB02"
  />
<missing-glyph horiz-adv-x="410" 
 />
    <glyph glyph-name="fi" unicode="fi" horiz-adv-x="617" 
d="M552 490v-490h-122v392h-209v-392h-121v392h-70v98h70v48q0 82 52.5 133t137.5 51q49 0 78 -9l-4 -103q-22 9 -58 9q-42 0 -63.5 -23.5t-21.5 -61.5v-44h331zM492 568q-33 0 -55.5 21.5t-22.5 54.5q0 32 23 54t55 22q33 0 55.5 -22t22.5 -54q0 -33 -22.5 -54.5
t-55.5 -21.5z" />
    <glyph glyph-name="fl" unicode="fl" horiz-adv-x="633" 
d="M100 538q0 82 54.5 133t142.5 51q49 0 78 -9l-4 -103q-22 9 -58 9q-46 0 -69 -23t-23 -62v-44h147v-98h-147v-392h-121v392h-70v98h70v48zM447 710h122v-710h-122v710z" />
    <glyph glyph-name=".notdef" horiz-adv-x="410" 
 />
    <glyph glyph-name=".null" horiz-adv-x="0" 
 />
    <glyph glyph-name="nonmarkingreturn" horiz-adv-x="333" 
 />
    <glyph glyph-name="space" unicode=" " horiz-adv-x="216" 
 />
    <glyph glyph-name="exclam" unicode="!" horiz-adv-x="272" 
d="M201 710l-11 -483h-106l-12 483h129zM134 140q35 0 56.5 -21.5t21.5 -55.5q0 -33 -21.5 -54t-56.5 -21t-56.5 21t-21.5 54q0 34 21.5 55.5t56.5 21.5z" />
    <glyph glyph-name="quotedbl" unicode="&#x22;" horiz-adv-x="351" 
d="M54 521l-5 225h96l-5 -225h-86zM211 521l-5 225h96l-5 -225h-86z" />
    <glyph glyph-name="numbersign" unicode="#" horiz-adv-x="645" 
d="M615 407h-127l-18 -115h109v-95h-123l-30 -197h-100l30 197h-106l-30 -197h-100l30 197h-119v95h134l17 115h-116v95h131l28 184h99l-28 -184h107l28 184h99l-28 -184h113v-95zM371 292l17 115h-106l-18 -115h107z" />
    <glyph glyph-name="dollar" unicode="$" horiz-adv-x="595" 
d="M563 186q0 -76 -56.5 -126t-152.5 -62v-106h-109v105q-103 11 -159 64t-56 142l122 -1q0 -51 38.5 -78t111.5 -27q66 0 102.5 23t36.5 66q0 34 -22 55.5t-56.5 32.5t-76.5 19.5t-84.5 21t-77 32t-56.5 58.5t-22 94q-1 75 53 126t146 64v105h109v-104q94 -12 146.5 -65
t52.5 -138h-122q0 103 -132 103q-131 0 -131 -88q0 -37 29.5 -59.5t73 -31t95 -22t95 -31.5t73 -62t29.5 -110z" />
    <glyph glyph-name="percent" unicode="%" horiz-adv-x="884" 
d="M244 0l300 693h98l-299 -693h-99zM199 303q-81 0 -126 50.5t-45 143.5q0 92 45 143t126 51t126 -51t45 -143q0 -93 -45 -143.5t-126 -50.5zM199 394q66 0 66 103t-66 103t-66 -103t66 -103zM685 -5q-80 0 -125 51t-45 143t45 143t125 51q81 0 126 -51t45 -143
q0 -93 -45 -143.5t-126 -50.5zM685 86q67 0 67 103t-67 103q-66 0 -66 -103t66 -103z" />
    <glyph glyph-name="ampersand" unicode="&#x26;" horiz-adv-x="630" 
d="M629 0h-130l-42 45q-76 -51 -176 -51q-110 0 -176.5 55t-66.5 146q0 58 25.5 99.5t86.5 79.5q-54 72 -54 147q0 77 54 125t141 48q83 0 132.5 -43.5t49.5 -116.5q0 -50 -32 -90t-102 -77l-30 -16l144 -158q22 49 22 112h109q0 -111 -58 -193zM290 596q-37 0 -59 -20.5
t-22 -54.5q0 -48 36 -96l39 20q77 39 77 89q0 29 -18.5 45.5t-52.5 16.5zM291 95q55 0 96 23l-170 180q-57 -40 -58 -99q0 -49 35 -76.5t97 -27.5z" />
    <glyph glyph-name="quotesingle" unicode="'" horiz-adv-x="194" 
d="M54 521l-5 225h96l-5 -225h-86z" />
    <glyph glyph-name="parenleft" unicode="(" horiz-adv-x="302" 
d="M43 308q0 148 37 263t89 185h116q-119 -166 -119 -450q0 -278 119 -447h-116q-52 71 -89 186.5t-37 262.5z" />
    <glyph glyph-name="parenright" unicode=")" horiz-adv-x="302" 
d="M258 308q0 -147 -37 -262.5t-89 -186.5h-117q120 166 120 447q0 280 -119 450h116q52 -71 89 -185.5t37 -262.5z" />
    <glyph glyph-name="asterisk" unicode="*" horiz-adv-x="378" 
d="M343 606l-90 -23l62 -75l-72 -52l-54 86l-54 -86l-72 52l62 75l-91 23l28 85l88 -36l-6 95h89l-6 -95l89 36z" />
    <glyph glyph-name="plus" unicode="+" horiz-adv-x="475" 
d="M443 397v-101h-149v-157h-113v157h-149v101h149v157h113v-157h149z" />
    <glyph glyph-name="comma" unicode="," horiz-adv-x="249" 
d="M53 -91q28 0 52.5 24.5t24.5 54.5q-1 0 -5 -0.5t-8 -0.5q-34 0 -54 21.5t-20 54.5q0 35 22 56t57 21q36 0 59.5 -25t23.5 -79q0 -77 -45.5 -134t-106.5 -55v62z" />
    <glyph glyph-name="hyphen" unicode="-" horiz-adv-x="451" 
d="M58 240v93h335v-93h-335z" />
    <glyph glyph-name="period" unicode="." horiz-adv-x="240" 
d="M119 146q36 0 57.5 -21t21.5 -55t-21.5 -55t-57.5 -21q-35 0 -56.5 21t-21.5 55t21.5 55t56.5 21z" />
    <glyph glyph-name="slash" unicode="/" horiz-adv-x="449" 
d="M20 -20l290 726h120l-288 -726h-122z" />
    <glyph glyph-name="zero" unicode="0" horiz-adv-x="635" 
d="M317 -6q-129 0 -200.5 90.5t-71.5 258.5t72 259.5t200 91.5q129 0 201 -91.5t72 -259.5t-72 -258.5t-201 -90.5zM317 101q149 0 149 242q0 120 -38.5 182t-110.5 62t-110 -61.5t-38 -182.5q0 -242 148 -242z" />
    <glyph glyph-name="one" unicode="1" horiz-adv-x="418" 
d="M293 104h107v-104h-357v104h128v422q-46 -25 -126 -25v103q58 0 94 19t60 63h94v-582z" />
    <glyph glyph-name="two" unicode="2" horiz-adv-x="550" 
d="M230 104h284v-104h-464v83l238 240q44 44 66.5 81.5t22.5 80.5q0 51 -27 76.5t-74 25.5q-51 0 -82 -32t-31 -91l-122 -1q-1 107 64.5 169.5t169.5 62.5q102 0 164 -56.5t62 -153.5q0 -62 -29.5 -116t-91.5 -115z" />
    <glyph glyph-name="three" unicode="3" horiz-adv-x="570" 
d="M525 196q1 -92 -70 -147t-178 -55q-108 0 -174.5 56.5t-66.5 157.5h122q1 -55 34.5 -81t89.5 -26t88 25t32 71q-1 103 -128 103h-62v97h56q54 0 86 24t33 70q0 48 -29.5 72t-76.5 24q-48 0 -78.5 -27.5t-31.5 -85.5h-122q0 101 65.5 160.5t169.5 59.5q99 1 162.5 -54
t64.5 -147q-1 -93 -78 -140q92 -51 92 -157z" />
    <glyph glyph-name="four" unicode="4" horiz-adv-x="586" 
d="M552 261v-105h-86v-156h-122v156h-324v101l286 429h160v-425h86zM145 262v-1h204v307h-1z" />
    <glyph glyph-name="five" unicode="5" horiz-adv-x="557" 
d="M293 446q102 0 165.5 -59.5t63.5 -167.5q0 -103 -70 -164t-177 -61q-105 0 -173.5 57.5t-68.5 153.5h123q0 -51 33.5 -77.5t85.5 -26.5q55 0 89.5 31t34.5 87q0 60 -33 90.5t-88 30.5q-60 0 -110 -39l-108 40l33 345h392v-104h-292l-14 -159q51 23 114 23z" />
    <glyph glyph-name="six" unicode="6" horiz-adv-x="593" 
d="M327 433q98 0 162 -59t64 -155q0 -99 -65 -162t-174 -63q-126 0 -197 90t-71 256q0 170 71 261.5t197 91.5q100 0 162.5 -54t62.5 -140h-123q0 43 -28 65t-72 22q-146 0 -150 -228q60 75 161 75zM311 101q54 0 86.5 32t32.5 86q0 53 -31 84t-87 31q-69 0 -107.5 -48.5
t-6.5 -120.5h-1q33 -64 114 -64z" />
    <glyph glyph-name="seven" unicode="7" horiz-adv-x="503" 
d="M96 0l255 581v1h-335v104h468v-98l-254 -588h-134z" />
    <glyph glyph-name="eight" unicode="8" horiz-adv-x="586" 
d="M444 361q98 -53 98 -162q0 -98 -68 -151.5t-181 -53.5q-114 0 -182 53.5t-68 151.5q0 109 99 162q-76 54 -76 141q0 91 64 141.5t163 50.5t163 -50.5t64 -141.5q0 -87 -76 -141zM293 594q-50 0 -80 -26.5t-30 -68.5q0 -43 30 -69.5t80 -26.5q51 0 80.5 26.5t28.5 69.5
q1 42 -29 68.5t-80 26.5zM293 95q60 0 94.5 28t33.5 78q1 51 -33.5 79t-94.5 28q-59 0 -94 -28.5t-34 -78.5q0 -50 34.5 -78t93.5 -28z" />
    <glyph glyph-name="nine" unicode="9" horiz-adv-x="593" 
d="M278 693q128 0 198.5 -87.5t70.5 -258.5q0 -170 -71 -261.5t-198 -91.5q-99 0 -162 54t-62 140h122q1 -43 29 -65t72 -22q145 0 149 227q-61 -74 -160 -74q-98 0 -162.5 59t-64.5 155q0 99 65.5 162t173.5 63zM280 353q69 0 107.5 48.5t6.5 120.5h2q-35 64 -115 64
q-54 0 -86.5 -32t-32.5 -86q0 -52 31.5 -83.5t86.5 -31.5z" />
    <glyph glyph-name="colon" unicode=":" horiz-adv-x="269" 
d="M133 474q36 0 57.5 -21t21.5 -55t-21.5 -55t-57.5 -21q-35 0 -56.5 21t-21.5 55t21.5 55t56.5 21zM134 145q36 0 57.5 -21t21.5 -55t-21.5 -55t-57.5 -21q-35 0 -56.5 21t-21.5 55t21.5 55t56.5 21z" />
    <glyph glyph-name="semicolon" unicode=";" horiz-adv-x="279" 
d="M144 474q36 0 57.5 -21t21.5 -55t-21.5 -55t-57.5 -21q-35 0 -56.5 21t-21.5 55t21.5 55t56.5 21zM66 -92q28 0 52.5 24.5t24.5 54.5q-1 0 -5 -0.5t-8 -0.5q-34 0 -54 21.5t-20 54.5q0 35 22 56t57 21q36 0 59.5 -25t23.5 -79q0 -77 -45.5 -134t-106.5 -55v62z" />
    <glyph glyph-name="less" unicode="&#x3c;" horiz-adv-x="503" 
d="M438 584v-109l-296 -126l296 -126v-109l-407 180v109z" />
    <glyph glyph-name="equal" unicode="=" horiz-adv-x="534" 
d="M62 400v101h410v-101h-410zM62 193v100h410v-100h-410z" />
    <glyph glyph-name="greater" unicode="&#x3e;" horiz-adv-x="503" 
d="M65 584l407 -181v-109l-407 -180v109l296 126l-296 126v109z" />
    <glyph glyph-name="question" unicode="?" horiz-adv-x="474" 
d="M239 717q95 1 150 -49.5t55 -133.5q0 -37 -17 -70.5t-41.5 -57.5t-49.5 -46.5t-42 -48t-17 -50.5v-34h-113v41q0 34 16.5 65.5t40 56t47 47t40 48t16.5 50.5q0 36 -23 55.5t-62 19.5q-44 0 -69 -25.5t-25 -73.5l-119 -1q0 95 57.5 150.5t155.5 56.5zM219 140
q34 0 56.5 -22t22.5 -54q0 -33 -22 -54.5t-58 -21.5q-35 0 -56.5 21t-21.5 55t22 55t57 21z" />
    <glyph glyph-name="at" unicode="@" horiz-adv-x="924" 
d="M538 450h116v-282q0 -52 41 -52t64.5 43.5t22.5 118.5q-1 141 -84 223.5t-226 82.5q-151 0 -243 -92t-92 -247q0 -154 91 -246t241 -92q74 0 143 21t115 57l50 -77q-56 -45 -139 -70t-171 -24q-189 1 -307.5 118t-120.5 303q-2 190 117.5 315.5t307.5 126.5
q187 1 301.5 -110t115.5 -287q1 -113 -51.5 -184t-138.5 -73q-53 -1 -91.5 23.5t-53.5 67.5q-36 -78 -130 -78q-82 0 -132.5 57t-50.5 152q1 95 53.5 152.5t134.5 57.5q79 0 117 -56v51zM443 133q40 0 67.5 29t27.5 70v26q0 40 -28.5 70t-66.5 30q-41 0 -67 -31t-26 -82
q0 -50 25.5 -81t67.5 -31z" />
    <glyph glyph-name="A" unicode="A" horiz-adv-x="653" 
d="M522 0l-53 156h-286l-53 -156h-123l248 686h142l248 -686h-123zM218 256h216l-108 316z" />
    <glyph glyph-name="B" unicode="B" horiz-adv-x="634" 
d="M469 358q49 -13 85 -57t36 -113q0 -85 -57.5 -136.5t-148.5 -51.5h-302v686h294q88 0 139.5 -48.5t51.5 -123.5q0 -64 -31.5 -102.5t-66.5 -50.5v-3zM445 493q0 46 -27 70.5t-75 24.5h-141v-191h142q49 0 75 26t26 70zM361 98q50 0 78.5 26.5t28.5 77.5t-30.5 78
t-82.5 27h-153v-209h159z" />
    <glyph glyph-name="C" unicode="C" horiz-adv-x="699" 
d="M363 101q83 0 126.5 41t53.5 108h121q-13 -116 -88.5 -186t-215.5 -70t-228.5 95t-88.5 254q0 157 89 253.5t228 96.5q138 0 215 -70.5t89 -187.5h-121q-10 68 -54.5 109.5t-125.5 41.5q-85 0 -141 -66.5t-56 -176.5q1 -112 56 -177t141 -65z" />
    <glyph glyph-name="D" unicode="D" horiz-adv-x="717" 
d="M343 686q149 0 240 -91.5t91 -251.5t-91 -251.5t-240 -91.5h-261v686h261zM343 102q94 0 151 63t57 178t-57 177.5t-151 62.5h-139v-480z" />
    <glyph glyph-name="E" unicode="E" horiz-adv-x="605" 
d="M204 104h355v-104h-477v686h471v-104h-349v-179h313v-102h-313v-197z" />
    <glyph glyph-name="F" unicode="F" horiz-adv-x="568" 
d="M541 584h-337v-206h295v-101h-295v-277h-122v686h459v-102z" />
    <glyph glyph-name="G" unicode="G" horiz-adv-x="729" 
d="M377 359h297v-359h-89v108q-71 -114 -225 -114q-144 0 -230.5 95t-86.5 256q0 156 90.5 252t240.5 96q131 0 207.5 -67t87.5 -175h-122q-10 59 -52.5 97t-120.5 38q-94 0 -151 -65.5t-57 -176.5q0 -114 54.5 -179t145.5 -64q86 -1 138 47t59 115h-186v96z" />
    <glyph glyph-name="H" unicode="H" horiz-adv-x="730" 
d="M526 686h122v-686h-122v298h-322v-298h-122v686h122v-281h322v281z" />
    <glyph glyph-name="I" unicode="I" horiz-adv-x="286" 
d="M82 0v686h122v-686h-122z" />
    <glyph glyph-name="J" unicode="J" horiz-adv-x="532" 
d="M136 221q0 -61 27.5 -90t71.5 -29q46 0 72.5 30t26.5 90v464h122v-457q0 -108 -57 -170.5t-165 -62.5q-106 0 -162.5 59t-56.5 166h121z" />
    <glyph glyph-name="K" unicode="K" horiz-adv-x="660" 
d="M525 0l-216 304l-105 -122v-182h-122v686h122v-357l299 357h147l-258 -295l277 -391h-144z" />
    <glyph glyph-name="L" unicode="L" horiz-adv-x="559" 
d="M204 107h345v-107h-467v686h122v-579z" />
    <glyph glyph-name="M" unicode="M" horiz-adv-x="860" 
d="M606 686h172l-1 -686h-118v554l-184 -554h-91l-184 554v-554h-118l-1 686h172l177 -541z" />
    <glyph glyph-name="N" unicode="N" horiz-adv-x="729" 
d="M527 686h120v-686h-117l-328 500v-500h-120v686h117l328 -502v502z" />
    <glyph glyph-name="O" unicode="O" horiz-adv-x="762" 
d="M381 -6q-148 0 -243.5 94t-95.5 253t96 255.5t243 96.5q148 0 243.5 -94.5t95.5 -253.5t-95.5 -255t-243.5 -96zM381 100q92 0 153.5 66t61.5 177q0 112 -61.5 177.5t-153.5 65.5t-153.5 -65.5t-61.5 -177.5q0 -111 61.5 -177t153.5 -66z" />
    <glyph glyph-name="P" unicode="P" horiz-adv-x="621" 
d="M356 686q111 0 175.5 -55t64.5 -156t-65 -157.5t-175 -56.5h-152v-261h-122v686h274zM356 363q55 0 85.5 30.5t30.5 80.5q0 49 -30.5 79.5t-85.5 30.5h-152v-221h152z" />
    <glyph glyph-name="Q" unicode="Q" horiz-adv-x="762" 
d="M720 345q0 -139 -74.5 -231.5t-195.5 -113.5q57 -50 148 -50l5 -113q-92 0 -163.5 43.5t-107.5 116.5q-129 15 -209.5 107t-80.5 237q0 159 96 255.5t243 96.5q148 0 243.5 -94.5t95.5 -253.5zM381 100q92 0 153.5 66t61.5 177q0 112 -61.5 177.5t-153.5 65.5
t-153.5 -65.5t-61.5 -177.5q0 -111 61.5 -177t153.5 -66z" />
    <glyph glyph-name="R" unicode="R" horiz-adv-x="660" 
d="M632 102l7 -98q-31 -9 -66 -9q-66 0 -102 27t-66 84l-81 153h-120v-259h-122v686h266q111 0 176 -56t65 -159q0 -72 -35.5 -121.5t-97.5 -72.5l70 -135q22 -45 66 -45q23 0 40 5zM204 584v-228h144q56 0 86.5 31t30.5 83t-30.5 83t-86.5 31h-144z" />
    <glyph glyph-name="S" unicode="S" horiz-adv-x="611" 
d="M175 502q0 -37 29.5 -59.5t73 -31t95 -22t95 -31.5t73 -62t29.5 -110q0 -87 -73.5 -139.5t-193.5 -52.5q-126 0 -196 54.5t-70 154.5l122 -1q0 -51 38.5 -78t111.5 -27q66 0 102.5 23t36.5 66q0 34 -22 55.5t-56.5 32.5t-77 19.5t-84.5 21t-76.5 32t-56.5 58.5t-22 94
q-1 87 69.5 140.5t185.5 53.5q117 0 184.5 -55t67.5 -151h-122q0 103 -132 103q-131 0 -131 -88z" />
    <glyph glyph-name="T" unicode="T" horiz-adv-x="583" 
d="M230 0v581h-219v105h561v-105h-220v-581h-122z" />
    <glyph glyph-name="U" unicode="U" horiz-adv-x="710" 
d="M513 686h122v-415q0 -129 -75 -203t-205 -74q-133 0 -207 73.5t-74 203.5v415h122v-415q0 -84 41 -127.5t118 -43.5q76 0 117 43.5t41 127.5v415z" />
    <glyph glyph-name="V" unicode="V" horiz-adv-x="639" 
d="M510 686h123l-248 -686h-131l-248 686h123l191 -552z" />
    <glyph glyph-name="W" unicode="W" horiz-adv-x="955" 
d="M820 686h122l-193 -686h-136l-136 541l-135 -541h-137l-193 686h122l141 -566l138 566h129l138 -564z" />
    <glyph glyph-name="X" unicode="X" horiz-adv-x="620" 
d="M616 0h-138l-168 277l-169 -277h-136l221 350l-215 335h138l161 -261l157 261h137l-210 -332z" />
    <glyph glyph-name="Y" unicode="Y" horiz-adv-x="615" 
d="M610 686l-241 -417v-269h-123v269l-241 417h132l171 -307l171 307h131z" />
    <glyph glyph-name="Z" unicode="Z" horiz-adv-x="605" 
d="M183 105h383v-105h-531v100l381 481h-371v105h520l-1 -100z" />
    <glyph glyph-name="bracketleft" unicode="[" horiz-adv-x="350" 
d="M76 -140v895h249v-101h-134v-694h134v-100h-249z" />
    <glyph glyph-name="backslash" unicode="\" horiz-adv-x="449" 
d="M429 -20h-122l-288 726h120z" />
    <glyph glyph-name="bracketright" unicode="]" horiz-adv-x="350" 
d="M274 -140h-248v100h134v694h-134v101h248v-895z" />
    <glyph glyph-name="asciicircum" unicode="^" horiz-adv-x="391" 
d="M37 510l97 219h123l97 -219h-89l-70 140l-69 -140h-89z" />
    <glyph glyph-name="underscore" unicode="_" horiz-adv-x="434" 
d="M0 -137v93h434v-93h-434z" />
    <glyph glyph-name="grave" unicode="`" horiz-adv-x="288" 
d="M128 560l-94 169h144l47 -169h-97z" />
    <glyph glyph-name="a" unicode="a" horiz-adv-x="551" 
d="M528 103l8 -99q-34 -9 -66 -9q-85 0 -106 80q-43 -80 -164 -80q-80 0 -123 36t-43 97q0 81 69 117.5t180 36.5h76v25q0 44 -26 68.5t-76 24.5q-43 0 -69 -20t-30 -56h-112q6 81 64.5 126t153.5 45q103 0 158.5 -51.5t55.5 -143.5v-172q0 -30 25 -30q11 0 25 5zM232 86
q56 0 91.5 29t35.5 64v32h-82q-124 0 -124 -70q0 -55 79 -55z" />
    <glyph glyph-name="b" unicode="b" horiz-adv-x="598" 
d="M343 495q97 0 156.5 -65t59.5 -178q0 -114 -60.5 -185.5t-160.5 -71.5q-105 0 -152 78l-3 -73h-118v710h122v-292q53 77 156 77zM315 98q54 0 87.5 41.5t33.5 108.5q0 66 -32.5 105t-87.5 39q-60 0 -94.5 -41t-34.5 -91v-29q0 -52 34.5 -92.5t93.5 -40.5z" />
    <glyph glyph-name="c" unicode="c" horiz-adv-x="534" 
d="M275 -5q-109 0 -173.5 69t-64.5 179q0 111 67.5 181.5t173.5 70.5q101 0 158 -53t66 -140h-120q-16 92 -101 92q-55 0 -87.5 -39.5t-32.5 -109.5t31.5 -109.5t87.5 -39.5q86 0 102 89h120q-10 -85 -68 -137.5t-159 -52.5z" />
    <glyph glyph-name="d" unicode="d" horiz-adv-x="597" 
d="M410 710h122v-710h-118l-3 74q-51 -79 -157 -79q-97 0 -156.5 66t-59.5 178q0 114 61 185t162 71q104 0 149 -74v289zM281 98q60 0 94.5 41t34.5 91v29q0 52 -34.5 92.5t-93.5 40.5q-54 0 -87.5 -41.5t-33.5 -108.5q0 -66 32.5 -105t87.5 -39z" />
    <glyph glyph-name="e" unicode="e" horiz-adv-x="546" 
d="M508 242v-25h-351q7 -60 40 -92.5t86 -32.5q90 0 108 68h115q-14 -71 -71 -118t-157 -47q-111 0 -176 69t-65 180t68.5 181t173.5 70q108 0 168.5 -68.5t60.5 -184.5zM280 401q-47 0 -79 -28t-42 -81h233q-15 109 -112 109z" />
    <glyph glyph-name="f" unicode="f" horiz-adv-x="382" 
d="M313 619q-46 0 -69 -23t-23 -62v-44h147v-98h-147v-392h-121v392h-70v98h70v48q0 82 54.5 133t142.5 51q49 0 78 -9l-4 -103q-22 9 -58 9z" />
    <glyph glyph-name="g" unicode="g" horiz-adv-x="594" 
d="M413 490h116v-493q0 -91 -65.5 -149.5t-180.5 -58.5q-102 0 -161 40t-67 120h116q12 -65 112 -65q60 0 92.5 31t32.5 78v80q-47 -77 -151 -77q-99 0 -159 69t-60 180q0 114 63 182t159 68q105 0 149 -73zM281 98q58 0 92.5 41t34.5 93v26q0 51 -34 92.5t-93 41.5
q-54 0 -87 -40.5t-33 -106.5t33.5 -106.5t86.5 -40.5z" />
    <glyph glyph-name="h" unicode="h" horiz-adv-x="573" 
d="M339 495q81 0 127.5 -50t46.5 -129v-316h-123v286q0 49 -24 76.5t-69 27.5q-50 0 -80 -30.5t-30 -81.5v-278h-122v710h120v-292q50 77 154 77z" />
    <glyph glyph-name="i" unicode="i" horiz-adv-x="252" 
d="M207 649q0 -34 -23 -56t-57 -22t-57 22t-23 56q0 33 23 55t57 22t57 -22t23 -55zM65 0v490h122v-490h-122z" />
    <glyph glyph-name="j" unicode="j" horiz-adv-x="260" 
d="M217 649q0 -34 -23.5 -56t-57.5 -22q-33 0 -56 22t-23 56q0 33 23 55t56 22q34 0 57.5 -22t23.5 -55zM11 -206q-50 0 -78 10l7 103q27 -10 47 -10q41 0 63.5 23t22.5 65v505h122v-510q0 -85 -50.5 -135.5t-133.5 -50.5z" />
    <glyph glyph-name="k" unicode="k" horiz-adv-x="531" 
d="M398 0l-141 201l-70 -77v-124h-122v710h122v-432l185 212h146l-183 -203l202 -287h-139z" />
    <glyph glyph-name="l" unicode="l" horiz-adv-x="270" 
d="M233 103l8 -99q-34 -9 -67 -9q-54 0 -83 32t-29 91v592h121v-582q0 -30 26 -30q10 0 24 5z" />
    <glyph glyph-name="m" unicode="m" horiz-adv-x="878" 
d="M648 495q80 0 125 -50.5t45 -134.5v-310h-123v283q0 51 -24 79t-66 28q-47 0 -75 -30.5t-28 -81.5v-278h-122v283q0 51 -24 79t-67 28q-46 0 -74 -30.5t-28 -81.5v-278h-122v490h117l4 -71q49 76 145 76q58 0 98 -27t59 -74q21 46 61.5 73.5t98.5 27.5z" />
    <glyph glyph-name="n" unicode="n" horiz-adv-x="573" 
d="M340 495q81 0 127 -50.5t46 -136.5v-308h-123v280q0 52 -24 81t-70 29q-49 0 -79 -31t-30 -81v-278h-122v490h117l4 -71q49 76 154 76z" />
    <glyph glyph-name="o" unicode="o" horiz-adv-x="572" 
d="M286 495q112 0 180.5 -68.5t68.5 -180.5q0 -111 -68.5 -181t-180.5 -70t-180.5 68t-68.5 178q0 112 69 183t180 71zM286 394q-57 0 -91 -41.5t-34 -108.5q0 -66 34 -107t91 -41t91 40.5t34 107.5t-34 108.5t-91 41.5z" />
    <glyph glyph-name="p" unicode="p" horiz-adv-x="598" 
d="M343 495q97 0 156.5 -65t59.5 -178q0 -114 -60.5 -185.5t-160.5 -71.5q-105 0 -152 78v-274h-121v691h118l2 -75q52 80 158 80zM315 98q54 0 87.5 41.5t33.5 108.5q0 66 -32.5 105t-87.5 39q-60 0 -95 -41t-35 -91v-29q0 -52 35 -92.5t94 -40.5z" />
    <glyph glyph-name="q" unicode="q" horiz-adv-x="597" 
d="M414 490h118v-691h-122v273q-52 -77 -156 -77q-97 0 -156.5 66t-59.5 178q0 114 61 185t162 71q104 0 150 -76zM281 98q60 0 94.5 41t34.5 91v29q0 52 -34.5 92.5t-93.5 40.5q-54 0 -87.5 -41.5t-33.5 -108.5q0 -66 32.5 -105t87.5 -39z" />
    <glyph glyph-name="r" unicode="r" horiz-adv-x="359" 
d="M311 495q12 0 30 -3l-1 -120q-12 5 -34 5q-47 0 -80 -30.5t-39 -84.5v-262h-122v490h117l2 -79q41 84 127 84z" />
    <glyph glyph-name="s" unicode="s" horiz-adv-x="485" 
d="M447 137q1 -66 -55 -104t-153 -38q-202 0 -204 155l106 -1q5 -65 98 -65q90 0 90 50q0 27 -29 41.5t-70.5 22.5t-83.5 20.5t-71 46t-29 87.5q0 66 54 104.5t148 38.5q92 0 141 -40t51 -113h-107q-4 64 -86 64q-83 0 -83 -51q0 -22 21 -35.5t52.5 -19t68 -15.5t68 -23.5
t52.5 -45.5t21 -79z" />
    <glyph glyph-name="t" unicode="t" horiz-adv-x="389" 
d="M366 109l4 -101q-32 -13 -83 -13q-92 0 -143.5 49t-51.5 132v215h-73v99h80v141h115v-141h149v-98h-149v-213q0 -81 91 -81q35 0 61 11z" />
    <glyph glyph-name="u" unicode="u" 
d="M375 490h122v-490h-117l-4 71q-49 -76 -146 -76q-81 0 -125.5 49t-44.5 129v317h122v-291q0 -46 24 -72.5t69 -26.5q43 0 71.5 31t28.5 81v278z" />
    <glyph glyph-name="v" unicode="v" horiz-adv-x="521" 
d="M387 490h123l-182 -490h-135l-183 490h132l107 -317q6 -18 14 -55h3q6 33 13 55z" />
    <glyph glyph-name="w" unicode="w" horiz-adv-x="769" 
d="M626 490h129l-142 -490h-140l-78 285q-8 33 -9 47h-3q-2 -22 -8 -47l-78 -285h-140l-143 490h129l75 -313q2 -9 7 -30t6 -29h3q1 6 14 59l80 313h113l81 -313q11 -44 14 -59h3q3 21 13 59z" />
    <glyph glyph-name="x" unicode="x" horiz-adv-x="496" 
d="M489 0h-135l-106 174l-107 -174h-132l168 249l-167 241h135l104 -162l101 162h133l-163 -238z" />
    <glyph glyph-name="y" unicode="y" horiz-adv-x="516" 
d="M383 490h124l-181 -490l-14 -37q-35 -93 -78.5 -131t-118.5 -38q-49 0 -79 10l8 103q25 -10 47 -10q37 0 62 15t39 55l8 21l-189 502h133l104 -319q6 -18 14 -55h3q6 36 13 55z" />
    <glyph glyph-name="z" unicode="z" horiz-adv-x="475" 
d="M185 98h255v-98h-405v91l252 301h-244v98h390v-90z" />
    <glyph glyph-name="braceleft" unicode="{" horiz-adv-x="343" 
d="M25 360h10q26 0 45 17t19 52v156q0 80 48 125.5t134 45.5h32v-104h-28q-34 0 -52 -19.5t-18 -55.5v-172q0 -43 -15.5 -68t-35.5 -29q19 -5 35 -31.5t16 -66.5v-172q0 -76 70 -76h28v-103h-32q-86 0 -134 45t-48 125v157q0 35 -19 52t-45 17h-10v105z" />
    <glyph glyph-name="bar" unicode="|" horiz-adv-x="265" 
d="M76 -175v885h113v-885h-113z" />
    <glyph glyph-name="braceright" unicode="}" horiz-adv-x="343" 
d="M318 360v-105h-10q-26 0 -44.5 -17t-18.5 -52v-157q0 -80 -48 -125t-135 -45h-32v103h28q70 0 70 76v172q0 40 16 66.5t35 31.5q-19 4 -35 29.5t-16 67.5v172q0 36 -18 55.5t-52 19.5h-28v104h32q87 0 135 -45t48 -126v-156q0 -35 18.5 -52t44.5 -17h10z" />
    <glyph glyph-name="asciitilde" unicode="~" horiz-adv-x="541" 
d="M201 322q-26 0 -41.5 -12t-16.5 -32h-82q0 65 32 98t92 33q41 0 92.5 -23t70.5 -23q26 0 42 11.5t15 32.5h83q0 -63 -34 -97t-90 -34q-39 0 -91.5 23t-71.5 23z" />
    <glyph glyph-name="exclamdown" unicode="&#xa1;" horiz-adv-x="260" 
d="M128 348q-35 0 -56.5 21t-21.5 55t21.5 55t56.5 21t56.5 -21t21.5 -55t-21.5 -55t-56.5 -21zM195 -201h-129l12 461h106z" />
    <glyph glyph-name="cent" unicode="&#xa2;" horiz-adv-x="537" 
d="M283 185q85 0 101 89h119q-9 -73 -51 -122t-118 -63v-99h-109v99q-84 18 -135 84t-51 160q0 95 51 162t135 84v98h109v-98q75 -14 118 -64.5t51 -123.5h-119q-16 92 -101 92q-55 0 -88 -40t-33 -110q0 -69 33 -108.5t88 -39.5z" />
    <glyph glyph-name="sterling" unicode="&#xa3;" horiz-adv-x="600" 
d="M335 587q-100 0 -100 -116q0 -49 7 -110h225v-85h-214q4 -46 4 -63q0 -61 -28 -106h326v-107h-512v103q52 0 71.5 22t19.5 78q0 30 -5 73h-84v85h74q-7 63 -7 110q1 104 61 163.5t163 59.5t163.5 -59t59.5 -158h-120q-2 110 -104 110z" />
    <glyph glyph-name="currency" unicode="&#xa4;" horiz-adv-x="592" 
d="M506 319q0 -61 -28 -112l67 -67l-75 -75l-66 66q-49 -27 -108 -27q-61 0 -108 28l-67 -67l-75 75l68 68q-28 50 -28 111q0 59 27 111l-68 68l76 75l67 -67q47 28 108 28t108 -28l67 67l74 -76l-67 -66q28 -51 28 -112zM296 213q48 0 75.5 30t27.5 76t-28 76t-75 30
q-48 0 -76 -30t-28 -76t28 -76t76 -30z" />
    <glyph glyph-name="yen" unicode="&#xa5;" horiz-adv-x="647" 
d="M384 269v-55h143v-84h-143v-130h-123v130h-142v84h142v55l-1 1h-141v84h93l-192 332h132l171 -307l171 307h131l-192 -332h93v-84h-141z" />
    <glyph glyph-name="brokenbar" unicode="&#xa6;" horiz-adv-x="271" 
d="M79 345v365h113v-365h-113zM79 -175v365h113v-365h-113z" />
    <glyph glyph-name="section" unicode="&#xa7;" horiz-adv-x="546" 
d="M421 125q59 -44 59 -132q0 -78 -59.5 -123.5t-161.5 -45.5q-104 0 -162.5 48t-58.5 134l107 -1q0 -41 29.5 -65t82.5 -24q50 0 77 19.5t27 53.5q0 31 -23 50.5t-57 27t-74.5 19.5t-74.5 27t-57 51t-23 90q0 92 79 142q-57 42 -57 128q0 77 57.5 123t153.5 46t152.5 -48
t56.5 -131h-109q0 42 -26.5 64.5t-70.5 22.5t-70 -20t-25 -53q0 -30 23 -48.5t57 -25.5t74.5 -19t74.5 -27t57 -52t23 -93q0 -92 -81 -138zM171 258q0 -35 28 -51.5t84 -29.5q49 3 75 26t25 56q0 16 -7 29t-16.5 21t-28.5 15.5t-31.5 11t-38.5 9.5q-42 -4 -66.5 -29.5
t-23.5 -57.5z" />
    <glyph glyph-name="dieresis" unicode="&#xa8;" horiz-adv-x="377" 
d="M97 712q31 0 49.5 -18.5t18.5 -47.5t-18.5 -47t-49.5 -18q-30 0 -48.5 18t-18.5 47t18.5 47.5t48.5 18.5zM294 712q30 0 48.5 -18t18.5 -48q0 -29 -18.5 -47t-48.5 -18q-31 0 -49.5 18t-18.5 47t18.5 47.5t49.5 18.5z" />
    <glyph glyph-name="copyright" unicode="&#xa9;" horiz-adv-x="776" 
d="M388 -6q-154 0 -250.5 98t-96.5 251q1 152 97.5 250.5t249.5 98.5t249.5 -98.5t96.5 -250.5q0 -153 -96.5 -251t-249.5 -98zM388 65q118 0 194.5 79t76.5 199q1 120 -75.5 199t-195.5 79t-195.5 -79t-76.5 -199t76.5 -199t195.5 -79zM397 222q70 0 82 73h107
q-9 -73 -58 -119t-132 -45q-93 -1 -151 59t-58 153q0 94 58 153t150 59q85 0 134 -46.5t57 -119.5h-107q-13 74 -82 75q-44 -1 -70 -32.5t-27 -88.5q1 -57 27 -89t70 -32z" />
    <glyph glyph-name="ordfeminine" unicode="&#xaa;" horiz-adv-x="449" 
d="M221 693q82 0 126.5 -40.5t44.5 -111.5v-228h-102l-3 51q-33 -55 -119 -55q-61 0 -94.5 27.5t-33.5 75.5q0 120 214 120h31v15q0 29 -17.5 46t-51.5 17q-26 0 -43.5 -13.5t-20.5 -36.5h-101q6 63 51.5 98t118.5 35zM200 390q38 0 61.5 18t23.5 42v23h-36q-102 0 -102 -47
q0 -36 53 -36z" />
    <glyph glyph-name="guillemotleft" unicode="&#xab;" horiz-adv-x="520" 
d="M28 236v11l125 156h119l-128 -162l129 -162h-120zM229 236v11l125 156h118l-127 -162l128 -162h-119z" />
    <glyph glyph-name="registered" unicode="&#xae;" horiz-adv-x="546" 
d="M273 693q102 0 166.5 -66t64.5 -167t-64.5 -167.5t-167.5 -66.5q-102 0 -166.5 66t-64.5 168q0 101 64.5 166.5t167.5 66.5zM273 283q75 1 123.5 51t48.5 126t-49 126.5t-124 50.5t-123.5 -50.5t-48.5 -126.5q1 -77 49 -127t124 -50zM386 499q0 -49 -39 -71
q5 -9 18.5 -42t25.5 -48h-75q-6 9 -17.5 37t-16.5 37h-39v-74h-74v248h74l40 -1q103 0 103 -86zM243 526v-58h40q29 0 29 29t-29 29h-40z" />
    <glyph glyph-name="macron" unicode="&#xaf;" horiz-adv-x="402" 
d="M51 603v86h299v-86h-299z" />
    <glyph glyph-name="degree" unicode="&#xb0;" horiz-adv-x="340" 
d="M305 581q0 -61 -38 -98t-97 -37t-97.5 37t-38.5 98q0 60 38.5 97t97.5 37t97 -36.5t38 -97.5zM234 581q0 29 -18.5 46.5t-45.5 17.5t-45 -17.5t-18 -46.5t18 -46.5t45 -17.5t45.5 17.5t18.5 46.5z" />
    <glyph glyph-name="plusminus" unicode="&#xb1;" horiz-adv-x="523" 
d="M318 461h149v-101h-149v-157h-113v157h-149v101h149v157h113v-157zM56 53v101h410v-101h-410z" />
    <glyph glyph-name="acute" unicode="&#xb4;" horiz-adv-x="288" 
d="M145 560h-97l47 169h145z" />
    <glyph glyph-name="paragraph" unicode="&#xb6;" horiz-adv-x="641" 
d="M443 -151v736h-65v-736h-108v429h-29q-97 0 -156.5 55.5t-59.5 145.5q0 93 59.5 150t156.5 57h311v-837h-109z" />
    <glyph glyph-name="periodcentered" unicode="&#xb7;" horiz-adv-x="247" 
d="M123 448q36 0 57.5 -21t21.5 -55t-21.5 -55t-57.5 -21q-35 0 -56.5 21t-21.5 55t21.5 55t56.5 21z" />
    <glyph glyph-name="cedilla" unicode="&#xb8;" horiz-adv-x="279" 
d="M74 -131q25 -10 53 -10q46 0 46 26q0 30 -81 30l23 103h63l-11 -53q35 -5 57 -25t22 -56q0 -43 -33 -69t-88 -26q-37 0 -67 13z" />
    <glyph glyph-name="ordmasculine" unicode="&#xba;" horiz-adv-x="458" 
d="M229 693q87 0 140.5 -53.5t53.5 -139.5q0 -85 -53.5 -138t-140.5 -53t-141 53.5t-54 137.5q0 86 54 139.5t141 53.5zM229 602q-37 0 -59.5 -28t-22.5 -74q0 -45 22.5 -72.5t59.5 -27.5q38 0 60 27.5t22 72.5q0 46 -22 74t-60 28z" />
    <glyph glyph-name="guillemotright" unicode="&#xbb;" horiz-adv-x="520" 
d="M291 236l-124 -157h-120l128 162l-127 162h119l124 -156v-11zM492 236l-125 -157h-120l129 162l-128 162h119l125 -156v-11z" />
    <glyph glyph-name="onequarter" unicode="&#xbc;" horiz-adv-x="807" 
d="M497 693h102l-300 -693h-104zM277 382v-81h-236v81h74v185h-74v68q48 0 71.5 12t37.5 43h63v-308h64zM778 156v-81h-48v-75h-98v75h-189v83l154 232h133v-234h48zM539 158v-2h95v142h-1z" />
    <glyph glyph-name="onehalf" unicode="&#xbd;" horiz-adv-x="795" 
d="M493 693h102l-301 -693h-104zM275 382v-81h-236v81h74v185h-74v68q48 0 71.5 12t37.5 43h63v-308h64zM627 81h138v-81h-290l-1 64l142 133q41 39 41 70q0 43 -40 43q-22 0 -34 -15.5t-12 -39.5l-99 -1q0 65 40.5 103t105.5 38q63 0 101 -35.5t38 -92.5q0 -66 -72 -132z
" />
    <glyph glyph-name="threequarters" unicode="&#xbe;" horiz-adv-x="851" 
d="M547 693h103l-301 -693h-104zM340 416q0 -55 -43 -89t-114 -34q-67 0 -110 36t-44 95h100q1 -45 56 -45q51 0 51 39q0 41 -51 41h-37v70h30q50 0 52 38q-2 39 -46 39q-23 0 -35.5 -13.5t-12.5 -37.5h-100q0 63 40 100t106 37q64 0 106 -33.5t42 -87.5q0 -46 -34 -74
q44 -28 44 -81zM823 156v-81h-48v-75h-99v75h-188v83l154 232h133v-234h48zM583 158v-2h96v142h-1z" />
    <glyph glyph-name="questiondown" unicode="&#xbf;" horiz-adv-x="468" 
d="M259 348q-34 0 -56.5 21.5t-22.5 54.5t22 54.5t58 21.5q35 0 56 -21t22 -55q-1 -34 -23 -55t-56 -21zM326 -6l119 1q0 -95 -58 -150.5t-156 -56.5q-95 -1 -149.5 49.5t-55.5 133.5q0 38 18 70.5t43.5 55t51.5 43t44 44.5t18 49v27h113v-34q0 -35 -17.5 -65.5t-42 -53
t-49 -43t-42 -44.5t-17.5 -50q1 -36 23.5 -55.5t61.5 -19.5q43 0 69 24.5t26 74.5z" />
    <glyph glyph-name="Agrave" unicode="&#xc0;" horiz-adv-x="653" 
d="M378 730h-113l-97 134h163zM522 0l-53 156h-286l-53 -156h-123l248 686h142l248 -686h-123zM218 256h216l-108 316z" />
    <glyph glyph-name="Aacute" unicode="&#xc1;" horiz-adv-x="653" 
d="M482 864l-98 -134h-113l45 134h166zM522 0l-53 156h-286l-53 -156h-123l248 686h142l248 -686h-123zM218 256h216l-108 316z" />
    <glyph glyph-name="Acircumflex" unicode="&#xc2;" horiz-adv-x="653" 
d="M327 796l-67 -66h-91l91 134h134l90 -134h-91zM522 0l-53 156h-286l-53 -156h-123l248 686h142l248 -686h-123zM218 256h216l-108 316z" />
    <glyph glyph-name="Atilde" unicode="&#xc3;" horiz-adv-x="653" 
d="M269 782q-18 0 -28 -11.5t-10 -29.5h-82q0 130 108 130q39 0 76 -21.5t52 -21.5q17 0 26.5 11t8.5 30h83q0 -63 -28 -96t-76 -33q-39 0 -77.5 21t-52.5 21zM522 0l-53 156h-286l-53 -156h-123l248 686h142l248 -686h-123zM218 256h216l-108 316z" />
    <glyph glyph-name="Adieresis" unicode="&#xc4;" horiz-adv-x="653" 
d="M229 739q-31 0 -49.5 18t-18.5 47t18.5 47.5t49.5 18.5t49 -18t18 -48q0 -29 -18.5 -47t-48.5 -18zM425 739q-30 0 -48.5 18t-18.5 47t18.5 47.5t48.5 18.5q31 0 49.5 -18.5t18.5 -47.5t-18.5 -47t-49.5 -18zM522 0l-53 156h-286l-53 -156h-123l248 686h142l248 -686
h-123zM218 256h216l-108 316z" />
    <glyph glyph-name="Aring" unicode="&#xc5;" horiz-adv-x="653" 
d="M326 714q-42 0 -71.5 26.5t-29.5 69.5q0 44 29.5 70.5t71.5 26.5q43 0 72 -26.5t29 -70.5q0 -43 -29 -69.5t-72 -26.5zM326 844q-16 0 -25.5 -9.5t-9.5 -24.5t9.5 -25t25.5 -10t26 10t10 25t-10 24.5t-26 9.5zM522 0l-53 156h-286l-53 -156h-123l248 686h142l248 -686
h-123zM218 256h216l-108 316z" />
    <glyph glyph-name="AE" unicode="&#xc6;" horiz-adv-x="1002" 
d="M601 107h355v-107h-477v156h-262l-97 -156h-132l419 686h543v-108h-349v-174h313v-104h-313v-193zM279 256h200v322h-1z" />
    <glyph glyph-name="Ccedilla" unicode="&#xc7;" horiz-adv-x="699" 
d="M363 101q83 0 126.5 41t53.5 108h121q-12 -112 -83 -181t-201 -75l-6 -28q35 -5 57 -25t22 -56q0 -43 -33 -69t-88 -26q-37 0 -67 13l16 67q25 -10 53 -10q46 0 46 26q0 30 -81 30l18 81q-123 14 -198.5 107t-75.5 239q0 157 89 253.5t228 96.5q138 0 215 -70.5
t89 -187.5h-121q-10 68 -54.5 109.5t-125.5 41.5q-85 0 -141 -66.5t-56 -176.5q1 -112 56 -177t141 -65z" />
    <glyph glyph-name="Egrave" unicode="&#xc8;" horiz-adv-x="605" 
d="M370 730h-113l-97 134h163zM204 104h355v-104h-477v686h471v-104h-349v-179h313v-102h-313v-197z" />
    <glyph glyph-name="Eacute" unicode="&#xc9;" horiz-adv-x="605" 
d="M474 864l-98 -134h-113l45 134h166zM204 104h355v-104h-477v686h471v-104h-349v-179h313v-102h-313v-197z" />
    <glyph glyph-name="Ecircumflex" unicode="&#xca;" horiz-adv-x="605" 
d="M318 796l-67 -66h-91l91 134h134l90 -134h-91zM204 104h355v-104h-477v686h471v-104h-349v-179h313v-102h-313v-197z" />
    <glyph glyph-name="Edieresis" unicode="&#xcb;" horiz-adv-x="605" 
d="M221 739q-31 0 -49.5 18t-18.5 47t18.5 47.5t49.5 18.5t49 -18t18 -48q0 -29 -18.5 -47t-48.5 -18zM417 739q-30 0 -48.5 18t-18.5 47t18.5 47.5t48.5 18.5q31 0 49.5 -18.5t18.5 -47.5t-18.5 -47t-49.5 -18zM204 104h355v-104h-477v686h471v-104h-349v-179h313v-102
h-313v-197z" />
    <glyph glyph-name="Igrave" unicode="&#xcc;" horiz-adv-x="286" 
d="M82 730l-97 134h163l47 -134h-113zM82 0v686h122v-686h-122z" />
    <glyph glyph-name="Iacute" unicode="&#xcd;" horiz-adv-x="286" 
d="M202 730h-113l45 134h166zM82 0v686h122v-686h-122z" />
    <glyph glyph-name="Icircumflex" unicode="&#xce;" horiz-adv-x="286" 
d="M211 864l90 -134h-91l-66 66l-67 -66h-91l91 134h134zM82 0v686h122v-686h-122z" />
    <glyph glyph-name="Idieresis" unicode="&#xcf;" horiz-adv-x="286" 
d="M46 870q30 0 48.5 -18t18.5 -48q0 -29 -18.5 -47t-48.5 -18q-31 0 -49.5 18t-18.5 47t18.5 47.5t49.5 18.5zM242 870q31 0 49.5 -18.5t18.5 -47.5t-18.5 -47t-49.5 -18q-30 0 -48.5 18t-18.5 47t18.5 47.5t48.5 18.5zM82 0v686h122v-686h-122z" />
    <glyph glyph-name="Eth" unicode="&#xd0;" horiz-adv-x="731" 
d="M358 686q149 0 240 -91.5t91 -251.5t-91 -251.5t-240 -91.5h-261v300h-83v84h83v302h261zM358 102q94 0 151 63t57 178t-57 177.5t-151 62.5h-139v-199h159v-84h-159v-197z" />
    <glyph glyph-name="Ntilde" unicode="&#xd1;" horiz-adv-x="729" 
d="M308 783q-18 0 -28 -11.5t-10 -29.5h-82q0 130 108 130q39 0 76 -21.5t52 -21.5q17 0 26.5 11t8.5 30h83q0 -63 -28 -96t-76 -33q-39 0 -77.5 21t-52.5 21zM527 686h120v-686h-117l-328 500v-500h-120v686h117l328 -502v502z" />
    <glyph glyph-name="Ograve" unicode="&#xd2;" horiz-adv-x="762" 
d="M320 730l-97 134h163l47 -134h-113zM381 -6q-148 0 -243.5 94t-95.5 253t96 255.5t243 96.5q148 0 243.5 -94.5t95.5 -253.5t-95.5 -255t-243.5 -96zM381 100q92 0 153.5 66t61.5 177q0 112 -61.5 177.5t-153.5 65.5t-153.5 -65.5t-61.5 -177.5q0 -111 61.5 -177
t153.5 -66z" />
    <glyph glyph-name="Oacute" unicode="&#xd3;" horiz-adv-x="762" 
d="M439 730h-113l45 134h166zM381 -6q-148 0 -243.5 94t-95.5 253t96 255.5t243 96.5q148 0 243.5 -94.5t95.5 -253.5t-95.5 -255t-243.5 -96zM381 100q92 0 153.5 66t61.5 177q0 112 -61.5 177.5t-153.5 65.5t-153.5 -65.5t-61.5 -177.5q0 -111 61.5 -177t153.5 -66z" />
    <glyph glyph-name="Ocircumflex" unicode="&#xd4;" horiz-adv-x="762" 
d="M449 864l90 -134h-91l-66 66l-67 -66h-91l91 134h134zM381 -6q-148 0 -243.5 94t-95.5 253t96 255.5t243 96.5q148 0 243.5 -94.5t95.5 -253.5t-95.5 -255t-243.5 -96zM381 100q92 0 153.5 66t61.5 177q0 112 -61.5 177.5t-153.5 65.5t-153.5 -65.5t-61.5 -177.5
q0 -111 61.5 -177t153.5 -66z" />
    <glyph glyph-name="Otilde" unicode="&#xd5;" horiz-adv-x="762" 
d="M324 782q-18 0 -28 -11.5t-10 -29.5h-82q0 130 108 130q39 0 76 -21.5t52 -21.5q17 0 26.5 11t8.5 30h83q0 -63 -28 -96t-76 -33q-39 0 -77.5 21t-52.5 21zM381 -6q-148 0 -243.5 94t-95.5 253t96 255.5t243 96.5q148 0 243.5 -94.5t95.5 -253.5t-95.5 -255t-243.5 -96z
M381 100q92 0 153.5 66t61.5 177q0 112 -61.5 177.5t-153.5 65.5t-153.5 -65.5t-61.5 -177.5q0 -111 61.5 -177t153.5 -66z" />
    <glyph glyph-name="Odieresis" unicode="&#xd6;" horiz-adv-x="762" 
d="M284 870q30 0 48.5 -18t18.5 -48q0 -29 -18.5 -47t-48.5 -18q-31 0 -49.5 18t-18.5 47t18.5 47.5t49.5 18.5zM480 870q31 0 49.5 -18.5t18.5 -47.5t-18.5 -47t-49.5 -18q-30 0 -48.5 18t-18.5 47t18.5 47.5t48.5 18.5zM381 -6q-148 0 -243.5 94t-95.5 253t96 255.5
t243 96.5q148 0 243.5 -94.5t95.5 -253.5t-95.5 -255t-243.5 -96zM381 100q92 0 153.5 66t61.5 177q0 112 -61.5 177.5t-153.5 65.5t-153.5 -65.5t-61.5 -177.5q0 -111 61.5 -177t153.5 -66z" />
    <glyph glyph-name="multiply" unicode="&#xd7;" horiz-adv-x="479" 
d="M434 470l-123 -123l123 -124l-71 -71l-123 124l-124 -124l-71 71l124 124l-124 123l71 71l124 -123l123 123z" />
    <glyph glyph-name="Oslash" unicode="&#xd8;" horiz-adv-x="762" 
d="M608 614q112 -96 112 -269q0 -159 -95.5 -255t-243.5 -96q-77 0 -142 27l-42 -67h-108l71 114q-118 95 -118 273q0 159 96 255.5t243 96.5q82 0 150 -31l34 54h107zM166 343q0 -105 58 -173l248 397q-44 19 -91 19q-92 0 -153.5 -65.5t-61.5 -177.5zM381 100
q92 0 153.5 66t61.5 177q0 100 -52 167l-246 -394q42 -16 83 -16z" />
    <glyph glyph-name="Ugrave" unicode="&#xd9;" horiz-adv-x="710" 
d="M294 730l-97 134h163l47 -134h-113zM513 686h122v-415q0 -129 -75 -203t-205 -74q-133 0 -207 73.5t-74 203.5v415h122v-415q0 -84 41 -127.5t118 -43.5q76 0 117 43.5t41 127.5v415z" />
    <glyph glyph-name="Uacute" unicode="&#xda;" horiz-adv-x="710" 
d="M413 730h-113l45 134h166zM513 686h122v-415q0 -129 -75 -203t-205 -74q-133 0 -207 73.5t-74 203.5v415h122v-415q0 -84 41 -127.5t118 -43.5q76 0 117 43.5t41 127.5v415z" />
    <glyph glyph-name="Ucircumflex" unicode="&#xdb;" horiz-adv-x="710" 
d="M422 864l90 -134h-91l-66 66l-67 -66h-91l91 134h134zM513 686h122v-415q0 -129 -75 -203t-205 -74q-133 0 -207 73.5t-74 203.5v415h122v-415q0 -84 41 -127.5t118 -43.5q76 0 117 43.5t41 127.5v415z" />
    <glyph glyph-name="Udieresis" unicode="&#xdc;" horiz-adv-x="710" 
d="M258 870q30 0 48.5 -18t18.5 -48q0 -29 -18.5 -47t-48.5 -18q-31 0 -49.5 18t-18.5 47t18.5 47.5t49.5 18.5zM454 870q31 0 49.5 -18.5t18.5 -47.5t-18.5 -47t-49.5 -18q-30 0 -48.5 18t-18.5 47t18.5 47.5t48.5 18.5zM513 686h122v-415q0 -129 -75 -203t-205 -74
q-133 0 -207 73.5t-74 203.5v415h122v-415q0 -84 41 -127.5t118 -43.5q76 0 117 43.5t41 127.5v415z" />
    <glyph glyph-name="Yacute" unicode="&#xdd;" horiz-adv-x="615" 
d="M464 864l-98 -134h-113l45 134h166zM610 686l-241 -417v-269h-123v269l-241 417h132l171 -307l171 307h131z" />
    <glyph glyph-name="Thorn" unicode="&#xde;" horiz-adv-x="633" 
d="M356 560q110 0 174.5 -55.5t65.5 -156.5q0 -101 -64.5 -156.5t-175.5 -55.5h-152v-136h-122v686h122v-126h152zM356 238q55 0 85.5 30.5t30.5 79.5t-30.5 79.5t-85.5 30.5h-152v-220h152z" />
    <glyph glyph-name="germandbls" unicode="&#xdf;" horiz-adv-x="568" 
d="M417 374q115 -42 115 -168q0 -95 -64 -150.5t-177 -55.5h-47v98h47q57 0 87.5 28t30.5 80t-31 82.5t-87 30.5h-29v91h3q54 0 79.5 31t25.5 80q0 44 -22 72t-68 28q-47 0 -70 -27.5t-23 -72.5v-521h-122v525q0 88 58 142.5t158 54.5q104 0 158 -55t54 -139
q0 -102 -76 -154z" />
    <glyph glyph-name="agrave" unicode="&#xe0;" horiz-adv-x="551" 
d="M327 560h-97l-94 169h144zM528 103l8 -99q-34 -9 -66 -9q-85 0 -106 80q-43 -80 -164 -80q-80 0 -123 36t-43 97q0 81 69 117.5t180 36.5h76v25q0 44 -26 68.5t-76 24.5q-43 0 -69 -20t-30 -56h-112q6 81 64.5 126t153.5 45q103 0 158.5 -51.5t55.5 -143.5v-172
q0 -30 25 -30q11 0 25 5zM232 86q56 0 91.5 29t35.5 64v32h-82q-124 0 -124 -70q0 -55 79 -55z" />
    <glyph glyph-name="aacute" unicode="&#xe1;" horiz-adv-x="551" 
d="M407 729l-95 -169h-97l47 169h145zM528 103l8 -99q-34 -9 -66 -9q-85 0 -106 80q-43 -80 -164 -80q-80 0 -123 36t-43 97q0 81 69 117.5t180 36.5h76v25q0 44 -26 68.5t-76 24.5q-43 0 -69 -20t-30 -56h-112q6 81 64.5 126t153.5 45q103 0 158.5 -51.5t55.5 -143.5v-172
q0 -30 25 -30q11 0 25 5zM232 86q56 0 91.5 29t35.5 64v32h-82q-124 0 -124 -70q0 -55 79 -55z" />
    <glyph glyph-name="acircumflex" unicode="&#xe2;" horiz-adv-x="551" 
d="M272 650l-70 -90h-89l97 169h124l96 -169h-88zM528 103l8 -99q-34 -9 -66 -9q-85 0 -106 80q-43 -80 -164 -80q-80 0 -123 36t-43 97q0 81 69 117.5t180 36.5h76v25q0 44 -26 68.5t-76 24.5q-43 0 -69 -20t-30 -56h-112q6 81 64.5 126t153.5 45q103 0 158.5 -51.5
t55.5 -143.5v-172q0 -30 25 -30q11 0 25 5zM232 86q56 0 91.5 29t35.5 64v32h-82q-124 0 -124 -70q0 -55 79 -55z" />
    <glyph glyph-name="atilde" unicode="&#xe3;" horiz-adv-x="551" 
d="M204 622q-38 0 -38 -42h-82q0 131 106 131q40 0 77.5 -22.5t55.5 -22.5q37 0 37 43h82q0 -65 -27.5 -98t-77.5 -33q-39 0 -77 22t-56 22zM528 103l8 -99q-34 -9 -66 -9q-85 0 -106 80q-43 -80 -164 -80q-80 0 -123 36t-43 97q0 81 69 117.5t180 36.5h76v25q0 44 -26 68.5
t-76 24.5q-43 0 -69 -20t-30 -56h-112q6 81 64.5 126t153.5 45q103 0 158.5 -51.5t55.5 -143.5v-172q0 -30 25 -30q11 0 25 5zM232 86q56 0 91.5 29t35.5 64v32h-82q-124 0 -124 -70q0 -55 79 -55z" />
    <glyph glyph-name="adieresis" unicode="&#xe4;" horiz-adv-x="551" 
d="M178 581q-30 0 -48.5 18t-18.5 47t18.5 47.5t48.5 18.5q31 0 49.5 -18.5t18.5 -47.5t-18.5 -47t-49.5 -18zM375 581q-31 0 -49.5 18t-18.5 47t18.5 47.5t49.5 18.5t49 -18t18 -48q0 -29 -18.5 -47t-48.5 -18zM528 103l8 -99q-34 -9 -66 -9q-85 0 -106 80
q-43 -80 -164 -80q-80 0 -123 36t-43 97q0 81 69 117.5t180 36.5h76v25q0 44 -26 68.5t-76 24.5q-43 0 -69 -20t-30 -56h-112q6 81 64.5 126t153.5 45q103 0 158.5 -51.5t55.5 -143.5v-172q0 -30 25 -30q11 0 25 5zM232 86q56 0 91.5 29t35.5 64v32h-82q-124 0 -124 -70
q0 -55 79 -55z" />
    <glyph glyph-name="aring" unicode="&#xe5;" horiz-adv-x="551" 
d="M272 547q-43 0 -72.5 26.5t-29.5 69.5q0 44 29.5 71t72.5 27q42 0 71.5 -27t29.5 -71q0 -43 -29.5 -69.5t-71.5 -26.5zM272 677q-16 0 -25.5 -9.5t-9.5 -24.5t9.5 -24.5t25.5 -9.5t26 10t10 24q0 15 -10 24.5t-26 9.5zM528 103l8 -99q-34 -9 -66 -9q-85 0 -106 80
q-43 -80 -164 -80q-80 0 -123 36t-43 97q0 81 69 117.5t180 36.5h76v25q0 44 -26 68.5t-76 24.5q-43 0 -69 -20t-30 -56h-112q6 81 64.5 126t153.5 45q103 0 158.5 -51.5t55.5 -143.5v-172q0 -30 25 -30q11 0 25 5zM232 86q56 0 91.5 29t35.5 64v32h-82q-124 0 -124 -70
q0 -55 79 -55z" />
    <glyph glyph-name="ae" unicode="&#xe6;" horiz-adv-x="859" 
d="M821 242v-25h-347q7 -59 40.5 -92t84.5 -33q47 0 72.5 20t32.5 48h116q-14 -73 -69 -119t-153 -46q-125 0 -193 92q-73 -92 -206 -92q-79 0 -122.5 36.5t-43.5 96.5q0 154 277 154h47v25q0 43 -26 68t-75 25q-39 0 -64.5 -20t-30.5 -56h-114q8 81 65 126t148 45
q115 0 170 -64q66 64 165 64q106 0 166 -68.5t60 -184.5zM596 401q-45 0 -77.5 -28.5t-42.5 -80.5h229q-15 109 -109 109zM364 179q-4 19 -5 32h-52q-154 0 -154 -70q0 -53 78 -53q57 0 95 29t38 62z" />
    <glyph glyph-name="ccedilla" unicode="&#xe7;" horiz-adv-x="534" 
d="M280 96q86 0 102 89h120q-9 -81 -62.5 -133t-146.5 -57l-6 -30q35 -5 57 -25t22 -56q0 -43 -33 -69t-88 -26q-37 0 -67 13l16 67q25 -10 53 -10q46 0 46 26q0 30 -81 30l19 83q-91 14 -142.5 80.5t-51.5 164.5q0 111 67.5 181.5t173.5 70.5q101 0 158 -53t66 -140h-120
q-16 92 -101 92q-55 0 -87.5 -39.5t-32.5 -109.5t31.5 -109.5t87.5 -39.5z" />
    <glyph glyph-name="egrave" unicode="&#xe8;" horiz-adv-x="546" 
d="M332 560h-97l-94 169h144zM508 242v-25h-351q7 -60 40 -92.5t86 -32.5q90 0 108 68h115q-14 -71 -71 -118t-157 -47q-111 0 -176 69t-65 180t68.5 181t173.5 70q108 0 168.5 -68.5t60.5 -184.5zM280 401q-47 0 -79 -28t-42 -81h233q-15 109 -112 109z" />
    <glyph glyph-name="eacute" unicode="&#xe9;" horiz-adv-x="546" 
d="M413 729l-95 -169h-97l47 169h145zM508 242v-25h-351q7 -60 40 -92.5t86 -32.5q90 0 108 68h115q-14 -71 -71 -118t-157 -47q-111 0 -176 69t-65 180t68.5 181t173.5 70q108 0 168.5 -68.5t60.5 -184.5zM280 401q-47 0 -79 -28t-42 -81h233q-15 109 -112 109z" />
    <glyph glyph-name="ecircumflex" unicode="&#xea;" horiz-adv-x="546" 
d="M278 650l-70 -90h-89l97 169h124l96 -169h-88zM508 242v-25h-351q7 -60 40 -92.5t86 -32.5q90 0 108 68h115q-14 -71 -71 -118t-157 -47q-111 0 -176 69t-65 180t68.5 181t173.5 70q108 0 168.5 -68.5t60.5 -184.5zM280 401q-47 0 -79 -28t-42 -81h233q-15 109 -112 109z
" />
    <glyph glyph-name="edieresis" unicode="&#xeb;" horiz-adv-x="546" 
d="M183 581q-30 0 -48.5 18t-18.5 47t18.5 47.5t48.5 18.5q31 0 49.5 -18.5t18.5 -47.5t-18.5 -47t-49.5 -18zM380 581q-31 0 -49.5 18t-18.5 47t18.5 47.5t49.5 18.5q30 0 48.5 -18t18.5 -48q0 -29 -18.5 -47t-48.5 -18zM508 242v-25h-351q7 -60 40 -92.5t86 -32.5
q90 0 108 68h115q-14 -71 -71 -118t-157 -47q-111 0 -176 69t-65 180t68.5 181t173.5 70q108 0 168.5 -68.5t60.5 -184.5zM280 401q-47 0 -79 -28t-42 -81h233q-15 109 -112 109z" />
    <glyph glyph-name="igrave" unicode="&#xec;" horiz-adv-x="252" 
d="M67 560l-94 169h144l47 -169h-97zM65 0v490h122v-490h-122z" />
    <glyph glyph-name="iacute" unicode="&#xed;" horiz-adv-x="252" 
d="M155 560h-97l47 169h145zM65 0v490h122v-490h-122z" />
    <glyph glyph-name="icircumflex" unicode="&#xee;" horiz-adv-x="252" 
d="M-32 560l97 169h124l96 -169h-88l-70 90l-70 -90h-89zM65 0v490h122v-490h-122z" />
    <glyph glyph-name="idieresis" unicode="&#xef;" horiz-adv-x="252" 
d="M32 712q31 0 49.5 -18.5t18.5 -47.5t-18.5 -47t-49.5 -18q-30 0 -48.5 18t-18.5 47t18.5 47.5t48.5 18.5zM229 712q31 0 49 -18t18 -48q0 -29 -18.5 -47t-48.5 -18q-31 0 -49.5 18t-18.5 47t18.5 47.5t49.5 18.5zM65 0v490h122v-490h-122z" />
    <glyph glyph-name="eth" unicode="&#xf0;" horiz-adv-x="577" 
d="M388 626q146 -124 146 -354q0 -130 -66 -203.5t-187 -73.5q-101 0 -172.5 66t-71.5 164q0 108 69 175t168 67q91 0 137 -56q-23 88 -99 150l-85 -72l-48 60l65 55q-46 21 -95 25l31 88q75 -10 142 -46l66 55l49 -59zM282 96q58 0 92.5 37.5t36.5 96.5q0 60 -38.5 99
t-87.5 39q-55 0 -90 -40t-35 -101q0 -57 37 -94t85 -37z" />
    <glyph glyph-name="ntilde" unicode="&#xf1;" horiz-adv-x="573" 
d="M225 622q-38 0 -38 -42h-82q0 131 106 131q40 0 77.5 -22.5t55.5 -22.5q37 0 37 43h82q0 -65 -27.5 -98t-77.5 -33q-39 0 -77 22t-56 22zM340 495q81 0 127 -50.5t46 -136.5v-308h-123v280q0 52 -24 81t-70 29q-49 0 -79 -31t-30 -81v-278h-122v490h117l4 -71
q49 76 154 76z" />
    <glyph glyph-name="ograve" unicode="&#xf2;" horiz-adv-x="572" 
d="M243 560l-94 169h144l47 -169h-97zM286 495q112 0 180.5 -68.5t68.5 -180.5q0 -111 -68.5 -181t-180.5 -70t-180.5 68t-68.5 178q0 112 69 183t180 71zM286 394q-57 0 -91 -41.5t-34 -108.5q0 -66 34 -107t91 -41t91 40.5t34 107.5t-34 108.5t-91 41.5z" />
    <glyph glyph-name="oacute" unicode="&#xf3;" horiz-adv-x="572" 
d="M326 560h-97l47 169h145zM286 495q112 0 180.5 -68.5t68.5 -180.5q0 -111 -68.5 -181t-180.5 -70t-180.5 68t-68.5 178q0 112 69 183t180 71zM286 394q-57 0 -91 -41.5t-34 -108.5q0 -66 34 -107t91 -41t91 40.5t34 107.5t-34 108.5t-91 41.5z" />
    <glyph glyph-name="ocircumflex" unicode="&#xf4;" horiz-adv-x="572" 
d="M127 560l97 169h124l96 -169h-88l-70 90l-70 -90h-89zM286 495q112 0 180.5 -68.5t68.5 -180.5q0 -111 -68.5 -181t-180.5 -70t-180.5 68t-68.5 178q0 112 69 183t180 71zM286 394q-57 0 -91 -41.5t-34 -108.5q0 -66 34 -107t91 -41t91 40.5t34 107.5t-34 108.5t-91 41.5
z" />
    <glyph glyph-name="otilde" unicode="&#xf5;" horiz-adv-x="572" 
d="M218 622q-38 0 -38 -42h-82q0 131 106 131q40 0 77.5 -22.5t55.5 -22.5q37 0 37 43h82q0 -65 -27.5 -98t-77.5 -33q-39 0 -77 22t-56 22zM286 495q112 0 180.5 -68.5t68.5 -180.5q0 -111 -68.5 -181t-180.5 -70t-180.5 68t-68.5 178q0 112 69 183t180 71zM286 394
q-57 0 -91 -41.5t-34 -108.5q0 -66 34 -107t91 -41t91 40.5t34 107.5t-34 108.5t-91 41.5z" />
    <glyph glyph-name="odieresis" unicode="&#xf6;" horiz-adv-x="572" 
d="M191 712q31 0 49.5 -18.5t18.5 -47.5t-18.5 -47t-49.5 -18q-30 0 -48.5 18t-18.5 47t18.5 47.5t48.5 18.5zM388 712q30 0 48.5 -18t18.5 -48q0 -29 -18.5 -47t-48.5 -18q-31 0 -49.5 18t-18.5 47t18.5 47.5t49.5 18.5zM286 495q112 0 180.5 -68.5t68.5 -180.5
q0 -111 -68.5 -181t-180.5 -70t-180.5 68t-68.5 178q0 112 69 183t180 71zM286 394q-57 0 -91 -41.5t-34 -108.5q0 -66 34 -107t91 -41t91 40.5t34 107.5t-34 108.5t-91 41.5z" />
    <glyph glyph-name="divide" unicode="&#xf7;" horiz-adv-x="496" 
d="M247 580q29 0 46 -17t17 -44t-17 -44t-46 -17q-28 0 -45 17t-17 44t17 44t45 17zM43 296v101h410v-101h-410zM248 236q29 0 46 -17t17 -44t-17 -44t-46 -17q-28 0 -45 17t-17 44t17 44t45 17z" />
    <glyph glyph-name="oslash" unicode="&#xf8;" horiz-adv-x="572" 
d="M447 444q88 -69 88 -198q0 -111 -68.5 -181t-180.5 -70q-56 0 -105 19l-27 -43h-77l47 76q-87 68 -87 194q0 112 69 183t180 71q56 0 105 -19l24 39h76zM161 244q0 -58 26 -96l147 237q-21 9 -48 9q-57 0 -91 -41.5t-34 -108.5zM286 96q57 0 91 40.5t34 107.5
q0 60 -27 99l-147 -238q23 -9 49 -9z" />
    <glyph glyph-name="ugrave" unicode="&#xf9;" 
d="M333 560h-97l-94 169h144zM375 490h122v-490h-117l-4 71q-49 -76 -146 -76q-81 0 -125.5 49t-44.5 129v317h122v-291q0 -46 24 -72.5t69 -26.5q43 0 71.5 31t28.5 81v278z" />
    <glyph glyph-name="uacute" unicode="&#xfa;" 
d="M413 729l-95 -169h-97l47 169h145zM375 490h122v-490h-117l-4 71q-49 -76 -146 -76q-81 0 -125.5 49t-44.5 129v317h122v-291q0 -46 24 -72.5t69 -26.5q43 0 71.5 31t28.5 81v278z" />
    <glyph glyph-name="ucircumflex" unicode="&#xfb;" 
d="M278 650l-70 -90h-89l97 169h124l96 -169h-88zM375 490h122v-490h-117l-4 71q-49 -76 -146 -76q-81 0 -125.5 49t-44.5 129v317h122v-291q0 -46 24 -72.5t69 -26.5q43 0 71.5 31t28.5 81v278z" />
    <glyph glyph-name="udieresis" unicode="&#xfc;" 
d="M184 581q-30 0 -48.5 18t-18.5 47t18.5 47.5t48.5 18.5q31 0 49.5 -18.5t18.5 -47.5t-18.5 -47t-49.5 -18zM381 581q-31 0 -49.5 18t-18.5 47t18.5 47.5t49.5 18.5t49 -18t18 -48q0 -29 -18.5 -47t-48.5 -18zM375 490h122v-490h-117l-4 71q-49 -76 -146 -76
q-81 0 -125.5 49t-44.5 129v317h122v-291q0 -46 24 -72.5t69 -26.5q43 0 71.5 31t28.5 81v278z" />
    <glyph glyph-name="yacute" unicode="&#xfd;" horiz-adv-x="516" 
d="M392 729l-95 -169h-97l47 169h145zM383 490h124l-181 -490l-14 -37q-35 -93 -78.5 -131t-118.5 -38q-49 0 -79 10l8 103q25 -10 47 -10q37 0 62 15t39 55l8 21l-189 502h133l104 -319q6 -18 14 -55h3q6 36 13 55z" />
    <glyph glyph-name="thorn" unicode="&#xfe;" horiz-adv-x="598" 
d="M343 495q97 0 156.5 -65t59.5 -178q0 -114 -60.5 -185.5t-160.5 -71.5q-105 0 -152 78v-274h-121v911h120v-295q52 80 158 80zM315 98q54 0 87.5 41.5t33.5 108.5q0 66 -32.5 105t-87.5 39q-60 0 -95 -41t-35 -91v-29q0 -52 35 -92.5t94 -40.5z" />
    <glyph glyph-name="ydieresis" unicode="&#xff;" horiz-adv-x="516" 
d="M163 581q-30 0 -48.5 18t-18.5 47t18.5 47.5t48.5 18.5q31 0 49.5 -18.5t18.5 -47.5t-18.5 -47t-49.5 -18zM360 581q-31 0 -49.5 18t-18.5 47t18.5 47.5t49.5 18.5q30 0 48.5 -18t18.5 -48q0 -29 -18.5 -47t-48.5 -18zM383 490h124l-181 -490l-14 -37q-35 -93 -78.5 -131
t-118.5 -38q-49 0 -79 10l8 103q25 -10 47 -10q37 0 62 15t39 55l8 21l-189 502h133l104 -319q6 -18 14 -55h3q6 36 13 55z" />
    <glyph glyph-name="Amacron" unicode="&#x100;" horiz-adv-x="653" 
d="M477 838v-85h-299v85h299zM522 0l-53 156h-286l-53 -156h-123l248 686h142l248 -686h-123zM218 256h216l-108 316z" />
    <glyph glyph-name="amacron" unicode="&#x101;" horiz-adv-x="551" 
d="M423 689v-86h-299v86h299zM528 103l8 -99q-34 -9 -66 -9q-85 0 -106 80q-43 -80 -164 -80q-80 0 -123 36t-43 97q0 81 69 117.5t180 36.5h76v25q0 44 -26 68.5t-76 24.5q-43 0 -69 -20t-30 -56h-112q6 81 64.5 126t153.5 45q103 0 158.5 -51.5t55.5 -143.5v-172
q0 -30 25 -30q11 0 25 5zM232 86q56 0 91.5 29t35.5 64v32h-82q-124 0 -124 -70q0 -55 79 -55z" />
    <glyph glyph-name="Abreve" unicode="&#x102;" horiz-adv-x="653" 
d="M326 728q-67 0 -105.5 39t-38.5 97h91q0 -26 14 -41t39 -15t38.5 15t13.5 41h92q0 -57 -39 -96.5t-105 -39.5zM522 0l-53 156h-286l-53 -156h-123l248 686h142l248 -686h-123zM218 256h216l-108 316z" />
    <glyph glyph-name="abreve" unicode="&#x103;" horiz-adv-x="551" 
d="M272 557q-71 0 -111 44.5t-40 123.5h92q0 -83 58 -83t58 83h93q0 -78 -40 -123t-110 -45zM528 103l8 -99q-34 -9 -66 -9q-85 0 -106 80q-43 -80 -164 -80q-80 0 -123 36t-43 97q0 81 69 117.5t180 36.5h76v25q0 44 -26 68.5t-76 24.5q-43 0 -69 -20t-30 -56h-112
q6 81 64.5 126t153.5 45q103 0 158.5 -51.5t55.5 -143.5v-172q0 -30 25 -30q11 0 25 5zM232 86q56 0 91.5 29t35.5 64v32h-82q-124 0 -124 -70q0 -55 79 -55z" />
    <glyph glyph-name="Aogonek" unicode="&#x104;" horiz-adv-x="653" 
d="M666 -122l31 -56q-33 -35 -95 -35q-51 0 -80 27t-29 73q0 63 58 113h-29l-53 156h-286l-53 -156h-123l248 686h142l248 -686q-3 -2 -8 -5t-18 -12.5t-22.5 -20.5t-17.5 -27.5t-8 -33.5q0 -42 42 -42q31 0 53 19zM218 256h216l-108 316z" />
    <glyph glyph-name="aogonek" unicode="&#x105;" horiz-adv-x="551" 
d="M556 -117l31 -56q-33 -35 -95 -35q-51 0 -80 27t-29 73q0 61 52 107q-55 16 -71 76q-43 -80 -164 -80q-80 0 -123 36t-43 97q0 81 69 117.5t180 36.5h76v25q0 44 -26 68.5t-76 24.5q-43 0 -69 -20t-30 -56h-112q6 81 64.5 126t153.5 45q103 0 158.5 -51.5t55.5 -143.5
v-172q0 -30 25 -30q11 0 25 5l8 -99q-1 0 -2.5 -0.5t-2.5 -0.5q-70 -42 -70 -97q0 -42 42 -42q31 0 53 19zM232 86q56 0 91.5 29t35.5 64v32h-82q-124 0 -124 -70q0 -55 79 -55z" />
    <glyph glyph-name="Cacute" unicode="&#x106;" horiz-adv-x="699" 
d="M418 723h-113l45 134h166zM363 101q83 0 126.5 41t53.5 108h121q-13 -116 -88.5 -186t-215.5 -70t-228.5 95t-88.5 254q0 157 89 253.5t228 96.5q138 0 215 -70.5t89 -187.5h-121q-10 68 -54.5 109.5t-125.5 41.5q-85 0 -141 -66.5t-56 -176.5q1 -112 56 -177t141 -65z
" />
    <glyph glyph-name="cacute" unicode="&#x107;" horiz-adv-x="534" 
d="M320 560h-97l47 169h145zM275 -5q-109 0 -173.5 69t-64.5 179q0 111 67.5 181.5t173.5 70.5q101 0 158 -53t66 -140h-120q-16 92 -101 92q-55 0 -87.5 -39.5t-32.5 -109.5t31.5 -109.5t87.5 -39.5q86 0 102 89h120q-10 -85 -68 -137.5t-159 -52.5z" />
    <glyph glyph-name="Ccircumflex" unicode="&#x108;" horiz-adv-x="699" 
d="M428 857l90 -134h-91l-66 66l-67 -66h-91l91 134h134zM363 101q83 0 126.5 41t53.5 108h121q-13 -116 -88.5 -186t-215.5 -70t-228.5 95t-88.5 254q0 157 89 253.5t228 96.5q138 0 215 -70.5t89 -187.5h-121q-10 68 -54.5 109.5t-125.5 41.5q-85 0 -141 -66.5t-56 -176.5
q1 -112 56 -177t141 -65z" />
    <glyph glyph-name="ccircumflex" unicode="&#x109;" horiz-adv-x="534" 
d="M122 560l97 169h124l96 -169h-88l-70 90l-70 -90h-89zM275 -5q-109 0 -173.5 69t-64.5 179q0 111 67.5 181.5t173.5 70.5q101 0 158 -53t66 -140h-120q-16 92 -101 92q-55 0 -87.5 -39.5t-32.5 -109.5t31.5 -109.5t87.5 -39.5q86 0 102 89h120q-10 -85 -68 -137.5
t-159 -52.5z" />
    <glyph glyph-name="Cdotaccent" unicode="&#x10a;" horiz-adv-x="699" 
d="M359 874q36 0 57.5 -21t21.5 -55t-21.5 -55t-56.5 -21t-57 21t-22 55t21.5 55t56.5 21zM363 101q83 0 126.5 41t53.5 108h121q-13 -116 -88.5 -186t-215.5 -70t-228.5 95t-88.5 254q0 157 89 253.5t228 96.5q138 0 215 -70.5t89 -187.5h-121q-10 68 -54.5 109.5
t-125.5 41.5q-85 0 -141 -66.5t-56 -176.5q1 -112 56 -177t141 -65z" />
    <glyph glyph-name="cdotaccent" unicode="&#x10b;" horiz-adv-x="534" 
d="M281 726q35 0 56.5 -21t21.5 -55t-21.5 -55t-56.5 -21t-56.5 21t-21.5 55t21.5 55t56.5 21zM275 -5q-109 0 -173.5 69t-64.5 179q0 111 67.5 181.5t173.5 70.5q101 0 158 -53t66 -140h-120q-16 92 -101 92q-55 0 -87.5 -39.5t-32.5 -109.5t31.5 -109.5t87.5 -39.5
q86 0 102 89h120q-10 -85 -68 -137.5t-159 -52.5z" />
    <glyph glyph-name="Ccaron" unicode="&#x10c;" horiz-adv-x="699" 
d="M428 723h-134l-91 134h91l67 -67l66 67h91zM363 101q83 0 126.5 41t53.5 108h121q-13 -116 -88.5 -186t-215.5 -70t-228.5 95t-88.5 254q0 157 89 253.5t228 96.5q138 0 215 -70.5t89 -187.5h-121q-10 68 -54.5 109.5t-125.5 41.5q-85 0 -141 -66.5t-56 -176.5
q1 -112 56 -177t141 -65z" />
    <glyph glyph-name="ccaron" unicode="&#x10d;" horiz-adv-x="534" 
d="M122 729h88l70 -90l70 90h88l-95 -169h-124zM275 -5q-109 0 -173.5 69t-64.5 179q0 111 67.5 181.5t173.5 70.5q101 0 158 -53t66 -140h-120q-16 92 -101 92q-55 0 -87.5 -39.5t-32.5 -109.5t31.5 -109.5t87.5 -39.5q86 0 102 89h120q-10 -85 -68 -137.5t-159 -52.5z" />
    <glyph glyph-name="Dcaron" unicode="&#x10e;" horiz-adv-x="717" 
d="M404 730h-134l-91 134h91l67 -67l66 67h91zM343 686q149 0 240 -91.5t91 -251.5t-91 -251.5t-240 -91.5h-261v686h261zM343 102q94 0 151 63t57 178t-57 177.5t-151 62.5h-139v-480z" />
    <glyph glyph-name="dcaron" unicode="&#x10f;" horiz-adv-x="626" 
d="M642 743q68 0 68 -90q0 -76 -38 -121t-85 -43v53q21 0 39 19.5t18 50.5q-31 0 -49.5 18.5t-18.5 47.5t19 47t47 18zM410 425v285h122v-710h-118l-3 73q-47 -78 -153 -78q-99 0 -159.5 69.5t-60.5 180.5q0 114 63 182t160 68q103 0 149 -70zM282 98q59 0 93.5 40.5
t34.5 92.5v27q0 52 -34 93t-94 41q-54 0 -87.5 -40.5t-33.5 -106.5t33.5 -106.5t87.5 -40.5z" />
    <glyph glyph-name="Dcroat" unicode="&#x110;" horiz-adv-x="734" 
d="M360 686q149 0 240 -91.5t91 -251.5t-91 -251.5t-240 -91.5h-261v300h-86v84h86v302h261zM360 102q94 0 151 63t57 178t-57 177.5t-151 62.5h-139v-199h163v-84h-163v-197z" />
    <glyph glyph-name="dcroat" unicode="&#x111;" horiz-adv-x="597" 
d="M590 638v-74h-58v-564h-118l-3 74q-51 -79 -157 -79q-97 0 -156.5 66t-59.5 178q0 114 61 185t162 71q104 0 149 -74v143h-140v74h140v72h122v-72h58zM281 98q60 0 94.5 41t34.5 91v29q0 52 -34.5 92.5t-93.5 40.5q-54 0 -87.5 -41.5t-33.5 -108.5q0 -66 32.5 -105
t87.5 -39z" />
    <glyph glyph-name="Emacron" unicode="&#x112;" horiz-adv-x="605" 
d="M468 838v-85h-299v85h299zM204 104h355v-104h-477v686h471v-104h-349v-179h313v-102h-313v-197z" />
    <glyph glyph-name="emacron" unicode="&#x113;" horiz-adv-x="546" 
d="M429 689v-86h-299v86h299zM508 242v-25h-351q7 -60 40 -92.5t86 -32.5q90 0 108 68h115q-14 -71 -71 -118t-157 -47q-111 0 -176 69t-65 180t68.5 181t173.5 70q108 0 168.5 -68.5t60.5 -184.5zM280 401q-47 0 -79 -28t-42 -81h233q-15 109 -112 109z" />
    <glyph glyph-name="Ebreve" unicode="&#x114;" horiz-adv-x="605" 
d="M318 728q-67 0 -105.5 39t-38.5 97h91q0 -26 14 -41t39 -15t38.5 15t13.5 41h92q0 -57 -39 -96.5t-105 -39.5zM204 104h355v-104h-477v686h471v-104h-349v-179h313v-102h-313v-197z" />
    <glyph glyph-name="ebreve" unicode="&#x115;" horiz-adv-x="546" 
d="M278 557q-71 0 -111 44.5t-40 123.5h92q0 -83 58 -83t58 83h93q0 -78 -40 -123t-110 -45zM508 242v-25h-351q7 -60 40 -92.5t86 -32.5q90 0 108 68h115q-14 -71 -71 -118t-157 -47q-111 0 -176 69t-65 180t68.5 181t173.5 70q108 0 168.5 -68.5t60.5 -184.5zM280 401
q-47 0 -79 -28t-42 -81h233q-15 109 -112 109z" />
    <glyph glyph-name="Edotaccent" unicode="&#x116;" horiz-adv-x="605" 
d="M317 729q-35 0 -57 21t-22 55t21.5 55t56.5 21q36 0 57.5 -21t21.5 -55t-21.5 -55t-56.5 -21zM204 104h355v-104h-477v686h471v-104h-349v-179h313v-102h-313v-197z" />
    <glyph glyph-name="edotaccent" unicode="&#x117;" horiz-adv-x="546" 
d="M278 574q-35 0 -56.5 21t-21.5 55t21.5 55t56.5 21t56.5 -21t21.5 -55t-21.5 -55t-56.5 -21zM508 242v-25h-351q7 -60 40 -92.5t86 -32.5q90 0 108 68h115q-14 -71 -71 -118t-157 -47q-111 0 -176 69t-65 180t68.5 181t173.5 70q108 0 168.5 -68.5t60.5 -184.5zM280 401
q-47 0 -79 -28t-42 -81h233q-15 109 -112 109z" />
    <glyph glyph-name="Eogonek" unicode="&#x118;" horiz-adv-x="605" 
d="M579 -122l31 -56q-33 -35 -95 -35q-51 0 -80 27t-29 73q0 63 58 113h-382v686h471v-104h-349v-179h313v-102h-313v-197h355v-104h-1q-3 -2 -8 -5t-18 -12.5t-22.5 -20.5t-17.5 -27.5t-8 -33.5q0 -42 42 -42q31 0 53 19z" />
    <glyph glyph-name="eogonek" unicode="&#x119;" horiz-adv-x="546" 
d="M508 242v-25h-351q7 -60 40 -92.5t86 -32.5q90 0 108 68h115q-19 -94 -99 -136l1 -1q-3 -2 -8 -5t-18 -12.5t-22.5 -20.5t-17.5 -27.5t-8 -33.5q0 -42 42 -42q31 0 53 19l31 -56q-33 -35 -95 -35q-51 0 -80 27t-29 73q0 47 31 85h-9q-111 0 -176 69t-65 180t68.5 181
t173.5 70q108 0 168.5 -68.5t60.5 -184.5zM280 401q-47 0 -79 -28t-42 -81h233q-15 109 -112 109z" />
    <glyph glyph-name="Ecaron" unicode="&#x11a;" horiz-adv-x="605" 
d="M386 730h-134l-91 134h91l67 -67l66 67h91zM204 104h355v-104h-477v686h471v-104h-349v-179h313v-102h-313v-197z" />
    <glyph glyph-name="ecaron" unicode="&#x11b;" horiz-adv-x="546" 
d="M341 560h-124l-97 169h88l70 -90l70 90h88zM508 242v-25h-351q7 -60 40 -92.5t86 -32.5q90 0 108 68h115q-14 -71 -71 -118t-157 -47q-111 0 -176 69t-65 180t68.5 181t173.5 70q108 0 168.5 -68.5t60.5 -184.5zM280 401q-47 0 -79 -28t-42 -81h233q-15 109 -112 109z
" />
    <glyph glyph-name="Gcircumflex" unicode="&#x11c;" horiz-adv-x="729" 
d="M370 796l-67 -66h-91l91 134h134l90 -134h-91zM377 359h297v-359h-89v108q-71 -114 -225 -114q-144 0 -230.5 95t-86.5 256q0 156 90.5 252t240.5 96q131 0 207.5 -67t87.5 -175h-122q-10 59 -52.5 97t-120.5 38q-94 0 -151 -65.5t-57 -176.5q0 -114 54.5 -179t145.5 -64
q86 -1 138 47t59 115h-186v96z" />
    <glyph glyph-name="gcircumflex" unicode="&#x11d;" horiz-adv-x="594" 
d="M304 650l-70 -90h-89l97 169h124l96 -169h-88zM413 490h116v-493q0 -91 -65.5 -149.5t-180.5 -58.5q-102 0 -161 40t-67 120h116q12 -65 112 -65q60 0 92.5 31t32.5 78v80q-47 -77 -151 -77q-99 0 -159 69t-60 180q0 114 63 182t159 68q105 0 149 -73zM281 98
q58 0 92.5 41t34.5 93v26q0 51 -34 92.5t-93 41.5q-54 0 -87 -40.5t-33 -106.5t33.5 -106.5t86.5 -40.5z" />
    <glyph glyph-name="Gbreve" unicode="&#x11e;" horiz-adv-x="729" 
d="M369 728q-67 0 -105.5 39t-38.5 97h91q0 -26 14 -41t39 -15t38.5 15t13.5 41h92q0 -57 -39 -96.5t-105 -39.5zM377 359h297v-359h-89v108q-71 -114 -225 -114q-144 0 -230.5 95t-86.5 256q0 156 90.5 252t240.5 96q131 0 207.5 -67t87.5 -175h-122q-10 59 -52.5 97
t-120.5 38q-94 0 -151 -65.5t-57 -176.5q0 -114 54.5 -179t145.5 -64q86 -1 138 47t59 115h-186v96z" />
    <glyph glyph-name="gbreve" unicode="&#x11f;" horiz-adv-x="594" 
d="M304 557q-71 0 -111 44.5t-40 123.5h92q0 -83 58 -83t58 83h93q0 -78 -40 -123t-110 -45zM413 490h116v-493q0 -91 -65.5 -149.5t-180.5 -58.5q-102 0 -161 40t-67 120h116q12 -65 112 -65q60 0 92.5 31t32.5 78v80q-47 -77 -151 -77q-99 0 -159 69t-60 180q0 114 63 182
t159 68q105 0 149 -73zM281 98q58 0 92.5 41t34.5 93v26q0 51 -34 92.5t-93 41.5q-54 0 -87 -40.5t-33 -106.5t33.5 -106.5t86.5 -40.5z" />
    <glyph glyph-name="Gdotaccent" unicode="&#x120;" horiz-adv-x="729" 
d="M369 729q-35 0 -57 21t-22 55t21.5 55t56.5 21q36 0 57.5 -21t21.5 -55t-21.5 -55t-56.5 -21zM377 359h297v-359h-89v108q-71 -114 -225 -114q-144 0 -230.5 95t-86.5 256q0 156 90.5 252t240.5 96q131 0 207.5 -67t87.5 -175h-122q-10 59 -52.5 97t-120.5 38
q-94 0 -151 -65.5t-57 -176.5q0 -114 54.5 -179t145.5 -64q86 -1 138 47t59 115h-186v96z" />
    <glyph glyph-name="gdotaccent" unicode="&#x121;" horiz-adv-x="594" 
d="M305 574q-35 0 -56.5 21t-21.5 55t21.5 55t56.5 21t56.5 -21t21.5 -55t-21.5 -55t-56.5 -21zM413 490h116v-493q0 -91 -65.5 -149.5t-180.5 -58.5q-102 0 -161 40t-67 120h116q12 -65 112 -65q60 0 92.5 31t32.5 78v80q-47 -77 -151 -77q-99 0 -159 69t-60 180
q0 114 63 182t159 68q105 0 149 -73zM281 98q58 0 92.5 41t34.5 93v26q0 51 -34 92.5t-93 41.5q-54 0 -87 -40.5t-33 -106.5t33.5 -106.5t86.5 -40.5z" />
    <glyph glyph-name="Gcommaaccent" unicode="&#x122;" horiz-adv-x="729" 
d="M377 359h297v-359h-89v108q-71 -114 -225 -114q-144 0 -230.5 95t-86.5 256q0 156 90.5 252t240.5 96q131 0 207.5 -67t87.5 -175h-122q-10 59 -52.5 97t-120.5 38q-94 0 -151 -65.5t-57 -176.5q0 -114 54.5 -179t145.5 -64q86 -1 138 47t59 115h-186v96zM363 -41
q67 -2 67 -91q0 -74 -38.5 -119t-84.5 -43v52q22 0 39.5 19.5t17.5 49.5q-30 0 -49 18.5t-19 47.5q0 30 19 48t48 18z" />
    <glyph glyph-name="gcommaaccent" unicode="&#x123;" horiz-adv-x="594" 
d="M304 544q-67 2 -67 91q0 74 38.5 119t84.5 43v-52q-22 0 -39.5 -19.5t-17.5 -49.5q30 0 49 -18.5t19 -47.5q0 -30 -19 -48t-48 -18zM413 490h116v-493q0 -91 -65.5 -149.5t-180.5 -58.5q-102 0 -161 40t-67 120h116q12 -65 112 -65q60 0 92.5 31t32.5 78v80
q-47 -77 -151 -77q-99 0 -159 69t-60 180q0 114 63 182t159 68q105 0 149 -73zM281 98q58 0 92.5 41t34.5 93v26q0 51 -34 92.5t-93 41.5q-54 0 -87 -40.5t-33 -106.5t33.5 -106.5t86.5 -40.5z" />
    <glyph glyph-name="Hcircumflex" unicode="&#x124;" horiz-adv-x="730" 
d="M368 796l-67 -66h-91l91 134h134l90 -134h-91zM526 686h122v-686h-122v298h-322v-298h-122v686h122v-281h322v281z" />
    <glyph glyph-name="hcircumflex" unicode="&#x125;" horiz-adv-x="573" 
d="M190 744l-66 66l-67 -66h-91l91 134h134l90 -134h-91zM339 495q81 0 127.5 -50t46.5 -129v-316h-123v286q0 49 -24 76.5t-69 27.5q-50 0 -80 -30.5t-30 -81.5v-278h-122v710h120v-292q50 77 154 77z" />
    <glyph glyph-name="Hbar" unicode="&#x126;" horiz-adv-x="731" 
d="M698 606v-84h-50v-522h-122v298h-322v-298h-122v522h-45v84h45v80h122v-80h322v80h122v-80h50zM526 405v117h-322v-117h322z" />
    <glyph glyph-name="hbar" unicode="&#x127;" horiz-adv-x="573" 
d="M339 495q81 0 127.5 -50t46.5 -129v-316h-123v286q0 49 -24 76.5t-69 27.5q-50 0 -80 -30.5t-30 -81.5v-278h-122v564h-70v74h70v72h120v-72h130v-74h-130v-146q50 77 154 77z" />
    <glyph glyph-name="Itilde" unicode="&#x128;" horiz-adv-x="286" 
d="M86 782q-18 0 -28 -11.5t-10 -29.5h-82q0 130 108 130q39 0 76 -21.5t52 -21.5q17 0 26.5 11t8.5 30h83q0 -63 -28 -96t-76 -33q-39 0 -77.5 21t-52.5 21zM82 0v686h122v-686h-122z" />
    <glyph glyph-name="itilde" unicode="&#x129;" horiz-adv-x="252" 
d="M59 622q-38 0 -38 -42h-82q0 131 106 131q40 0 77.5 -22.5t55.5 -22.5q37 0 37 43h82q0 -65 -27.5 -98t-77.5 -33q-39 0 -77 22t-56 22zM65 0v490h122v-490h-122z" />
    <glyph glyph-name="Imacron" unicode="&#x12a;" horiz-adv-x="286" 
d="M-5 753v85h299v-85h-299zM82 0v686h122v-686h-122z" />
    <glyph glyph-name="imacron" unicode="&#x12b;" horiz-adv-x="252" 
d="M-22 603v86h299v-86h-299zM65 0v490h122v-490h-122z" />
    <glyph glyph-name="Ibreve" unicode="&#x12c;" horiz-adv-x="286" 
d="M288 864q0 -57 -39 -96.5t-105 -39.5q-67 0 -105.5 39t-38.5 97h91q0 -26 14 -41t39 -15t38.5 15t13.5 41h92zM82 0v686h122v-686h-122z" />
    <glyph glyph-name="ibreve" unicode="&#x12d;" horiz-adv-x="252" 
d="M276 725q0 -78 -40 -123t-110 -45q-71 0 -111 44.5t-40 123.5h92q0 -83 58 -83t58 83h93zM65 0v490h122v-490h-122z" />
    <glyph glyph-name="Iogonek" unicode="&#x12e;" horiz-adv-x="286" 
d="M225 -122l31 -56q-33 -35 -95 -35q-51 0 -80 27t-29 73q0 63 58 113h-28v686h122v-686q-3 -2 -8 -5t-18 -12.5t-22.5 -20.5t-17.5 -27.5t-8 -33.5q0 -42 42 -42q31 0 53 19z" />
    <glyph glyph-name="iogonek" unicode="&#x12f;" horiz-adv-x="252" 
d="M127 571q-34 0 -57 22t-23 56q0 33 23 55t57 22t57 -22t23 -55q0 -34 -23 -56t-57 -22zM208 -122l31 -56q-33 -35 -95 -35q-51 0 -80 27t-29 73q0 63 58 113h-28v490h122v-490q-3 -2 -8 -5t-18 -12.5t-22.5 -20.5t-17.5 -27.5t-8 -33.5q0 -42 42 -42q31 0 53 19z" />
    <glyph glyph-name="Idotaccent" unicode="&#x130;" horiz-adv-x="286" 
d="M142 881q36 0 57.5 -21t21.5 -55t-21.5 -55t-56.5 -21t-57 21t-22 55t21.5 55t56.5 21zM82 0v686h122v-686h-122z" />
    <glyph glyph-name="dotlessi" unicode="&#x131;" horiz-adv-x="252" 
d="M65 0v490h122v-490h-122z" />
    <glyph glyph-name="IJ" unicode="&#x132;" horiz-adv-x="819" 
d="M82 0v686h122v-686h-122zM423 221q0 -61 27.5 -90t71.5 -29q46 0 72.5 30t26.5 90v464h122v-457q0 -108 -57 -170.5t-165 -62.5q-106 0 -162.5 59t-56.5 166h121z" />
    <glyph glyph-name="ij" unicode="&#x133;" horiz-adv-x="516" 
d="M207 649q0 -34 -23 -56t-57 -22t-57 22t-23 56q0 33 23 55t57 22t57 -22t23 -55zM474 649q0 -34 -23.5 -56t-57.5 -22q-33 0 -56 22t-23 56q0 33 23 55t56 22q34 0 57.5 -22t23.5 -55zM65 0v490h122v-490h-122zM268 -206q-50 0 -78 10l7 103q27 -10 47 -10q41 0 63.5 23
t22.5 65v505h122v-510q0 -85 -50.5 -135.5t-133.5 -50.5z" />
    <glyph glyph-name="Jcircumflex" unicode="&#x134;" horiz-adv-x="532" 
d="M460 858l90 -134h-91l-66 66l-67 -66h-91l91 134h134zM136 221q0 -61 27.5 -90t71.5 -29q46 0 72.5 30t26.5 90v464h122v-457q0 -108 -57 -170.5t-165 -62.5q-106 0 -162.5 59t-56.5 166h121z" />
    <glyph glyph-name="jcircumflex" unicode="&#x135;" horiz-adv-x="260" 
d="M-28 560l97 169h124l96 -169h-88l-70 90l-70 -90h-89zM11 -206q-50 0 -78 10l7 103q27 -10 47 -10q41 0 63.5 23t22.5 65v505h122v-510q0 -85 -50.5 -135.5t-133.5 -50.5z" />
    <glyph glyph-name="Kcommaaccent" unicode="&#x136;" horiz-adv-x="660" 
d="M392 391l277 -391h-144l-216 304l-105 -122v-182h-122v686h122v-357l299 357h147zM353 -41q67 -2 67 -91q0 -74 -38.5 -119t-84.5 -43v52q22 0 39.5 19.5t17.5 49.5q-30 0 -49 18.5t-19 47.5q0 30 19 48t48 18z" />
    <glyph glyph-name="kcommaaccent" unicode="&#x137;" horiz-adv-x="531" 
d="M335 287l202 -287h-139l-141 201l-70 -77v-124h-122v710h122v-432l185 212h146zM277 -41q67 -2 67 -91q0 -74 -38.5 -119t-84.5 -43v52q22 0 39.5 19.5t17.5 49.5q-30 0 -49 18.5t-19 47.5q0 30 19 48t48 18z" />
    <glyph glyph-name="kgreenlandic" unicode="&#x138;" horiz-adv-x="531" 
d="M398 0l-141 201l-70 -77v-124h-122v490h122v-212l185 212h146l-183 -203l202 -287h-139z" />
    <glyph glyph-name="Lacute" unicode="&#x139;" horiz-adv-x="559" 
d="M294 864l-98 -134h-113l45 134h166zM204 107h345v-107h-467v686h122v-579z" />
    <glyph glyph-name="lacute" unicode="&#x13a;" horiz-adv-x="270" 
d="M272 878l-98 -134h-113l45 134h166zM209 98q10 0 24 5l8 -99q-34 -9 -67 -9q-54 0 -83 32t-29 91v592h121v-582q0 -30 26 -30z" />
    <glyph glyph-name="Lcommaaccent" unicode="&#x13b;" horiz-adv-x="559" 
d="M204 107h345v-107h-467v686h122v-579zM325 -41q67 -2 67 -91q0 -74 -38.5 -119t-84.5 -43v52q22 0 39.5 19.5t17.5 49.5q-30 0 -49 18.5t-19 47.5q0 30 19 48t48 18z" />
    <glyph glyph-name="lcommaaccent" unicode="&#x13c;" horiz-adv-x="270" 
d="M174 -5q-54 0 -83 32t-29 91v592h121v-582q0 -30 26 -30q10 0 24 5l8 -99q-34 -9 -67 -9zM150 -41q67 -2 67 -91q0 -74 -38.5 -119t-84.5 -43v52q22 0 39.5 19.5t17.5 49.5q-30 0 -49 18.5t-19 47.5q0 30 19 48t48 18z" />
    <glyph glyph-name="Lcaron" unicode="&#x13d;" 
d="M422 574q-30 0 -49 18.5t-19 47.5q0 30 19 47.5t48 18.5q67 -2 67 -91q0 -74 -38.5 -119t-84.5 -43v52q22 0 39.5 19.5t17.5 49.5zM204 107h345v-107h-467v686h122v-579z" />
    <glyph glyph-name="lcaron" unicode="&#x13e;" horiz-adv-x="281" 
d="M288 747q67 -2 67 -91q0 -74 -38.5 -119t-84.5 -43v52q22 0 39.5 19.5t17.5 49.5q-30 0 -49 18.5t-19 47.5q0 30 19 47.5t48 18.5zM209 98q10 0 24 5l8 -99q-34 -9 -67 -9q-54 0 -83 32t-29 91v592h121v-582q0 -30 26 -30z" />
    <glyph glyph-name="Ldot" unicode="&#x13f;" 
d="M204 107h345v-107h-467v686h122v-579zM420 290q-35 0 -56.5 21t-21.5 55t21.5 55t56.5 21q36 0 57.5 -21t21.5 -55t-21.5 -55t-57.5 -21z" />
    <glyph glyph-name="ldot" unicode="&#x140;" horiz-adv-x="375" 
d="M209 98q10 0 24 5l8 -99q-34 -9 -67 -9q-54 0 -83 32t-29 91v592h121v-582q0 -30 26 -30zM314 422q36 0 57.5 -21t21.5 -55t-21.5 -55t-57.5 -21q-35 0 -56.5 21t-21.5 55t21.5 55t56.5 21z" />
    <glyph glyph-name="Lslash" unicode="&#x141;" horiz-adv-x="599" 
d="M244 107h345v-107h-467v223l-64 -38l-44 78l108 64v359h122v-286l110 65l44 -77l-154 -92v-189z" />
    <glyph glyph-name="lslash" unicode="&#x142;" horiz-adv-x="338" 
d="M256 98q10 0 24 5l8 -99q-34 -9 -67 -9q-54 0 -83 32t-29 91v168l-64 -38l-37 66l101 60v336h121v-265l64 38l37 -66l-101 -60v-229q0 -30 26 -30z" />
    <glyph glyph-name="Nacute" unicode="&#x143;" horiz-adv-x="729" 
d="M521 864l-98 -134h-113l45 134h166zM527 686h120v-686h-117l-328 500v-500h-120v686h117l328 -502v502z" />
    <glyph glyph-name="nacute" unicode="&#x144;" horiz-adv-x="573" 
d="M428 729l-95 -169h-97l47 169h145zM340 495q81 0 127 -50.5t46 -136.5v-308h-123v280q0 52 -24 81t-70 29q-49 0 -79 -31t-30 -81v-278h-122v490h117l4 -71q49 76 154 76z" />
    <glyph glyph-name="Ncommaaccent" unicode="&#x145;" horiz-adv-x="729" 
d="M527 686h120v-686h-117l-328 500v-500h-120v686h117l328 -502v502zM365 -41q67 -2 67 -91q0 -74 -38.5 -119t-84.5 -43v52q22 0 39.5 19.5t17.5 49.5q-30 0 -49 18.5t-19 47.5q0 30 19 48t48 18z" />
    <glyph glyph-name="ncommaaccent" unicode="&#x146;" horiz-adv-x="573" 
d="M340 495q81 0 127 -50.5t46 -136.5v-308h-123v280q0 52 -24 81t-70 29q-49 0 -79 -31t-30 -81v-278h-122v490h117l4 -71q49 76 154 76zM290 -41q67 -2 67 -91q0 -74 -38.5 -119t-84.5 -43v52q22 0 39.5 19.5t17.5 49.5q-30 0 -49 18.5t-19 47.5q0 30 19 48t48 18z" />
    <glyph glyph-name="Ncaron" unicode="&#x147;" horiz-adv-x="729" 
d="M433 730h-134l-91 134h91l67 -67l66 67h91zM527 686h120v-686h-117l-328 500v-500h-120v686h117l328 -502v502z" />
    <glyph glyph-name="ncaron" unicode="&#x148;" horiz-adv-x="573" 
d="M356 560h-124l-97 169h88l70 -90l70 90h88zM340 495q81 0 127 -50.5t46 -136.5v-308h-123v280q0 52 -24 81t-70 29q-49 0 -79 -31t-30 -81v-278h-122v490h117l4 -71q49 76 154 76z" />
    <glyph glyph-name="napostrophe" unicode="&#x149;" horiz-adv-x="653" 
d="M88 731q67 -2 67 -91q0 -74 -38.5 -119t-84.5 -43v52q22 0 39.5 19.5t17.5 49.5q-30 0 -49 18.5t-19 47.5q0 30 19 47.5t48 18.5zM421 495q81 0 127 -50.5t46 -136.5v-308h-123v280q0 52 -24 81t-70 29q-49 0 -79 -31t-30 -81v-278h-122v490h117l4 -71q49 76 154 76z" />
    <glyph glyph-name="Eng" unicode="&#x14a;" horiz-adv-x="729" 
d="M527 686h120v-706q0 -85 -50.5 -135.5t-133.5 -50.5q-48 0 -78 10l8 103q25 -10 47 -10q39 0 61.5 22t22.5 60v30l-322 491v-500h-120v686h117l328 -502v502z" />
    <glyph glyph-name="eng" unicode="&#x14b;" horiz-adv-x="573" 
d="M340 495q81 0 127 -50.5t46 -136.5v-328q0 -85 -50.5 -135.5t-133.5 -50.5q-48 0 -78 10l7 103q27 -10 47 -10q41 0 63 22.5t22 65.5v295q0 52 -24 81t-70 29q-49 0 -79 -31t-30 -81v-278h-122v490h117l4 -71q49 76 154 76z" />
    <glyph glyph-name="Omacron" unicode="&#x14c;" horiz-adv-x="762" 
d="M233 753v85h299v-85h-299zM381 -6q-148 0 -243.5 94t-95.5 253t96 255.5t243 96.5q148 0 243.5 -94.5t95.5 -253.5t-95.5 -255t-243.5 -96zM381 100q92 0 153.5 66t61.5 177q0 112 -61.5 177.5t-153.5 65.5t-153.5 -65.5t-61.5 -177.5q0 -111 61.5 -177t153.5 -66z" />
    <glyph glyph-name="omacron" unicode="&#x14d;" horiz-adv-x="572" 
d="M138 603v86h299v-86h-299zM286 495q112 0 180.5 -68.5t68.5 -180.5q0 -111 -68.5 -181t-180.5 -70t-180.5 68t-68.5 178q0 112 69 183t180 71zM286 394q-57 0 -91 -41.5t-34 -108.5q0 -66 34 -107t91 -41t91 40.5t34 107.5t-34 108.5t-91 41.5z" />
    <glyph glyph-name="Obreve" unicode="&#x14e;" horiz-adv-x="762" 
d="M525 864q0 -57 -39 -96.5t-105 -39.5q-67 0 -105.5 39t-38.5 97h91q0 -26 14 -41t39 -15t38.5 15t13.5 41h92zM381 -6q-148 0 -243.5 94t-95.5 253t96 255.5t243 96.5q148 0 243.5 -94.5t95.5 -253.5t-95.5 -255t-243.5 -96zM381 100q92 0 153.5 66t61.5 177
q0 112 -61.5 177.5t-153.5 65.5t-153.5 -65.5t-61.5 -177.5q0 -111 61.5 -177t153.5 -66z" />
    <glyph glyph-name="obreve" unicode="&#x14f;" horiz-adv-x="572" 
d="M436 725q0 -78 -40 -123t-110 -45q-71 0 -111 44.5t-40 123.5h92q0 -83 58 -83t58 83h93zM286 495q112 0 180.5 -68.5t68.5 -180.5q0 -111 -68.5 -181t-180.5 -70t-180.5 68t-68.5 178q0 112 69 183t180 71zM286 394q-57 0 -91 -41.5t-34 -108.5q0 -66 34 -107t91 -41
t91 40.5t34 107.5t-34 108.5t-91 41.5z" />
    <glyph glyph-name="Ohungarumlaut" unicode="&#x150;" horiz-adv-x="762" 
d="M312 730h-95l54 134h143zM490 730h-94l54 134h143zM381 -6q-148 0 -243.5 94t-95.5 253t96 255.5t243 96.5q148 0 243.5 -94.5t95.5 -253.5t-95.5 -255t-243.5 -96zM381 100q92 0 153.5 66t61.5 177q0 112 -61.5 177.5t-153.5 65.5t-153.5 -65.5t-61.5 -177.5
q0 -111 61.5 -177t153.5 -66z" />
    <glyph glyph-name="ohungarumlaut" unicode="&#x151;" horiz-adv-x="572" 
d="M220 560h-99l45 169h152zM415 560h-99l45 169h151zM286 495q112 0 180.5 -68.5t68.5 -180.5q0 -111 -68.5 -181t-180.5 -70t-180.5 68t-68.5 178q0 112 69 183t180 71zM286 394q-57 0 -91 -41.5t-34 -108.5q0 -66 34 -107t91 -41t91 40.5t34 107.5t-34 108.5t-91 41.5z
" />
    <glyph glyph-name="OE" unicode="&#x152;" horiz-adv-x="1122" 
d="M721 104h355v-104h-477v67q-90 -73 -218 -73q-148 0 -243.5 94t-95.5 253t96 255.5t243 96.5q129 0 218 -72v65h471v-104h-349v-179h313v-102h-313v-197zM381 100q92 0 153.5 66t61.5 177q0 112 -61.5 177.5t-153.5 65.5t-153.5 -65.5t-61.5 -177.5q0 -111 61.5 -177
t153.5 -66z" />
    <glyph glyph-name="oe" unicode="&#x153;" horiz-adv-x="923" 
d="M886 242v-25h-351q7 -60 40 -92.5t86 -32.5q90 0 108 68h115q-14 -71 -71 -118t-157 -47q-116 0 -183 77q-71 -77 -187 -77q-112 0 -180.5 68t-68.5 178q0 112 69 183t180 71q120 0 190 -78q68 78 181 78q108 0 168.5 -68.5t60.5 -184.5zM658 401q-47 0 -79 -28t-42 -81
h233q-15 109 -112 109zM286 96q57 0 91 40.5t34 107.5t-34 108.5t-91 41.5t-91 -41.5t-34 -108.5q0 -66 34 -107t91 -41z" />
    <glyph glyph-name="Racute" unicode="&#x154;" horiz-adv-x="660" 
d="M463 864l-98 -134h-113l45 134h166zM632 102l7 -98q-31 -9 -66 -9q-66 0 -102 27t-66 84l-81 153h-120v-259h-122v686h266q111 0 176 -56t65 -159q0 -72 -35.5 -121.5t-97.5 -72.5l70 -135q22 -45 66 -45q23 0 40 5zM204 584v-228h144q56 0 86.5 31t30.5 83t-30.5 83
t-86.5 31h-144z" />
    <glyph glyph-name="racute" unicode="&#x155;" horiz-adv-x="359" 
d="M343 729l-95 -169h-97l47 169h145zM184 411q41 84 127 84q12 0 30 -3l-1 -120q-12 5 -34 5q-47 0 -80 -30.5t-39 -84.5v-262h-122v490h117z" />
    <glyph glyph-name="Rcommaaccent" unicode="&#x156;" horiz-adv-x="660" 
d="M632 102l7 -98q-31 -9 -66 -9q-66 0 -102 27t-66 84l-81 153h-120v-259h-122v686h266q111 0 176 -56t65 -159q0 -72 -35.5 -121.5t-97.5 -72.5l70 -135q22 -45 66 -45q23 0 40 5zM204 584v-228h144q56 0 86.5 31t30.5 83t-30.5 83t-86.5 31h-144zM342 -41q67 -2 67 -91
q0 -74 -38.5 -119t-84.5 -43v52q22 0 39.5 19.5t17.5 49.5q-30 0 -49 18.5t-19 47.5q0 30 19 48t48 18z" />
    <glyph glyph-name="rcommaaccent" unicode="&#x157;" horiz-adv-x="359" 
d="M311 495q12 0 30 -3l-1 -120q-12 5 -34 5q-47 0 -80 -30.5t-39 -84.5v-262h-122v490h117l2 -79q41 84 127 84zM131 -41q67 -2 67 -91q0 -74 -38.5 -119t-84.5 -43v52q22 0 39.5 19.5t17.5 49.5q-30 0 -49 18.5t-19 47.5q0 30 19 48t48 18z" />
    <glyph glyph-name="Rcaron" unicode="&#x158;" horiz-adv-x="660" 
d="M375 730h-134l-91 134h91l67 -67l66 67h91zM632 102l7 -98q-31 -9 -66 -9q-66 0 -102 27t-66 84l-81 153h-120v-259h-122v686h266q111 0 176 -56t65 -159q0 -72 -35.5 -121.5t-97.5 -72.5l70 -135q22 -45 66 -45q23 0 40 5zM204 584v-228h144q56 0 86.5 31t30.5 83
t-30.5 83t-86.5 31h-144z" />
    <glyph glyph-name="rcaron" unicode="&#x159;" horiz-adv-x="359" 
d="M271 560h-124l-97 169h88l70 -90l70 90h88zM184 411q41 84 127 84q12 0 30 -3l-1 -120q-12 5 -34 5q-47 0 -80 -30.5t-39 -84.5v-262h-122v490h117z" />
    <glyph glyph-name="Sacute" unicode="&#x15a;" horiz-adv-x="611" 
d="M463 864l-98 -134h-113l45 134h166zM175 502q0 -37 29.5 -59.5t73 -31t95 -22t95 -31.5t73 -62t29.5 -110q0 -87 -73.5 -139.5t-193.5 -52.5q-126 0 -196 54.5t-70 154.5l122 -1q0 -51 38.5 -78t111.5 -27q66 0 102.5 23t36.5 66q0 34 -22 55.5t-56.5 32.5t-77 19.5
t-84.5 21t-76.5 32t-56.5 58.5t-22 94q-1 87 69.5 140.5t185.5 53.5q117 0 184.5 -55t67.5 -151h-122q0 103 -132 103q-131 0 -131 -88z" />
    <glyph glyph-name="sacute" unicode="&#x15b;" horiz-adv-x="485" 
d="M382 729l-95 -169h-97l47 169h145zM447 137q1 -66 -55 -104t-153 -38q-202 0 -204 155l106 -1q5 -65 98 -65q90 0 90 50q0 27 -29 41.5t-70.5 22.5t-83.5 20.5t-71 46t-29 87.5q0 66 54 104.5t148 38.5q92 0 141 -40t51 -113h-107q-4 64 -86 64q-83 0 -83 -51
q0 -22 21 -35.5t52.5 -19t68 -15.5t68 -23.5t52.5 -45.5t21 -79z" />
    <glyph glyph-name="Scircumflex" unicode="&#x15c;" horiz-adv-x="611" 
d="M307 796l-67 -66h-91l91 134h134l90 -134h-91zM175 502q0 -37 29.5 -59.5t73 -31t95 -22t95 -31.5t73 -62t29.5 -110q0 -87 -73.5 -139.5t-193.5 -52.5q-126 0 -196 54.5t-70 154.5l122 -1q0 -51 38.5 -78t111.5 -27q66 0 102.5 23t36.5 66q0 34 -22 55.5t-56.5 32.5
t-77 19.5t-84.5 21t-76.5 32t-56.5 58.5t-22 94q-1 87 69.5 140.5t185.5 53.5q117 0 184.5 -55t67.5 -151h-122q0 103 -132 103q-131 0 -131 -88z" />
    <glyph glyph-name="scircumflex" unicode="&#x15d;" horiz-adv-x="485" 
d="M247 650l-70 -90h-89l97 169h124l96 -169h-88zM447 137q1 -66 -55 -104t-153 -38q-202 0 -204 155l106 -1q5 -65 98 -65q90 0 90 50q0 27 -29 41.5t-70.5 22.5t-83.5 20.5t-71 46t-29 87.5q0 66 54 104.5t148 38.5q92 0 141 -40t51 -113h-107q-4 64 -86 64q-83 0 -83 -51
q0 -22 21 -35.5t52.5 -19t68 -15.5t68 -23.5t52.5 -45.5t21 -79z" />
    <glyph glyph-name="Scedilla" unicode="&#x15e;" horiz-adv-x="611" 
d="M570 186q0 -83 -66.5 -134.5t-176.5 -56.5l-6 -30q35 -5 57 -25t22 -56q0 -43 -33 -69t-88 -26q-37 0 -67 13l16 67q25 -10 53 -10q46 0 46 26q0 30 -81 30l18 80q-108 8 -167.5 62t-59.5 146l122 -1q0 -51 38.5 -78t111.5 -27q66 0 102.5 23t36.5 66q0 34 -22 55.5
t-56.5 32.5t-77 19.5t-84.5 21t-76.5 32t-56.5 58.5t-22 94q-1 87 69.5 140.5t185.5 53.5q117 0 184.5 -55t67.5 -151h-122q0 103 -132 103q-131 0 -131 -88q0 -37 29.5 -59.5t73 -31t95 -22t95 -31.5t73 -62t29.5 -110z" />
    <glyph glyph-name="scedilla" unicode="&#x15f;" horiz-adv-x="485" 
d="M447 137q1 -60 -45.5 -97t-129.5 -44l-6 -31q35 -5 57 -25t22 -56q0 -43 -33 -69t-88 -26q-37 0 -67 13l16 67q25 -10 53 -10q46 0 46 26q0 30 -81 30l18 81q-172 12 -174 154l106 -1q5 -65 98 -65q90 0 90 50q0 27 -29 41.5t-70.5 22.5t-83.5 20.5t-71 46t-29 87.5
q0 66 54 104.5t148 38.5q92 0 141 -40t51 -113h-107q-4 64 -86 64q-83 0 -83 -51q0 -22 21 -35.5t52.5 -19t68 -15.5t68 -23.5t52.5 -45.5t21 -79z" />
    <glyph glyph-name="Scaron" unicode="&#x160;" horiz-adv-x="611" 
d="M375 730h-134l-91 134h91l67 -67l66 67h91zM175 502q0 -37 29.5 -59.5t73 -31t95 -22t95 -31.5t73 -62t29.5 -110q0 -87 -73.5 -139.5t-193.5 -52.5q-126 0 -196 54.5t-70 154.5l122 -1q0 -51 38.5 -78t111.5 -27q66 0 102.5 23t36.5 66q0 34 -22 55.5t-56.5 32.5
t-77 19.5t-84.5 21t-76.5 32t-56.5 58.5t-22 94q-1 87 69.5 140.5t185.5 53.5q117 0 184.5 -55t67.5 -151h-122q0 103 -132 103q-131 0 -131 -88z" />
    <glyph glyph-name="scaron" unicode="&#x161;" horiz-adv-x="485" 
d="M309 560h-124l-97 169h88l70 -90l70 90h88zM447 137q1 -66 -55 -104t-153 -38q-202 0 -204 155l106 -1q5 -65 98 -65q90 0 90 50q0 27 -29 41.5t-70.5 22.5t-83.5 20.5t-71 46t-29 87.5q0 66 54 104.5t148 38.5q92 0 141 -40t51 -113h-107q-4 64 -86 64q-83 0 -83 -51
q0 -22 21 -35.5t52.5 -19t68 -15.5t68 -23.5t52.5 -45.5t21 -79z" />
    <glyph glyph-name="uni0162" unicode="&#x162;" horiz-adv-x="583" 
d="M352 0h-32l-7 -35q35 -5 57 -25t22 -56q0 -43 -33 -69t-88 -26q-37 0 -67 13l16 67q25 -10 53 -10q46 0 46 26q0 30 -81 30l19 85h-27v581h-219v105h561v-105h-220v-581z" />
    <glyph glyph-name="uni0163" unicode="&#x163;" horiz-adv-x="389" 
d="M255 -35q35 -5 57 -25t22 -56q0 -43 -33 -69t-88 -26q-37 0 -67 13l16 67q25 -10 53 -10q46 0 46 26q0 30 -81 30l21 94q-52 19 -80.5 62.5t-28.5 104.5v215h-73v99h80v141h115v-141h149v-98h-149v-213q0 -81 91 -81q35 0 61 11l4 -101q-32 -13 -83 -13q-17 0 -26 1z" />
    <glyph glyph-name="Tcaron" unicode="&#x164;" horiz-adv-x="583" 
d="M362 730h-134l-91 134h91l67 -67l66 67h91zM230 0v581h-219v105h561v-105h-220v-581h-122z" />
    <glyph glyph-name="tcaron" unicode="&#x165;" horiz-adv-x="389" 
d="M322 626q-30 0 -49 18.5t-19 47.5q0 30 19.5 48t47.5 17q30 0 48.5 -22t18.5 -69q0 -66 -38 -105t-85 -38v53q22 0 39.5 14t17.5 36zM305 98q35 0 61 11l4 -101q-32 -13 -83 -13q-92 0 -143.5 49t-51.5 132v215h-73v99h80v141h115v-141h149v-98h-149v-213q0 -81 91 -81z
" />
    <glyph glyph-name="Tbar" unicode="&#x166;" horiz-adv-x="595" 
d="M578 581h-220v-190h131v-84h-131v-307h-122v307h-130v84h130v190h-219v105h561v-105z" />
    <glyph glyph-name="tbar" unicode="&#x167;" horiz-adv-x="390" 
d="M367 109l4 -101q-32 -13 -83 -13q-92 0 -143.5 49t-51.5 132v57h-62v74h62v84h-73v99h80v141h115v-141h149v-98h-149v-85h136v-74h-136v-54q0 -81 91 -81q35 0 61 11z" />
    <glyph glyph-name="Utilde" unicode="&#x168;" horiz-adv-x="710" 
d="M298 782q-18 0 -28 -11.5t-10 -29.5h-82q0 130 108 130q39 0 76 -21.5t52 -21.5q17 0 26.5 11t8.5 30h83q0 -63 -28 -96t-76 -33q-39 0 -77.5 21t-52.5 21zM513 686h122v-415q0 -129 -75 -203t-205 -74q-133 0 -207 73.5t-74 203.5v415h122v-415q0 -84 41 -127.5
t118 -43.5q76 0 117 43.5t41 127.5v415z" />
    <glyph glyph-name="utilde" unicode="&#x169;" 
d="M210 622q-38 0 -38 -42h-82q0 131 106 131q40 0 77.5 -22.5t55.5 -22.5q37 0 37 43h82q0 -65 -27.5 -98t-77.5 -33q-39 0 -77 22t-56 22zM375 490h122v-490h-117l-4 71q-49 -76 -146 -76q-81 0 -125.5 49t-44.5 129v317h122v-291q0 -46 24 -72.5t69 -26.5q43 0 71.5 31
t28.5 81v278z" />
    <glyph glyph-name="Umacron" unicode="&#x16a;" horiz-adv-x="710" 
d="M207 753v85h299v-85h-299zM513 686h122v-415q0 -129 -75 -203t-205 -74q-133 0 -207 73.5t-74 203.5v415h122v-415q0 -84 41 -127.5t118 -43.5q76 0 117 43.5t41 127.5v415z" />
    <glyph glyph-name="umacron" unicode="&#x16b;" 
d="M429 689v-86h-299v86h299zM375 490h122v-490h-117l-4 71q-49 -76 -146 -76q-81 0 -125.5 49t-44.5 129v317h122v-291q0 -46 24 -72.5t69 -26.5q43 0 71.5 31t28.5 81v278z" />
    <glyph glyph-name="Ubreve" unicode="&#x16c;" horiz-adv-x="710" 
d="M499 864q0 -57 -39 -96.5t-105 -39.5q-67 0 -105.5 39t-38.5 97h91q0 -26 14 -41t39 -15t38.5 15t13.5 41h92zM513 686h122v-415q0 -129 -75 -203t-205 -74q-133 0 -207 73.5t-74 203.5v415h122v-415q0 -84 41 -127.5t118 -43.5q76 0 117 43.5t41 127.5v415z" />
    <glyph glyph-name="ubreve" unicode="&#x16d;" 
d="M278 557q-71 0 -111 44.5t-40 123.5h92q0 -83 58 -83t58 83h93q0 -78 -40 -123t-110 -45zM375 490h122v-490h-117l-4 71q-49 -76 -146 -76q-81 0 -125.5 49t-44.5 129v317h122v-291q0 -46 24 -72.5t69 -26.5q43 0 71.5 31t28.5 81v278z" />
    <glyph glyph-name="Uring" unicode="&#x16e;" horiz-adv-x="710" 
d="M355 714q-42 0 -71.5 26.5t-29.5 69.5q0 44 29.5 70.5t71.5 26.5q43 0 72 -26.5t29 -70.5q0 -43 -29 -69.5t-72 -26.5zM355 775q16 0 26 10t10 25t-10 24.5t-26 9.5t-25.5 -9.5t-9.5 -24.5t9.5 -25t25.5 -10zM513 686h122v-415q0 -129 -75 -203t-205 -74
q-133 0 -207 73.5t-74 203.5v415h122v-415q0 -84 41 -127.5t118 -43.5q76 0 117 43.5t41 127.5v415z" />
    <glyph glyph-name="uring" unicode="&#x16f;" 
d="M278 547q-43 0 -72.5 26.5t-29.5 69.5q0 44 29.5 71t72.5 27q42 0 71.5 -27t29.5 -71q0 -43 -29.5 -69.5t-71.5 -26.5zM278 677q-16 0 -25.5 -9.5t-9.5 -24.5t9.5 -24.5t25.5 -9.5t26 10t10 24q0 15 -10 24.5t-26 9.5zM375 490h122v-490h-117l-4 71q-49 -76 -146 -76
q-81 0 -125.5 49t-44.5 129v317h122v-291q0 -46 24 -72.5t69 -26.5q43 0 71.5 31t28.5 81v278z" />
    <glyph glyph-name="Uhungarumlaut" unicode="&#x170;" horiz-adv-x="710" 
d="M285 730h-95l54 134h143zM463 730h-94l54 134h143zM513 686h122v-415q0 -129 -75 -203t-205 -74q-133 0 -207 73.5t-74 203.5v415h122v-415q0 -84 41 -127.5t118 -43.5q76 0 117 43.5t41 127.5v415z" />
    <glyph glyph-name="uhungarumlaut" unicode="&#x171;" 
d="M310 729l-98 -169h-99l45 169h152zM407 560h-99l45 169h151zM375 212v278h122v-490h-117l-4 71q-49 -76 -146 -76q-81 0 -125.5 49t-44.5 129v317h122v-291q0 -46 24 -72.5t69 -26.5q43 0 71.5 31t28.5 81z" />
    <glyph glyph-name="Uogonek" unicode="&#x172;" horiz-adv-x="710" 
d="M513 686h122v-415q0 -99 -45 -166.5t-126 -94.5q-10 -5 -24 -15t-31.5 -34t-17.5 -49q0 -42 42 -42q31 0 53 19l31 -56q-33 -35 -95 -35q-51 0 -80 27t-29 73q0 52 40 96q-132 1 -205.5 74.5t-73.5 202.5v415h122v-415q0 -84 41 -127.5t118 -43.5q76 0 117 43.5t41 127.5
v415z" />
    <glyph glyph-name="uogonek" unicode="&#x173;" 
d="M518 -122l31 -56q-33 -35 -95 -35q-51 0 -80 27t-29 73q0 63 58 113h-23l-4 71q-49 -76 -146 -76q-81 0 -125.5 49t-44.5 129v317h122v-291q0 -46 24 -72.5t69 -26.5q43 0 71.5 31t28.5 81v278h122v-490q-3 -2 -8 -5t-18 -12.5t-22.5 -20.5t-17.5 -27.5t-8 -33.5
q0 -42 42 -42q31 0 53 19z" />
    <glyph glyph-name="Wcircumflex" unicode="&#x174;" horiz-adv-x="955" 
d="M479 796l-67 -66h-91l91 134h134l90 -134h-91zM820 686h122l-193 -686h-136l-136 541l-135 -541h-137l-193 686h122l141 -566l138 566h129l138 -564z" />
    <glyph glyph-name="wcircumflex" unicode="&#x175;" horiz-adv-x="769" 
d="M384 650l-70 -90h-89l97 169h124l96 -169h-88zM626 490h129l-142 -490h-140l-78 285q-8 33 -9 47h-3q-2 -22 -8 -47l-78 -285h-140l-143 490h129l75 -313q2 -9 7 -30t6 -29h3q1 6 14 59l80 313h113l81 -313q11 -44 14 -59h3q3 21 13 59z" />
    <glyph glyph-name="Ycircumflex" unicode="&#x176;" horiz-adv-x="615" 
d="M308 796l-67 -66h-91l91 134h134l90 -134h-91zM610 686l-241 -417v-269h-123v269l-241 417h132l171 -307l171 307h131z" />
    <glyph glyph-name="ycircumflex" unicode="&#x177;" horiz-adv-x="516" 
d="M257 650l-70 -90h-89l97 169h124l96 -169h-88zM383 490h124l-181 -490l-14 -37q-35 -93 -78.5 -131t-118.5 -38q-49 0 -79 10l8 103q25 -10 47 -10q37 0 62 15t39 55l8 21l-189 502h133l104 -319q6 -18 14 -55h3q6 36 13 55z" />
    <glyph glyph-name="Ydieresis" unicode="&#x178;" horiz-adv-x="615" 
d="M211 739q-31 0 -49.5 18t-18.5 47t18.5 47.5t49.5 18.5t49 -18t18 -48q0 -29 -18.5 -47t-48.5 -18zM407 739q-30 0 -48.5 18t-18.5 47t18.5 47.5t48.5 18.5q31 0 49.5 -18.5t18.5 -47.5t-18.5 -47t-49.5 -18zM610 686l-241 -417v-269h-123v269l-241 417h132l171 -307
l171 307h131z" />
    <glyph glyph-name="Zacute" unicode="&#x179;" horiz-adv-x="605" 
d="M450 864l-98 -134h-113l45 134h166zM183 105h383v-105h-531v100l381 481h-371v105h520l-1 -100z" />
    <glyph glyph-name="zacute" unicode="&#x17a;" horiz-adv-x="475" 
d="M379 729l-95 -169h-97l47 169h145zM185 98h255v-98h-405v91l252 301h-244v98h390v-90z" />
    <glyph glyph-name="Zdotaccent" unicode="&#x17b;" horiz-adv-x="605" 
d="M293 729q-35 0 -57 21t-22 55t21.5 55t56.5 21q36 0 57.5 -21t21.5 -55t-21.5 -55t-56.5 -21zM183 105h383v-105h-531v100l381 481h-371v105h520l-1 -100z" />
    <glyph glyph-name="zdotaccent" unicode="&#x17c;" horiz-adv-x="475" 
d="M245 574q-35 0 -56.5 21t-21.5 55t21.5 55t56.5 21t56.5 -21t21.5 -55t-21.5 -55t-56.5 -21zM185 98h255v-98h-405v91l252 301h-244v98h390v-90z" />
    <glyph glyph-name="Zcaron" unicode="&#x17d;" horiz-adv-x="605" 
d="M362 730h-134l-91 134h91l67 -67l66 67h91zM183 105h383v-105h-531v100l381 481h-371v105h520l-1 -100z" />
    <glyph glyph-name="zcaron" unicode="&#x17e;" horiz-adv-x="475" 
d="M307 560h-124l-97 169h88l70 -90l70 90h88zM185 98h255v-98h-405v91l252 301h-244v98h390v-90z" />
    <glyph glyph-name="uni018F" unicode="&#x18f;" horiz-adv-x="715" 
d="M354 693q149 0 233 -93.5t84 -252.5q0 -160 -88.5 -256.5t-230.5 -96.5q-152 0 -232.5 93.5t-80.5 260.5v19h507q-5 109 -58 164t-134 55q-72 0 -117 -34.5t-60 -85.5h-123q18 98 96 162.5t204 64.5zM354 101q68 0 118.5 43.5t67.5 126.5h-376q13 -86 62 -128.5
t128 -41.5z" />
    <glyph glyph-name="uni019D" unicode="&#x19d;" horiz-adv-x="729" 
d="M527 686h120v-686h-117l-328 500v-520q0 -85 -49 -135.5t-132 -50.5q-48 0 -78 10l8 103q25 -10 47 -10q39 0 61.5 22t22.5 60v707h117l328 -502v502z" />
    <glyph glyph-name="Gcaron" unicode="&#x1e6;" horiz-adv-x="729" 
d="M437 730h-134l-91 134h91l67 -67l66 67h91zM377 359h297v-359h-89v108q-71 -114 -225 -114q-144 0 -230.5 95t-86.5 256q0 156 90.5 252t240.5 96q131 0 207.5 -67t87.5 -175h-122q-10 59 -52.5 97t-120.5 38q-94 0 -151 -65.5t-57 -176.5q0 -114 54.5 -179t145.5 -64
q86 -1 138 47t59 115h-186v96z" />
    <glyph glyph-name="gcaron" unicode="&#x1e7;" horiz-adv-x="594" 
d="M367 560h-124l-97 169h88l70 -90l70 90h88zM413 490h116v-493q0 -91 -65.5 -149.5t-180.5 -58.5q-102 0 -161 40t-67 120h116q12 -65 112 -65q60 0 92.5 31t32.5 78v80q-47 -77 -151 -77q-99 0 -159 69t-60 180q0 114 63 182t159 68q105 0 149 -73zM281 98q58 0 92.5 41
t34.5 93v26q0 51 -34 92.5t-93 41.5q-54 0 -87 -40.5t-33 -106.5t33.5 -106.5t86.5 -40.5z" />
    <glyph glyph-name="uni01EA" unicode="&#x1ea;" horiz-adv-x="762" 
d="M479 7q-73 -46 -73 -99q0 -42 42 -42q31 0 53 19l31 -56q-33 -35 -95 -35q-51 0 -80 27t-29 73q0 56 44 100q-144 3 -237 97t-93 250q0 159 96 255.5t243 96.5q148 0 243.5 -94.5t95.5 -253.5q0 -130 -66 -219.5t-175 -118.5zM166 343q0 -111 61.5 -177t153.5 -66
t153.5 66t61.5 177q0 112 -61.5 177.5t-153.5 65.5t-153.5 -65.5t-61.5 -177.5z" />
    <glyph glyph-name="uni01EB" unicode="&#x1eb;" horiz-adv-x="572" 
d="M375 9q-65 -44 -65 -94q0 -42 42 -42q31 0 53 19l31 -56q-33 -35 -95 -35q-51 0 -80 27t-29 73q0 53 39 94q-106 5 -170 72.5t-64 173.5q0 112 69 183t180 71q112 0 180.5 -68.5t68.5 -180.5q0 -86 -43 -149t-117 -88zM161 244q0 -66 34 -107t91 -41t91 40.5t34 107.5
t-34 108.5t-91 41.5t-91 -41.5t-34 -108.5z" />
    <glyph glyph-name="Aringacute" unicode="&#x1fa;" horiz-adv-x="653" 
d="M522 0l-53 156h-286l-53 -156h-123l243 672q-25 27 -25 65q0 44 29.5 70.5t71.5 26.5q45 0 74 -29l30 60h98l-101 -135q-3 -34 -25 -58l243 -672h-123zM326 771q-16 0 -25.5 -9.5t-9.5 -24.5t9.5 -25t25.5 -10t26 10t10 25t-10 24.5t-26 9.5zM218 256h216l-108 316z" />
    <glyph glyph-name="aringacute" unicode="&#x1fb;" horiz-adv-x="551" 
d="M272 547q-43 0 -72.5 26.5t-29.5 69.5q0 44 29.5 71t72.5 27q41 0 69 -25l36 84h99l-104 -168q-4 -38 -32.5 -61.5t-67.5 -23.5zM272 677q-16 0 -25.5 -9.5t-9.5 -24.5t9.5 -24.5t25.5 -9.5q24 0 33 21l2 5q1 2 1 8q0 15 -10 24.5t-26 9.5zM528 103l8 -99q-34 -9 -66 -9
q-85 0 -106 80q-43 -80 -164 -80q-80 0 -123 36t-43 97q0 81 69 117.5t180 36.5h76v25q0 44 -26 68.5t-76 24.5q-43 0 -69 -20t-30 -56h-112q6 81 64.5 126t153.5 45q103 0 158.5 -51.5t55.5 -143.5v-172q0 -30 25 -30q11 0 25 5zM232 86q56 0 91.5 29t35.5 64v32h-82
q-124 0 -124 -70q0 -55 79 -55z" />
    <glyph glyph-name="AEacute" unicode="&#x1fc;" horiz-adv-x="1002" 
d="M659 864l-98 -134h-113l45 134h166zM601 107h355v-107h-477v156h-262l-97 -156h-132l419 686h543v-108h-349v-174h313v-104h-313v-193zM279 256h200v322h-1z" />
    <glyph glyph-name="aeacute" unicode="&#x1fd;" horiz-adv-x="859" 
d="M572 729l-95 -169h-97l47 169h145zM821 242v-25h-347q7 -59 40.5 -92t84.5 -33q47 0 72.5 20t32.5 48h116q-14 -73 -69 -119t-153 -46q-125 0 -193 92q-73 -92 -206 -92q-79 0 -122.5 36.5t-43.5 96.5q0 154 277 154h47v25q0 43 -26 68t-75 25q-39 0 -64.5 -20t-30.5 -56
h-114q8 81 65 126t148 45q115 0 170 -64q66 64 165 64q106 0 166 -68.5t60 -184.5zM596 401q-45 0 -77.5 -28.5t-42.5 -80.5h229q-15 109 -109 109zM364 179q-4 19 -5 32h-52q-154 0 -154 -70q0 -53 78 -53q57 0 95 29t38 62z" />
    <glyph glyph-name="Oslashacute" unicode="&#x1fe;" horiz-adv-x="762" 
d="M513 853l-98 -134h-113l45 134h166zM608 614q112 -96 112 -269q0 -159 -95.5 -255t-243.5 -96q-77 0 -142 27l-42 -67h-108l71 114q-118 95 -118 273q0 159 96 255.5t243 96.5q82 0 150 -31l34 54h107zM166 343q0 -105 58 -173l248 397q-44 19 -91 19q-92 0 -153.5 -65.5
t-61.5 -177.5zM381 100q92 0 153.5 66t61.5 177q0 100 -52 167l-246 -394q42 -16 83 -16z" />
    <glyph glyph-name="oslashacute" unicode="&#x1ff;" horiz-adv-x="572" 
d="M421 729l-95 -169h-97l47 169h145zM447 444q88 -69 88 -198q0 -111 -68.5 -181t-180.5 -70q-56 0 -105 19l-27 -43h-77l47 76q-87 68 -87 194q0 112 69 183t180 71q56 0 105 -19l24 39h76zM161 244q0 -58 26 -96l147 237q-21 9 -48 9q-57 0 -91 -41.5t-34 -108.5zM286 96
q57 0 91 40.5t34 107.5q0 60 -27 99l-147 -238q23 -9 49 -9z" />
    <glyph glyph-name="Scommaaccent" unicode="&#x218;" horiz-adv-x="611" 
d="M175 502q0 -37 29.5 -59.5t73 -31t95 -22t95 -31.5t73 -62t29.5 -110q0 -87 -73.5 -139.5t-193.5 -52.5q-126 0 -196 54.5t-70 154.5l122 -1q0 -51 38.5 -78t111.5 -27q66 0 102.5 23t36.5 66q0 34 -22 55.5t-56.5 32.5t-77 19.5t-84.5 21t-76.5 32t-56.5 58.5t-22 94
q-1 87 69.5 140.5t185.5 53.5q117 0 184.5 -55t67.5 -151h-122q0 103 -132 103q-131 0 -131 -88zM315 -41q67 -2 67 -91q0 -74 -38.5 -119t-84.5 -43v52q22 0 39.5 19.5t17.5 49.5q-30 0 -49 18.5t-19 47.5q0 30 19 48t48 18z" />
    <glyph glyph-name="scommaaccent" unicode="&#x219;" horiz-adv-x="485" 
d="M447 137q1 -66 -55 -104t-153 -38q-202 0 -204 155l106 -1q5 -65 98 -65q90 0 90 50q0 27 -29 41.5t-70.5 22.5t-83.5 20.5t-71 46t-29 87.5q0 66 54 104.5t148 38.5q92 0 141 -40t51 -113h-107q-4 64 -86 64q-83 0 -83 -51q0 -22 21 -35.5t52.5 -19t68 -15.5t68 -23.5
t52.5 -45.5t21 -79zM254 -41q67 -2 67 -91q0 -74 -38.5 -119t-84.5 -43v52q22 0 39.5 19.5t17.5 49.5q-30 0 -49 18.5t-19 47.5q0 30 19 48t48 18z" />
    <glyph glyph-name="uni021A" unicode="&#x21a;" horiz-adv-x="583" 
d="M230 0v581h-219v105h561v-105h-220v-581h-122zM232 -242q22 0 39.5 19.5t17.5 49.5q-30 0 -49 18.5t-19 47.5q0 30 19 48t48 18q67 -2 67 -91q0 -74 -38.5 -119t-84.5 -43v52z" />
    <glyph glyph-name="uni021B" unicode="&#x21b;" horiz-adv-x="389" 
d="M370 8q-32 -13 -83 -13q-92 0 -143.5 49t-51.5 132v215h-73v99h80v141h115v-141h149v-98h-149v-213q0 -81 91 -81q35 0 61 11zM243 -41q67 -2 67 -91q0 -74 -38.5 -119t-84.5 -43v52q22 0 39.5 19.5t17.5 49.5q-30 0 -49 18.5t-19 47.5q0 30 19 48t48 18z" />
    <glyph glyph-name="uni0232" unicode="&#x232;" horiz-adv-x="615" 
d="M459 838v-85h-299v85h299zM610 686l-241 -417v-269h-123v269l-241 417h132l171 -307l171 307h131z" />
    <glyph glyph-name="uni0233" unicode="&#x233;" horiz-adv-x="516" 
d="M408 689v-86h-299v86h299zM383 490h124l-181 -490l-14 -37q-35 -93 -78.5 -131t-118.5 -38q-49 0 -79 10l8 103q25 -10 47 -10q37 0 62 15t39 55l8 21l-189 502h133l104 -319q6 -18 14 -55h3q6 36 13 55z" />
    <glyph glyph-name="uni0237" unicode="&#x237;" horiz-adv-x="260" 
d="M11 -206q-50 0 -78 10l7 103q27 -10 47 -10q41 0 63.5 23t22.5 65v505h122v-510q0 -85 -50.5 -135.5t-133.5 -50.5z" />
    <glyph glyph-name="uni0259" unicode="&#x259;" horiz-adv-x="546" 
d="M270 495q110 0 174 -69.5t64 -179.5q0 -111 -67.5 -181t-173.5 -70q-109 0 -169 66.5t-60 185.5v24h351q-6 61 -37.5 93.5t-83.5 32.5q-82 0 -112 -67h-115q13 70 72.5 117.5t156.5 47.5zM269 88q46 0 76.5 28t40.5 81h-233q14 -109 116 -109z" />
    <glyph glyph-name="uni0272" unicode="&#x272;" horiz-adv-x="573" 
d="M340 495q81 0 127 -50.5t46 -136.5v-308h-123v280q0 52 -24 81t-70 29q-49 0 -79 -31t-30 -81v-298q0 -84 -48.5 -135t-123.5 -51q-49 0 -79 10l8 103q25 -10 47 -10q33 0 53.5 23t20.5 65v505h117l4 -71q49 76 154 76z" />
    <glyph glyph-name="circumflex" unicode="&#x2c6;" horiz-adv-x="370" 
d="M26 560l97 169h124l96 -169h-88l-70 90l-70 -90h-89z" />
    <glyph glyph-name="caron" unicode="&#x2c7;" horiz-adv-x="351" 
d="M19 729h88l70 -90l70 90h88l-95 -169h-124z" />
    <glyph glyph-name="breve" unicode="&#x2d8;" horiz-adv-x="342" 
d="M322 725q0 -78 -40 -123t-110 -45q-71 0 -111 44.5t-40 123.5h92q0 -83 58 -83t58 83h93z" />
    <glyph glyph-name="dotaccent" unicode="&#x2d9;" horiz-adv-x="222" 
d="M110 726q35 0 56.5 -21t21.5 -55t-21.5 -55t-56.5 -21t-56.5 21t-21.5 55t21.5 55t56.5 21z" />
    <glyph glyph-name="ring" unicode="&#x2da;" horiz-adv-x="274" 
d="M135 547q-43 0 -72.5 26.5t-29.5 69.5q0 44 29.5 71t72.5 27q42 0 71.5 -27t29.5 -71q0 -43 -29.5 -69.5t-71.5 -26.5zM135 609q16 0 26 10t10 24q0 15 -10 24.5t-26 9.5t-25.5 -9.5t-9.5 -24.5t9.5 -24.5t25.5 -9.5z" />
    <glyph glyph-name="ogonek" unicode="&#x2db;" horiz-adv-x="274" 
d="M236 -177q-33 -35 -95 -35q-51 0 -80 27t-29 73t30 83.5t60 52.5l29 14l33 -37q-3 -2 -8 -5t-18 -12.5t-22.5 -20.5t-17.5 -27.5t-8 -33.5q0 -42 42 -42q31 0 53 19z" />
    <glyph glyph-name="tilde" unicode="&#x2dc;" horiz-adv-x="425" 
d="M152 622q-38 0 -38 -42h-82q0 131 106 131q40 0 77.5 -22.5t55.5 -22.5q37 0 37 43h82q0 -65 -27.5 -98t-77.5 -33q-39 0 -77 22t-56 22z" />
    <glyph glyph-name="hungarumlaut" unicode="&#x2dd;" horiz-adv-x="474" 
d="M138 560h-99l45 169h152zM333 560h-99l45 169h151z" />
    <glyph glyph-name="gravecomb" unicode="&#x300;" horiz-adv-x="0" 
d="M-138 560l-94 169h144l47 -169h-97z" />
    <glyph glyph-name="acutecomb" unicode="&#x301;" horiz-adv-x="0" 
d="M-143 560h-97l47 169h145z" />
    <glyph glyph-name="uni0302" unicode="&#x302;" horiz-adv-x="0" 
d="M-345 560l97 169h124l96 -169h-88l-70 90l-70 -90h-89z" />
    <glyph glyph-name="tildecomb" unicode="&#x303;" horiz-adv-x="0" 
d="M-273 622q-38 0 -38 -42h-82q0 131 106 131q40 0 77.5 -22.5t55.5 -22.5q37 0 37 43h82q0 -65 -27.5 -98t-77.5 -33q-39 0 -77 22t-56 22z" />
    <glyph glyph-name="uni0304" unicode="&#x304;" horiz-adv-x="0" 
d="M-350 603v86h299v-86h-299z" />
    <glyph glyph-name="uni0306" unicode="&#x306;" horiz-adv-x="0" 
d="M-21 725q0 -78 -40 -123t-110 -45q-71 0 -111 44.5t-40 123.5h92q0 -83 58 -83t58 83h93z" />
    <glyph glyph-name="uni0307" unicode="&#x307;" horiz-adv-x="0" 
d="M-110 726q35 0 56.5 -21t21.5 -55t-21.5 -55t-56.5 -21t-56.5 21t-21.5 55t21.5 55t56.5 21z" />
    <glyph glyph-name="uni0308" unicode="&#x308;" horiz-adv-x="0" 
d="M-294 712q31 0 49.5 -18.5t18.5 -47.5t-18.5 -47t-49.5 -18q-30 0 -48.5 18t-18.5 47t18.5 47.5t48.5 18.5zM-97 712q31 0 49 -18t18 -48q0 -29 -18.5 -47t-48.5 -18q-31 0 -49.5 18t-18.5 47t18.5 47.5t49.5 18.5z" />
    <glyph glyph-name="uni030A" unicode="&#x30a;" horiz-adv-x="0" 
d="M-135 547q-43 0 -72.5 26.5t-29.5 69.5q0 44 29.5 71t72.5 27q42 0 71.5 -27t29.5 -71q0 -43 -29.5 -69.5t-71.5 -26.5zM-135 609q16 0 26 10t10 24q0 15 -10 24.5t-26 9.5t-25.5 -9.5t-9.5 -24.5t9.5 -24.5t25.5 -9.5z" />
    <glyph glyph-name="uni030B" unicode="&#x30b;" horiz-adv-x="0" 
d="M-334 560h-99l45 169h152zM-139 560h-99l45 169h151z" />
    <glyph glyph-name="uni030C" unicode="&#x30c;" horiz-adv-x="0" 
d="M-335 729h88l70 -90l70 90h88l-95 -169h-124z" />
    <glyph glyph-name="dotbelowcomb" unicode="&#x323;" horiz-adv-x="0" 
d="M-110 -54q35 0 56.5 -21t21.5 -55t-21.5 -55t-56.5 -21t-56.5 21t-21.5 55t21.5 55t56.5 21z" />
    <glyph glyph-name="uni0326" unicode="&#x326;" horiz-adv-x="0" 
d="M-164 -242q22 0 39.5 19.5t17.5 49.5q-30 0 -49 18.5t-19 47.5q0 30 19 48t48 18q67 -2 67 -91q0 -74 -38.5 -119t-84.5 -43v52z" />
    <glyph glyph-name="uni0327" unicode="&#x327;" horiz-adv-x="0" 
d="M-206 -131q25 -10 53 -10q46 0 46 26q0 30 -81 30l23 103h63l-11 -53q35 -5 57 -25t22 -56q0 -43 -33 -69t-88 -26q-37 0 -67 13z" />
    <glyph glyph-name="uni0328" unicode="&#x328;" horiz-adv-x="0" 
d="M-38 -177q-33 -35 -95 -35q-51 0 -80 27t-29 73t30 83.5t60 52.5l29 14l33 -37q-3 -2 -8 -5t-18 -12.5t-22.5 -20.5t-17.5 -27.5t-8 -33.5q0 -42 42 -42q31 0 53 19z" />
    <glyph glyph-name="uni0335" unicode="&#x335;" horiz-adv-x="0" 
d="M-351 238h320v-74h-320v74z" />
    <glyph glyph-name="uni0336" unicode="&#x336;" horiz-adv-x="0" 
d="M-403 248h383v-84h-383v84z" />
    <glyph glyph-name="uni0337" unicode="&#x337;" horiz-adv-x="0" 
d="M-345 355l287 169l37 -65l-287 -170z" />
    <glyph glyph-name="uni0338" unicode="&#x338;" horiz-adv-x="0" 
d="M-165 523h76l-337 -544h-77z" />
    <glyph glyph-name="Wgrave" unicode="&#x1e80;" horiz-adv-x="955" 
d="M530 730h-113l-97 134h163zM820 686h122l-193 -686h-136l-136 541l-135 -541h-137l-193 686h122l141 -566l138 566h129l138 -564z" />
    <glyph glyph-name="wgrave" unicode="&#x1e81;" horiz-adv-x="769" 
d="M439 560h-97l-94 169h144zM626 490h129l-142 -490h-140l-78 285q-8 33 -9 47h-3q-2 -22 -8 -47l-78 -285h-140l-143 490h129l75 -313q2 -9 7 -30t6 -29h3q1 6 14 59l80 313h113l81 -313q11 -44 14 -59h3q3 21 13 59z" />
    <glyph glyph-name="Wacute" unicode="&#x1e82;" horiz-adv-x="955" 
d="M634 864l-98 -134h-113l45 134h166zM820 686h122l-193 -686h-136l-136 541l-135 -541h-137l-193 686h122l141 -566l138 566h129l138 -564z" />
    <glyph glyph-name="wacute" unicode="&#x1e83;" horiz-adv-x="769" 
d="M519 729l-95 -169h-97l47 169h145zM626 490h129l-142 -490h-140l-78 285q-8 33 -9 47h-3q-2 -22 -8 -47l-78 -285h-140l-143 490h129l75 -313q2 -9 7 -30t6 -29h3q1 6 14 59l80 313h113l81 -313q11 -44 14 -59h3q3 21 13 59z" />
    <glyph glyph-name="Wdieresis" unicode="&#x1e84;" horiz-adv-x="955" 
d="M381 739q-31 0 -49.5 18t-18.5 47t18.5 47.5t49.5 18.5t49 -18t18 -48q0 -29 -18.5 -47t-48.5 -18zM577 739q-30 0 -48.5 18t-18.5 47t18.5 47.5t48.5 18.5q31 0 49.5 -18.5t18.5 -47.5t-18.5 -47t-49.5 -18zM820 686h122l-193 -686h-136l-136 541l-135 -541h-137
l-193 686h122l141 -566l138 566h129l138 -564z" />
    <glyph glyph-name="wdieresis" unicode="&#x1e85;" horiz-adv-x="769" 
d="M290 581q-30 0 -48.5 18t-18.5 47t18.5 47.5t48.5 18.5q31 0 49.5 -18.5t18.5 -47.5t-18.5 -47t-49.5 -18zM487 581q-31 0 -49.5 18t-18.5 47t18.5 47.5t49.5 18.5t49 -18t18 -48q0 -29 -18.5 -47t-48.5 -18zM626 490h129l-142 -490h-140l-78 285q-8 33 -9 47h-3
q-2 -22 -8 -47l-78 -285h-140l-143 490h129l75 -313q2 -9 7 -30t6 -29h3q1 6 14 59l80 313h113l81 -313q11 -44 14 -59h3q3 21 13 59z" />
    <glyph glyph-name="uni1E9E" unicode="&#x1e9e;" horiz-adv-x="673" 
d="M468 388q77 -17 120 -66t43 -121q0 -91 -64 -146t-177 -55h-66v98h66q55 0 86 27t31 76t-31 78.5t-86 29.5h-45v87l108 188h-167q-42 0 -64.5 -22.5t-22.5 -62.5v-499h-122v501q0 80 51.5 132.5t139.5 52.5h330v-78z" />
    <glyph glyph-name="uni1EA0" unicode="&#x1ea0;" horiz-adv-x="653" 
d="M645 0h-123l-53 156h-286l-53 -156h-123l248 686h142zM218 256h216l-108 316zM328 -54q35 0 56.5 -21t21.5 -55t-21.5 -55t-56.5 -21t-56.5 21t-21.5 55t21.5 55t56.5 21z" />
    <glyph glyph-name="uni1EA1" unicode="&#x1ea1;" horiz-adv-x="551" 
d="M528 103l8 -99q-34 -9 -66 -9q-85 0 -106 80q-43 -80 -164 -80q-80 0 -123 36t-43 97q0 81 69 117.5t180 36.5h76v25q0 44 -26 68.5t-76 24.5q-43 0 -69 -20t-30 -56h-112q6 81 64.5 126t153.5 45q103 0 158.5 -51.5t55.5 -143.5v-172q0 -30 25 -30q11 0 25 5zM232 86
q56 0 91.5 29t35.5 64v32h-82q-124 0 -124 -70q0 -55 79 -55zM266 -54q35 0 56.5 -21t21.5 -55t-21.5 -55t-56.5 -21t-56.5 21t-21.5 55t21.5 55t56.5 21z" />
    <glyph glyph-name="uni1EB8" unicode="&#x1eb8;" horiz-adv-x="605" 
d="M204 104h355v-104h-477v686h471v-104h-349v-179h313v-102h-313v-197zM328 -54q35 0 56.5 -21t21.5 -55t-21.5 -55t-56.5 -21t-56.5 21t-21.5 55t21.5 55t56.5 21z" />
    <glyph glyph-name="uni1EB9" unicode="&#x1eb9;" horiz-adv-x="546" 
d="M508 242v-25h-351q7 -60 40 -92.5t86 -32.5q90 0 108 68h115q-14 -71 -71 -118t-157 -47q-111 0 -176 69t-65 180t68.5 181t173.5 70q108 0 168.5 -68.5t60.5 -184.5zM280 401q-47 0 -79 -28t-42 -81h233q-15 109 -112 109zM282 -54q35 0 56.5 -21t21.5 -55t-21.5 -55
t-56.5 -21t-56.5 21t-21.5 55t21.5 55t56.5 21z" />
    <glyph glyph-name="uni1EBC" unicode="&#x1ebc;" horiz-adv-x="605" 
d="M261 782q-18 0 -28 -11.5t-10 -29.5h-82q0 130 108 130q39 0 76 -21.5t52 -21.5q17 0 26.5 11t8.5 30h83q0 -63 -28 -96t-76 -33q-39 0 -77.5 21t-52.5 21zM204 104h355v-104h-477v686h471v-104h-349v-179h313v-102h-313v-197z" />
    <glyph glyph-name="uni1EBD" unicode="&#x1ebd;" horiz-adv-x="546" 
d="M210 622q-38 0 -38 -42h-82q0 131 106 131q40 0 77.5 -22.5t55.5 -22.5q37 0 37 43h82q0 -65 -27.5 -98t-77.5 -33q-39 0 -77 22t-56 22zM508 242v-25h-351q7 -60 40 -92.5t86 -32.5q90 0 108 68h115q-14 -71 -71 -118t-157 -47q-111 0 -176 69t-65 180t68.5 181
t173.5 70q108 0 168.5 -68.5t60.5 -184.5zM280 401q-47 0 -79 -28t-42 -81h233q-15 109 -112 109z" />
    <glyph glyph-name="uni1ECA" unicode="&#x1eca;" horiz-adv-x="286" 
d="M82 0v686h122v-686h-122zM143 -54q35 0 56.5 -21t21.5 -55t-21.5 -55t-56.5 -21t-56.5 21t-21.5 55t21.5 55t56.5 21z" />
    <glyph glyph-name="uni1ECB" unicode="&#x1ecb;" horiz-adv-x="252" 
d="M127 726q35 0 56.5 -21t21.5 -55t-21.5 -55t-56.5 -21t-56.5 21t-21.5 55t21.5 55t56.5 21zM65 0v490h122v-490h-122zM126 -54q35 0 56.5 -21t21.5 -55t-21.5 -55t-56.5 -21t-56.5 21t-21.5 55t21.5 55t56.5 21z" />
    <glyph glyph-name="uni1ECC" unicode="&#x1ecc;" horiz-adv-x="762" 
d="M381 -6q-148 0 -243.5 94t-95.5 253t96 255.5t243 96.5q148 0 243.5 -94.5t95.5 -253.5t-95.5 -255t-243.5 -96zM381 100q92 0 153.5 66t61.5 177q0 112 -61.5 177.5t-153.5 65.5t-153.5 -65.5t-61.5 -177.5q0 -111 61.5 -177t153.5 -66zM381 -54q35 0 56.5 -21t21.5 -55
t-21.5 -55t-56.5 -21t-56.5 21t-21.5 55t21.5 55t56.5 21z" />
    <glyph glyph-name="uni1ECD" unicode="&#x1ecd;" horiz-adv-x="572" 
d="M286 495q112 0 180.5 -68.5t68.5 -180.5q0 -111 -68.5 -181t-180.5 -70t-180.5 68t-68.5 178q0 112 69 183t180 71zM286 394q-57 0 -91 -41.5t-34 -108.5q0 -66 34 -107t91 -41t91 40.5t34 107.5t-34 108.5t-91 41.5zM286 -54q35 0 56.5 -21t21.5 -55t-21.5 -55
t-56.5 -21t-56.5 21t-21.5 55t21.5 55t56.5 21z" />
    <glyph glyph-name="uni1EE4" unicode="&#x1ee4;" horiz-adv-x="710" 
d="M513 686h122v-415q0 -129 -75 -203t-205 -74q-133 0 -207 73.5t-74 203.5v415h122v-415q0 -84 41 -127.5t118 -43.5q76 0 117 43.5t41 127.5v415zM355 -54q35 0 56.5 -21t21.5 -55t-21.5 -55t-56.5 -21t-56.5 21t-21.5 55t21.5 55t56.5 21z" />
    <glyph glyph-name="uni1EE5" unicode="&#x1ee5;" 
d="M375 490h122v-490h-117l-4 71q-49 -76 -146 -76q-81 0 -125.5 49t-44.5 129v317h122v-291q0 -46 24 -72.5t69 -26.5q43 0 71.5 31t28.5 81v278zM286 -54q35 0 56.5 -21t21.5 -55t-21.5 -55t-56.5 -21t-56.5 21t-21.5 55t21.5 55t56.5 21z" />
    <glyph glyph-name="Ygrave" unicode="&#x1ef2;" horiz-adv-x="615" 
d="M360 730h-113l-97 134h163zM610 686l-241 -417v-269h-123v269l-241 417h132l171 -307l171 307h131z" />
    <glyph glyph-name="ygrave" unicode="&#x1ef3;" horiz-adv-x="516" 
d="M312 560h-97l-94 169h144zM383 490h124l-181 -490l-14 -37q-35 -93 -78.5 -131t-118.5 -38q-49 0 -79 10l8 103q25 -10 47 -10q37 0 62 15t39 55l8 21l-189 502h133l104 -319q6 -18 14 -55h3q6 36 13 55z" />
    <glyph glyph-name="uni1EF8" unicode="&#x1ef8;" horiz-adv-x="615" 
d="M251 782q-18 0 -28 -11.5t-10 -29.5h-82q0 130 108 130q39 0 76 -21.5t52 -21.5q17 0 26.5 11t8.5 30h83q0 -63 -28 -96t-76 -33q-39 0 -77.5 21t-52.5 21zM610 686l-241 -417v-269h-123v269l-241 417h132l171 -307l171 307h131z" />
    <glyph glyph-name="uni1EF9" unicode="&#x1ef9;" horiz-adv-x="516" 
d="M189 622q-38 0 -38 -42h-82q0 131 106 131q40 0 77.5 -22.5t55.5 -22.5q37 0 37 43h82q0 -65 -27.5 -98t-77.5 -33q-39 0 -77 22t-56 22zM383 490h124l-181 -490l-14 -37q-35 -93 -78.5 -131t-118.5 -38q-49 0 -79 10l8 103q25 -10 47 -10q37 0 62 15t39 55l8 21
l-189 502h133l104 -319q6 -18 14 -55h3q6 36 13 55z" />
    <glyph glyph-name="endash" unicode="&#x2013;" horiz-adv-x="551" 
d="M58 240v93h435v-93h-435z" />
    <glyph glyph-name="emdash" unicode="&#x2014;" horiz-adv-x="814" 
d="M58 240v93h698v-93h-698z" />
    <glyph glyph-name="quoteleft" unicode="&#x2018;" horiz-adv-x="239" 
d="M189 689q-28 0 -52.5 -24.5t-24.5 -54.5q1 0 5 0.5t8 0.5q34 0 54 -21.5t20 -54.5q0 -35 -22 -56t-57 -21q-36 0 -59.5 25t-23.5 79q0 77 45.5 134t106.5 55v-62z" />
    <glyph glyph-name="quoteright" unicode="&#x2019;" horiz-adv-x="240" 
d="M55 521q28 0 52.5 24.5t24.5 54.5q-1 0 -5 -0.5t-8 -0.5q-34 0 -54 21.5t-20 54.5q0 35 22 56t57 21q36 0 59.5 -25t23.5 -79q0 -77 -45.5 -134t-106.5 -55v62z" />
    <glyph glyph-name="quotesinglbase" unicode="&#x201a;" horiz-adv-x="250" 
d="M52 -75q28 0 52.5 24.5t24.5 54.5q-1 0 -5 -0.5t-8 -0.5q-34 0 -54 21.5t-20 54.5q0 35 22 56t57 21q36 0 59.5 -25t23.5 -79q0 -77 -45.5 -134t-106.5 -55v62z" />
    <glyph glyph-name="quotedblleft" unicode="&#x201c;" horiz-adv-x="439" 
d="M189 689q-28 0 -52.5 -24.5t-24.5 -54.5q1 0 5 0.5t8 0.5q34 0 54 -21.5t20 -54.5q0 -35 -22 -56t-57 -21q-36 0 -59.5 25t-23.5 79q0 77 45.5 134t106.5 55v-62zM389 689q-28 0 -52.5 -24.5t-24.5 -54.5q1 0 5 0.5t8 0.5q34 0 54 -21.5t20 -54.5q0 -35 -22 -56t-57 -21
q-36 0 -59.5 25t-23.5 79q0 77 45.5 134t106.5 55v-62z" />
    <glyph glyph-name="quotedblright" unicode="&#x201d;" horiz-adv-x="441" 
d="M55 521q28 0 52.5 24.5t24.5 54.5q-1 0 -5 -0.5t-8 -0.5q-34 0 -54 21.5t-20 54.5q0 35 22 56t57 21q36 0 59.5 -25t23.5 -79q0 -77 -45.5 -134t-106.5 -55v62zM255 521q28 0 52.5 24.5t24.5 54.5q-1 0 -5 -0.5t-8 -0.5q-34 0 -54 21.5t-20 54.5q0 35 22 56t57 21
q36 0 59.5 -25t23.5 -79q0 -77 -45.5 -134t-106.5 -55v62z" />
    <glyph glyph-name="quotedblbase" unicode="&#x201e;" horiz-adv-x="449" 
d="M53 -91q28 0 52.5 24.5t24.5 54.5q-1 0 -5 -0.5t-8 -0.5q-34 0 -54 21.5t-20 54.5q0 35 22 56t57 21q36 0 59.5 -25t23.5 -79q0 -77 -45.5 -134t-106.5 -55v62zM253 -91q28 0 52.5 24.5t24.5 54.5q-1 0 -5 -0.5t-8 -0.5q-34 0 -54 21.5t-20 54.5q0 35 22 56t57 21
q36 0 59.5 -25t23.5 -79q0 -77 -45.5 -134t-106.5 -55v62z" />
    <glyph glyph-name="dagger" unicode="&#x2020;" horiz-adv-x="419" 
d="M368 592v-92h-108v-316h-101v316h-108v92h108v118h101v-118h108z" />
    <glyph glyph-name="daggerdbl" unicode="&#x2021;" horiz-adv-x="419" 
d="M368 500h-108v-106h108v-93h-108v-117h-101v117h-108v93h108v106h-108v92h108v118h101v-118h108v-92z" />
    <glyph glyph-name="bullet" unicode="&#x2022;" horiz-adv-x="373" 
d="M186 466q54 0 86.5 -32.5t32.5 -83.5t-32.5 -83t-86.5 -32q-53 0 -86 32t-33 83t33 83.5t86 32.5z" />
    <glyph glyph-name="ellipsis" unicode="&#x2026;" horiz-adv-x="646" 
d="M119 146q36 0 57.5 -21t21.5 -55t-21.5 -55t-57.5 -21q-35 0 -56.5 21t-21.5 55t21.5 55t56.5 21zM322 146q36 0 57.5 -21t21.5 -55t-21.5 -55t-57.5 -21q-35 0 -56.5 21t-21.5 55t21.5 55t56.5 21zM525 146q36 0 57.5 -21t21.5 -55t-21.5 -55t-57.5 -21q-35 0 -56.5 21
t-21.5 55t21.5 55t56.5 21z" />
    <glyph glyph-name="perthousand" unicode="&#x2030;" horiz-adv-x="1121" 
d="M544 693h98l-299 -693h-99zM370 497q0 -93 -45 -143.5t-126 -50.5t-126 50.5t-45 143.5q0 92 45 143t126 51t126 -51t45 -143zM199 394q66 0 66 103t-66 103t-66 -103t66 -103zM923 383q80 0 125 -51t45 -143q0 -93 -45 -143.5t-126 -50.5q-73 0 -118 43
q-45 -43 -119 -43q-80 0 -125 51t-45 143t45 143t125 51q75 0 119 -44q44 44 119 44zM685 86q67 0 67 103t-67 103q-66 0 -66 -103t66 -103zM923 86q66 0 66 103t-66 103q-67 0 -67 -103t67 -103z" />
    <glyph glyph-name="guilsinglleft" unicode="&#x2039;" horiz-adv-x="320" 
d="M28 236v11l125 156h119l-128 -162l129 -162h-120z" />
    <glyph glyph-name="guilsinglright" unicode="&#x203a;" horiz-adv-x="320" 
d="M291 236l-124 -157h-120l128 162l-127 162h119l124 -156v-11z" />
    <glyph glyph-name="fraction" unicode="&#x2044;" horiz-adv-x="188" 
d="M-108 0l300 693h98l-299 -693h-99z" />
    <glyph glyph-name="Euro" unicode="&#x20ac;" horiz-adv-x="720" 
d="M417 101q102 0 139 100h125q-24 -95 -91.5 -151t-175.5 -56q-107 0 -181.5 61t-101.5 170h-101l15 85h74q-1 10 -1 32q0 20 1 30h-89l15 85h86q26 111 101 173t182 63q106 0 175 -57t92 -152h-126q-37 102 -138 102q-56 0 -98 -33.5t-62 -95.5h186l-15 -85h-186
q-1 -9 -1 -29q0 -5 0.5 -16t0.5 -17h201l-15 -85h-169q20 -60 61.5 -92.5t96.5 -31.5z" />
    <glyph glyph-name="trademark" unicode="&#x2122;" horiz-adv-x="715" 
d="M29 615v71h257v-71h-88v-217h-80v217h-89zM561 686h88v-288h-75l1 158l-64 -158h-57l-62 158l2 -158h-76v288h90l76 -184z" />
    <glyph glyph-name="oneeighth" unicode="&#x215b;" horiz-adv-x="819" 
d="M495 693h103l-301 -693h-104zM276 382v-81h-236v81h73v185h-73v68q48 0 71 12t37 43h63v-308h65zM737 208q53 -33 53 -90t-42 -89.5t-112 -32.5t-111.5 32t-41.5 90q0 57 53 90q-40 31 -40 78q0 54 40 84t100 30t100.5 -30t40.5 -84q0 -47 -40 -78zM636 325
q-21 0 -35 -12.5t-14 -30.5t14.5 -30t35.5 -12q22 0 35.5 12t13.5 30t-14 30.5t-36 12.5zM636 71q26 0 42.5 13t16.5 35t-16 35.5t-42 13.5t-42.5 -13.5t-16.5 -35.5t16.5 -35t41.5 -13z" />
    <glyph glyph-name="threeeighths" unicode="&#x215c;" horiz-adv-x="865" 
d="M541 693h103l-301 -693h-104zM338 416q1 -55 -42 -89t-114 -34q-68 0 -111 36t-43 95h100q0 -45 56 -45q51 0 51 39q0 41 -52 41h-36v70h30q51 0 51 38q0 18 -12 28.5t-33 10.5q-48 0 -48 -51h-100q0 63 40 100t106 37q64 0 106 -33.5t42 -87.5q0 -46 -34 -74
q43 -28 43 -81zM782 208q53 -33 53 -90q0 -58 -41.5 -90t-111.5 -32t-112 32t-42 90q0 57 53 90q-40 31 -40 78q0 54 40.5 84t100.5 30t100 -30t40 -84q0 -47 -40 -78zM682 325q-22 0 -36 -12.5t-14 -30.5t14.5 -30t35.5 -12q22 0 36 12t13 30q1 18 -13 30.5t-36 12.5z
M682 71q26 0 42.5 13t16.5 35t-16.5 35.5t-42.5 13.5t-42.5 -13.5t-16.5 -35.5q1 -22 17 -35t42 -13z" />
    <glyph glyph-name="fiveeighths" unicode="&#x215d;" horiz-adv-x="866" 
d="M544 693h98l-300 -693h-99zM339 425q0 -60 -45.5 -96.5t-113.5 -36.5q-67 0 -109.5 33.5t-42.5 88.5h96q0 -40 55 -40q28 0 45.5 14t17.5 37q0 24 -16.5 38t-45.5 14q-32 0 -57 -20l-82 29l23 200h250v-79h-174l-6 -57q26 8 56 8q65 0 107 -35.5t42 -97.5zM783 208
q53 -33 53 -90q0 -58 -41.5 -90t-111.5 -32t-112 32t-42 90q0 57 53 90q-40 31 -40 78q0 54 40.5 84t100.5 30t100 -30t40 -84q0 -47 -40 -78zM683 325q-22 0 -36 -12.5t-14 -30.5t14.5 -30t35.5 -12q22 0 36 12t13 30q1 18 -13 30.5t-36 12.5zM683 71q26 0 42.5 13t15.5 35
q1 22 -15.5 35.5t-42.5 13.5t-42.5 -13.5t-16.5 -35.5t16.5 -35t42.5 -13z" />
    <glyph glyph-name="seveneighths" unicode="&#x215e;" horiz-adv-x="815" 
d="M476 693h98l-299 -693h-100zM75 301l142 304v1l-191 1v79h296v-76l-141 -309h-106zM728 208q53 -33 53 -90q0 -58 -41.5 -90t-111.5 -32t-111.5 32t-41.5 90q0 57 53 90q-40 31 -40 78q0 54 40 84t100 30t100 -30t40 -84q0 -47 -40 -78zM628 325q-21 0 -35.5 -12.5
t-14.5 -30.5t14.5 -30t35.5 -12q22 0 36 12t14 30t-14 30.5t-36 12.5zM628 71q26 0 42.5 13t16.5 35t-16.5 35.5t-42.5 13.5t-42.5 -13.5t-16.5 -35.5q1 -22 17 -35t42 -13z" />
    <glyph glyph-name="minus" unicode="&#x2212;" horiz-adv-x="534" 
d="M62 296v101h410v-101h-410z" />
    <glyph glyph-name="approxequal" unicode="&#x2248;" horiz-adv-x="537" 
d="M65 378v96q45 32 115 32q34 0 95.5 -16t90.5 -16q65 0 109 34v-96q-49 -33 -110 -32q-35 0 -98 16t-90 16q-30 0 -62.5 -10t-49.5 -24zM65 182v97q45 32 115 32q34 0 95.5 -16t90.5 -16q65 0 109 34v-97q-46 -32 -110 -32q-34 1 -97 16.5t-91 15.5q-30 0 -62.5 -10
t-49.5 -24z" />
    <glyph glyph-name="notequal" unicode="&#x2260;" horiz-adv-x="534" 
d="M472 400h-135l-49 -107h184v-100h-229l-46 -101h-88l46 101h-93v100h138l49 107h-187v101h232l44 96h88l-44 -96h90v-101z" />
    <glyph glyph-name="uniF8FF" unicode="&#xf8ff;" horiz-adv-x="1437" 
d="M684 606q0 27 18 46t43 19q26 0 44 -18.5t18 -46.5q0 -26 -18 -44.5t-44 -18.5q-25 0 -43 18.5t-18 44.5zM217 281h-118q0 141 9 326h99q10 -205 10 -326zM688 281q0 95 3 153h-61l3 -68q4 -4 15 -4q13 0 18 5v-77q-14 -15 -67 -15q-82 0 -82 68q0 13 2 51t2 40h-22v82
l119 31l1 -18h176q10 -66 10 -248h-117zM325 276q-91 0 -91 118q0 141 133 141q122 0 122 -122v-132h-82l-8 63q-13 -68 -74 -68zM1080 281h-113q0 27 1 58.5t1 38.5q0 30 -15 30q-18 0 -18 -30q0 -7 1.5 -38.5t1.5 -58.5h-113q0 182 10 248h80q5 -57 5 -79q2 15 6.5 31
t24 35t49.5 19q42 0 58 -26.5t18 -84.5zM1338 407q0 -131 -122 -131q-120 0 -120 129q0 130 122 130q120 0 120 -128zM386 390q0 27 -23 27q-22 0 -22 -27q0 -31 22 -31q23 0 23 31zM1239 390q0 27 -23 27q-20 0 -20 -27q0 -31 20 -31q23 0 23 31zM424 248h103
q10 -55 10 -144q0 -84 -33.5 -120t-117.5 -36q-63 0 -87 18v86q25 -17 70 -17q20 0 33 6.5t16.5 12t3.5 10.5q-16 -11 -49 -11q-89 0 -89 86v14h-54l3 -68q6 -4 15 -4q13 0 18 5v-76q-19 -15 -68 -15q-44 0 -62 17.5t-18 56.5t3 84h-18v83l116 30l-1 -18h175v-124
q0 -17 3 -22.5t12 -5.5q16 0 16 28v124zM726 253q37 0 58.5 -30.5t21.5 -87.5q0 -140 -137 -140q1 -16 1 -41h-117q0 144 10 294h77q7 -45 7 -80q17 85 79 85zM1060 132q0 -22 -3 -36h-123q11 -19 50 -19q33 0 54 12v-78q-23 -16 -77 -16q-140 0 -140 127q0 61 32.5 96
t91.5 35q54 0 84.5 -31.5t30.5 -89.5zM969 113q3 28 -17 28q-23 0 -23 -28h40zM664 75q5 0 12.5 2.5t16 12t8.5 23.5q0 24 -21 24t-21 -32q0 -15 5 -30zM1064 14q0 -24 24 -24t24 24q0 23 -24 23t-24 -23zM1070 14q0 18 18 18t18 -18q0 -19 -18 -19t-18 19zM1098 2l-6 9
q7 0 7 8q0 7 -10 7h-11v-24h5v9h5l4 -9h6zM1090 16h-7v6h7q4 0 4 -3t-4 -3z" />
    <glyph glyph-name="J.ss01" horiz-adv-x="457" 
d="M30 111q62 -5 109 -5q57 0 88.5 30.5t31.5 91.5v458h122v-457q0 -107 -62 -168t-178 -61q-57 0 -111 6v105z" />
    <glyph glyph-name="Jcircumflex.ss01" horiz-adv-x="457" 
d="M385 858l90 -134h-91l-66 66l-67 -66h-91l91 134h134zM30 111q62 -5 109 -5q57 0 88.5 30.5t31.5 91.5v458h122v-457q0 -107 -62 -168t-178 -61q-57 0 -111 6v105z" />
    <glyph glyph-name="K.ss01" horiz-adv-x="660" 
d="M660 102l8 -98q-32 -9 -67 -9q-59 0 -94.5 25t-73.5 85l-124 197l-105 -120v-182h-122v686h122v-357l299 357h147l-256 -293l159 -251q27 -45 67 -45q23 0 40 5z" />
    <glyph glyph-name="Kcommaaccent.ss01" horiz-adv-x="660" 
d="M660 102l8 -98q-32 -9 -67 -9q-59 0 -94.5 25t-73.5 85l-124 197l-105 -120v-182h-122v686h122v-357l299 357h147l-256 -293l159 -251q27 -45 67 -45q23 0 40 5zM353 -41q67 -2 67 -91q0 -74 -38.5 -119t-84.5 -43v52q22 0 39.5 19.5t17.5 49.5q-30 0 -49 18.5t-19 47.5
q0 30 19 48t48 18z" />
    <glyph glyph-name="R.ss01" horiz-adv-x="639" 
d="M466 0l-130 259h-132v-259h-122v686h266q111 0 176 -55.5t65 -157.5q0 -70 -33.5 -119.5t-92.5 -73.5l141 -280h-138zM204 584v-228h144q56 0 86.5 31t30.5 83t-30.5 83t-86.5 31h-144z" />
    <glyph glyph-name="Racute.ss01" horiz-adv-x="639" 
d="M463 864l-98 -134h-113l45 134h166zM466 0l-130 259h-132v-259h-122v686h266q111 0 176 -55.5t65 -157.5q0 -70 -33.5 -119.5t-92.5 -73.5l141 -280h-138zM204 584v-228h144q56 0 86.5 31t30.5 83t-30.5 83t-86.5 31h-144z" />
    <glyph glyph-name="Rcaron.ss01" horiz-adv-x="639" 
d="M375 730h-134l-91 134h91l67 -67l66 67h91zM466 0l-130 259h-132v-259h-122v686h266q111 0 176 -55.5t65 -157.5q0 -70 -33.5 -119.5t-92.5 -73.5l141 -280h-138zM204 584v-228h144q56 0 86.5 31t30.5 83t-30.5 83t-86.5 31h-144z" />
    <glyph glyph-name="Rcommaaccent.ss01" horiz-adv-x="639" 
d="M463 280l141 -280h-138l-130 259h-132v-259h-122v686h266q111 0 176 -55.5t65 -157.5q0 -70 -33.5 -119.5t-92.5 -73.5zM204 584v-228h144q56 0 86.5 31t30.5 83t-30.5 83t-86.5 31h-144zM331 -41q67 -2 67 -91q0 -74 -38.5 -119t-84.5 -43v52q22 0 39.5 19.5t17.5 49.5
q-30 0 -49 18.5t-19 47.5q0 30 19 48t48 18z" />
    <glyph glyph-name="i.loclTRK" horiz-adv-x="252" 
d="M127 726q35 0 56.5 -21t21.5 -55t-21.5 -55t-56.5 -21t-56.5 21t-21.5 55t21.5 55t56.5 21zM65 0v490h122v-490h-122z" />
    <glyph glyph-name="a.ss01" horiz-adv-x="538" 
d="M262 495q106 0 161 -53t55 -148v-294h-115l-3 68q-48 -73 -162 -73q-79 0 -121.5 36t-42.5 98q0 81 68.5 117t179.5 36h77v21q0 46 -26 71.5t-75 25.5q-91 0 -100 -76h-112q6 80 64 125.5t152 45.5zM231 85q57 0 92.5 30t35.5 64v32h-80q-126 0 -126 -70q0 -56 78 -56z
" />
    <glyph glyph-name="aacute.ss01" horiz-adv-x="538" 
d="M397 729l-95 -169h-97l47 169h145zM262 495q106 0 161 -53t55 -148v-294h-115l-3 68q-48 -73 -162 -73q-79 0 -121.5 36t-42.5 98q0 81 68.5 117t179.5 36h77v21q0 46 -26 71.5t-75 25.5q-91 0 -100 -76h-112q6 80 64 125.5t152 45.5zM231 85q57 0 92.5 30t35.5 64v32
h-80q-126 0 -126 -70q0 -56 78 -56z" />
    <glyph glyph-name="abreve.ss01" horiz-adv-x="538" 
d="M262 557q-71 0 -111 44.5t-40 123.5h92q0 -83 58 -83t58 83h93q0 -78 -40 -123t-110 -45zM262 495q106 0 161 -53t55 -148v-294h-115l-3 68q-48 -73 -162 -73q-79 0 -121.5 36t-42.5 98q0 81 68.5 117t179.5 36h77v21q0 46 -26 71.5t-75 25.5q-91 0 -100 -76h-112
q6 80 64 125.5t152 45.5zM231 85q57 0 92.5 30t35.5 64v32h-80q-126 0 -126 -70q0 -56 78 -56z" />
    <glyph glyph-name="acircumflex.ss01" horiz-adv-x="538" 
d="M262 650l-70 -90h-89l97 169h124l96 -169h-88zM262 495q106 0 161 -53t55 -148v-294h-115l-3 68q-48 -73 -162 -73q-79 0 -121.5 36t-42.5 98q0 81 68.5 117t179.5 36h77v21q0 46 -26 71.5t-75 25.5q-91 0 -100 -76h-112q6 80 64 125.5t152 45.5zM231 85q57 0 92.5 30
t35.5 64v32h-80q-126 0 -126 -70q0 -56 78 -56z" />
    <glyph glyph-name="adieresis.ss01" horiz-adv-x="538" 
d="M168 581q-30 0 -48.5 18t-18.5 47t18.5 47.5t48.5 18.5q31 0 49.5 -18.5t18.5 -47.5t-18.5 -47t-49.5 -18zM365 581q-31 0 -49.5 18t-18.5 47t18.5 47.5t49.5 18.5t49 -18t18 -48q0 -29 -18.5 -47t-48.5 -18zM262 495q106 0 161 -53t55 -148v-294h-115l-3 68
q-48 -73 -162 -73q-79 0 -121.5 36t-42.5 98q0 81 68.5 117t179.5 36h77v21q0 46 -26 71.5t-75 25.5q-91 0 -100 -76h-112q6 80 64 125.5t152 45.5zM231 85q57 0 92.5 30t35.5 64v32h-80q-126 0 -126 -70q0 -56 78 -56z" />
    <glyph glyph-name="uni1EA1.ss01" horiz-adv-x="538" 
d="M262 495q106 0 161 -53t55 -148v-294h-115l-3 68q-48 -73 -162 -73q-79 0 -121.5 36t-42.5 98q0 81 68.5 117t179.5 36h77v21q0 46 -26 71.5t-75 25.5q-91 0 -100 -76h-112q6 80 64 125.5t152 45.5zM231 85q57 0 92.5 30t35.5 64v32h-80q-126 0 -126 -70q0 -56 78 -56z
M266 -54q35 0 56.5 -21t21.5 -55t-21.5 -55t-56.5 -21t-56.5 21t-21.5 55t21.5 55t56.5 21z" />
    <glyph glyph-name="agrave.ss01" horiz-adv-x="538" 
d="M317 560h-97l-94 169h144zM262 495q106 0 161 -53t55 -148v-294h-115l-3 68q-48 -73 -162 -73q-79 0 -121.5 36t-42.5 98q0 81 68.5 117t179.5 36h77v21q0 46 -26 71.5t-75 25.5q-91 0 -100 -76h-112q6 80 64 125.5t152 45.5zM231 85q57 0 92.5 30t35.5 64v32h-80
q-126 0 -126 -70q0 -56 78 -56z" />
    <glyph glyph-name="amacron.ss01" horiz-adv-x="538" 
d="M413 689v-86h-299v86h299zM262 495q106 0 161 -53t55 -148v-294h-115l-3 68q-48 -73 -162 -73q-79 0 -121.5 36t-42.5 98q0 81 68.5 117t179.5 36h77v21q0 46 -26 71.5t-75 25.5q-91 0 -100 -76h-112q6 80 64 125.5t152 45.5zM231 85q57 0 92.5 30t35.5 64v32h-80
q-126 0 -126 -70q0 -56 78 -56z" />
    <glyph glyph-name="aogonek.ss01" horiz-adv-x="538" 
d="M499 -122l31 -56q-33 -35 -95 -35q-51 0 -80 27t-29 73q0 63 58 113h-21l-3 68q-48 -73 -162 -73q-79 0 -121.5 36t-42.5 98q0 81 68.5 117t179.5 36h77v21q0 46 -26 71.5t-75 25.5q-91 0 -100 -76h-112q6 80 64 125.5t152 45.5q106 0 161 -53t55 -148v-294q-3 -2 -8 -5
t-18 -12.5t-22.5 -20.5t-17.5 -27.5t-8 -33.5q0 -42 42 -42q31 0 53 19zM231 85q57 0 92.5 30t35.5 64v32h-80q-126 0 -126 -70q0 -56 78 -56z" />
    <glyph glyph-name="aring.ss01" horiz-adv-x="538" 
d="M262 547q-43 0 -72.5 26.5t-29.5 69.5q0 44 29.5 71t72.5 27q42 0 71.5 -27t29.5 -71q0 -43 -29.5 -69.5t-71.5 -26.5zM262 677q-16 0 -25.5 -9.5t-9.5 -24.5t9.5 -24.5t25.5 -9.5t26 10t10 24q0 15 -10 24.5t-26 9.5zM262 495q106 0 161 -53t55 -148v-294h-115l-3 68
q-48 -73 -162 -73q-79 0 -121.5 36t-42.5 98q0 81 68.5 117t179.5 36h77v21q0 46 -26 71.5t-75 25.5q-91 0 -100 -76h-112q6 80 64 125.5t152 45.5zM231 85q57 0 92.5 30t35.5 64v32h-80q-126 0 -126 -70q0 -56 78 -56z" />
    <glyph glyph-name="aringacute.ss01" horiz-adv-x="538" 
d="M262 547q-43 0 -72.5 26.5t-29.5 69.5q0 44 29.5 71t72.5 27q41 0 69 -25l35 84h97l-100 -166q-4 -39 -33 -63t-68 -24zM262 677q-16 0 -25.5 -9.5t-9.5 -24.5t9.5 -24.5t25.5 -9.5t26 10t10 24q0 15 -10 24.5t-26 9.5zM262 495q106 0 161 -53t55 -148v-294h-115l-3 68
q-48 -73 -162 -73q-79 0 -121.5 36t-42.5 98q0 81 68.5 117t179.5 36h77v21q0 46 -26 71.5t-75 25.5q-91 0 -100 -76h-112q6 80 64 125.5t152 45.5zM231 85q57 0 92.5 30t35.5 64v32h-80q-126 0 -126 -70q0 -56 78 -56z" />
    <glyph glyph-name="atilde.ss01" horiz-adv-x="538" 
d="M194 622q-38 0 -38 -42h-82q0 131 106 131q40 0 77.5 -22.5t55.5 -22.5q37 0 37 43h82q0 -65 -27.5 -98t-77.5 -33q-39 0 -77 22t-56 22zM262 495q106 0 161 -53t55 -148v-294h-115l-3 68q-48 -73 -162 -73q-79 0 -121.5 36t-42.5 98q0 81 68.5 117t179.5 36h77v21
q0 46 -26 71.5t-75 25.5q-91 0 -100 -76h-112q6 80 64 125.5t152 45.5zM231 85q57 0 92.5 30t35.5 64v32h-80q-126 0 -126 -70q0 -56 78 -56z" />
    <glyph glyph-name="f.ss01" horiz-adv-x="386" 
d="M221 490h154v-98h-154v-392h-121v392h-70v98h70v69q0 74 47.5 118.5t123.5 44.5q77 0 123 -44t46 -111h-108q0 26 -15.5 41t-40.5 15q-26 0 -40.5 -15t-14.5 -41v-77z" />
    <glyph glyph-name="g.ss01" horiz-adv-x="600" 
d="M413 490h116v-466q0 -111 -68 -173t-209 -62q-91 0 -166 31v99q81 -35 161 -35q89 0 125 34.5t36 101.5v55q-47 -75 -151 -79q-99 0 -159 69t-60 180q0 114 63 182t159 68q105 0 149 -73zM281 98q58 0 92.5 41t34.5 93v26q0 51 -34 92.5t-93 41.5q-54 0 -87 -40.5
t-33 -106.5t33.5 -106.5t86.5 -40.5z" />
    <glyph glyph-name="gbreve.ss01" horiz-adv-x="600" 
d="M304 557q-71 0 -111 44.5t-40 123.5h92q0 -83 58 -83t58 83h93q0 -78 -40 -123t-110 -45zM413 490h116v-466q0 -111 -68 -173t-209 -62q-91 0 -166 31v99q81 -35 161 -35q89 0 125 34.5t36 101.5v55q-47 -75 -151 -79q-99 0 -159 69t-60 180q0 114 63 182t159 68
q105 0 149 -73zM281 98q58 0 92.5 41t34.5 93v26q0 51 -34 92.5t-93 41.5q-54 0 -87 -40.5t-33 -106.5t33.5 -106.5t86.5 -40.5z" />
    <glyph glyph-name="gcaron.ss01" horiz-adv-x="600" 
d="M367 560h-124l-97 169h88l70 -90l70 90h88zM413 490h116v-466q0 -111 -68 -173t-209 -62q-91 0 -166 31v99q81 -35 161 -35q89 0 125 34.5t36 101.5v55q-47 -75 -151 -79q-99 0 -159 69t-60 180q0 114 63 182t159 68q105 0 149 -73zM281 98q58 0 92.5 41t34.5 93v26
q0 51 -34 92.5t-93 41.5q-54 0 -87 -40.5t-33 -106.5t33.5 -106.5t86.5 -40.5z" />
    <glyph glyph-name="gcircumflex.ss01" horiz-adv-x="600" 
d="M304 650l-70 -90h-89l97 169h124l96 -169h-88zM413 490h116v-466q0 -111 -68 -173t-209 -62q-91 0 -166 31v99q81 -35 161 -35q89 0 125 34.5t36 101.5v55q-47 -75 -151 -79q-99 0 -159 69t-60 180q0 114 63 182t159 68q105 0 149 -73zM281 98q58 0 92.5 41t34.5 93v26
q0 51 -34 92.5t-93 41.5q-54 0 -87 -40.5t-33 -106.5t33.5 -106.5t86.5 -40.5z" />
    <glyph glyph-name="gcommaaccent.ss01" horiz-adv-x="600" 
d="M304 544q-67 2 -67 91q0 74 38.5 119t84.5 43v-52q-22 0 -39.5 -19.5t-17.5 -49.5q30 0 49 -18.5t19 -47.5q0 -30 -19 -48t-48 -18zM413 490h116v-466q0 -111 -68 -173t-209 -62q-91 0 -166 31v99q81 -35 161 -35q89 0 125 34.5t36 101.5v55q-47 -75 -151 -79
q-99 0 -159 69t-60 180q0 114 63 182t159 68q105 0 149 -73zM281 98q58 0 92.5 41t34.5 93v26q0 51 -34 92.5t-93 41.5q-54 0 -87 -40.5t-33 -106.5t33.5 -106.5t86.5 -40.5z" />
    <glyph glyph-name="gdotaccent.ss01" horiz-adv-x="600" 
d="M305 574q-35 0 -56.5 21t-21.5 55t21.5 55t56.5 21t56.5 -21t21.5 -55t-21.5 -55t-56.5 -21zM413 490h116v-466q0 -111 -68 -173t-209 -62q-91 0 -166 31v99q81 -35 161 -35q89 0 125 34.5t36 101.5v55q-47 -75 -151 -79q-99 0 -159 69t-60 180q0 114 63 182t159 68
q105 0 149 -73zM281 98q58 0 92.5 41t34.5 93v26q0 51 -34 92.5t-93 41.5q-54 0 -87 -40.5t-33 -106.5t33.5 -106.5t86.5 -40.5z" />
    <glyph glyph-name="j.ss01" horiz-adv-x="260" 
d="M217 649q0 -34 -23.5 -56t-57.5 -22q-33 0 -56 22t-23 56q0 33 23 55t56 22q34 0 57.5 -22t23.5 -55zM19 -115q54 0 54 63v542h122v-544q0 -70 -48.5 -113.5t-127.5 -43.5q-74 0 -120 39.5t-46 111.5h112q0 -55 54 -55z" />
    <glyph glyph-name="uni0237.ss01" horiz-adv-x="260" 
d="M19 -115q54 0 54 63v542h122v-544q0 -70 -48.5 -113.5t-127.5 -43.5q-74 0 -120 39.5t-46 111.5h112q0 -55 54 -55z" />
    <glyph glyph-name="jcircumflex.ss01" horiz-adv-x="260" 
d="M-28 560l97 169h124l96 -169h-88l-70 90l-70 -90h-89zM19 -211q-74 0 -120 39.5t-46 111.5h112q0 -55 54 -55t54 63v542h122v-544q0 -70 -48.5 -113.5t-127.5 -43.5z" />
    <glyph glyph-name="l.ss01" horiz-adv-x="252" 
d="M65 0v710h122v-710h-122z" />
    <glyph glyph-name="lacute.ss01" horiz-adv-x="252" 
d="M178 744h-113l45 134h166zM65 0v710h122v-710h-122z" />
    <glyph glyph-name="lcaron.ss01" horiz-adv-x="281" 
d="M240 542q22 0 39.5 19.5t17.5 50.5q-31 0 -49.5 18.5t-18.5 47.5t19 47t48 18q67 0 67 -90q0 -76 -38 -121t-85 -43v53zM65 0v710h122v-710h-122z" />
    <glyph glyph-name="lcommaaccent.ss01" horiz-adv-x="252" 
d="M65 0v710h122v-710h-122zM70 -242q22 0 39.5 19.5t17.5 49.5q-30 0 -49 18.5t-19 47.5q0 30 19 48t48 18q67 -2 67 -91q0 -74 -38.5 -119t-84.5 -43v52z" />
    <glyph glyph-name="ldot.ss01" horiz-adv-x="379" 
d="M65 0v710h122v-710h-122zM318 422q36 0 57.5 -21t21.5 -55t-21.5 -55t-57.5 -21q-35 0 -56.5 21t-21.5 55t21.5 55t56.5 21z" />
    <glyph glyph-name="lslash.ss01" horiz-adv-x="338" 
d="M331 417l-100 -59v-358h-122v286l-64 -38l-37 66l101 60v336h122v-264l63 37z" />
    <glyph glyph-name="t.ss01" horiz-adv-x="461" 
d="M338 170h108q0 -83 -45.5 -128.5t-130.5 -45.5q-84 0 -131 45.5t-47 131.5v218h-73v99h80v145h115v-145h173v-98h-173v-222q0 -76 61 -76q63 0 63 76z" />
    <glyph glyph-name="tbar.ss01" horiz-adv-x="461" 
d="M338 170h108q0 -83 -45.5 -128.5t-130.5 -45.5q-84 0 -131 45.5t-47 131.5v60h-61v74h61v84h-73v99h80v145h115v-145h173v-98h-173v-85h137v-74h-137v-63q0 -76 61 -76q63 0 63 76z" />
    <glyph glyph-name="tcaron.ss01" horiz-adv-x="461" 
d="M322 626q-30 0 -49 18.5t-19 47.5q0 30 19.5 48t47.5 17q30 0 48.5 -22t18.5 -69q0 -66 -38 -105t-85 -38v53q22 0 39.5 14t17.5 36zM338 170h108q0 -83 -45.5 -128.5t-130.5 -45.5q-84 0 -131 45.5t-47 131.5v218h-73v99h80v145h115v-145h173v-98h-173v-222
q0 -76 61 -76q63 0 63 76z" />
    <glyph glyph-name="uni0163.ss01" horiz-adv-x="461" 
d="M270 -4h-4l-6 -31q35 -5 57 -25t22 -56q0 -43 -33 -69t-88 -26q-37 0 -67 13l16 67q25 -10 53 -10q46 0 46 26q0 30 -81 30l20 89q-113 33 -113 169v218h-73v99h80v145h115v-145h173v-98h-173v-222q0 -76 61 -76q63 0 63 76h108q0 -83 -45.5 -128.5t-130.5 -45.5z" />
    <glyph glyph-name="uni021B.ss01" horiz-adv-x="461" 
d="M338 170h108q0 -83 -45.5 -128.5t-130.5 -45.5q-84 0 -131 45.5t-47 131.5v218h-73v99h80v145h115v-145h173v-98h-173v-222q0 -76 61 -76q63 0 63 76zM257 -41q67 -2 67 -91q0 -74 -38.5 -119t-84.5 -43v52q22 0 39.5 19.5t17.5 49.5q-30 0 -49 18.5t-19 47.5q0 30 19 48
t48 18z" />
    <glyph glyph-name="u.ss01" horiz-adv-x="583" 
d="M547 103l7 -99q-32 -9 -67 -9q-88 0 -107 80q-48 -80 -147 -80q-79 0 -126 50.5t-47 128.5v316h122v-291q0 -46 23 -72.5t63 -26.5q48 0 77.5 30.5t29.5 81.5v278h122v-362q0 -30 26 -30q10 0 24 5z" />
    <glyph glyph-name="uacute.ss01" horiz-adv-x="583" 
d="M413 729l-95 -169h-97l47 169h145zM547 103l7 -99q-32 -9 -67 -9q-88 0 -107 80q-48 -80 -147 -80q-79 0 -126 50.5t-47 128.5v316h122v-291q0 -46 23 -72.5t63 -26.5q48 0 77.5 30.5t29.5 81.5v278h122v-362q0 -30 26 -30q10 0 24 5z" />
    <glyph glyph-name="ubreve.ss01" horiz-adv-x="583" 
d="M278 557q-71 0 -111 44.5t-40 123.5h92q0 -83 58 -83t58 83h93q0 -78 -40 -123t-110 -45zM547 103l7 -99q-32 -9 -67 -9q-88 0 -107 80q-48 -80 -147 -80q-79 0 -126 50.5t-47 128.5v316h122v-291q0 -46 23 -72.5t63 -26.5q48 0 77.5 30.5t29.5 81.5v278h122v-362
q0 -30 26 -30q10 0 24 5z" />
    <glyph glyph-name="ucircumflex.ss01" horiz-adv-x="583" 
d="M278 650l-70 -90h-89l97 169h124l96 -169h-88zM547 103l7 -99q-32 -9 -67 -9q-88 0 -107 80q-48 -80 -147 -80q-79 0 -126 50.5t-47 128.5v316h122v-291q0 -46 23 -72.5t63 -26.5q48 0 77.5 30.5t29.5 81.5v278h122v-362q0 -30 26 -30q10 0 24 5z" />
    <glyph glyph-name="udieresis.ss01" horiz-adv-x="583" 
d="M184 581q-30 0 -48.5 18t-18.5 47t18.5 47.5t48.5 18.5q31 0 49.5 -18.5t18.5 -47.5t-18.5 -47t-49.5 -18zM381 581q-31 0 -49.5 18t-18.5 47t18.5 47.5t49.5 18.5t49 -18t18 -48q0 -29 -18.5 -47t-48.5 -18zM547 103l7 -99q-32 -9 -67 -9q-88 0 -107 80
q-48 -80 -147 -80q-79 0 -126 50.5t-47 128.5v316h122v-291q0 -46 23 -72.5t63 -26.5q48 0 77.5 30.5t29.5 81.5v278h122v-362q0 -30 26 -30q10 0 24 5z" />
    <glyph glyph-name="uni1EE5.ss01" horiz-adv-x="583" 
d="M547 103l7 -99q-32 -9 -67 -9q-88 0 -107 80q-48 -80 -147 -80q-79 0 -126 50.5t-47 128.5v316h122v-291q0 -46 23 -72.5t63 -26.5q48 0 77.5 30.5t29.5 81.5v278h122v-362q0 -30 26 -30q10 0 24 5zM284 -54q35 0 56.5 -21t21.5 -55t-21.5 -55t-56.5 -21t-56.5 21
t-21.5 55t21.5 55t56.5 21z" />
    <glyph glyph-name="ugrave.ss01" horiz-adv-x="583" 
d="M333 560h-97l-94 169h144zM547 103l7 -99q-32 -9 -67 -9q-88 0 -107 80q-48 -80 -147 -80q-79 0 -126 50.5t-47 128.5v316h122v-291q0 -46 23 -72.5t63 -26.5q48 0 77.5 30.5t29.5 81.5v278h122v-362q0 -30 26 -30q10 0 24 5z" />
    <glyph glyph-name="uhungarumlaut.ss01" horiz-adv-x="583" 
d="M310 729l-98 -169h-99l45 169h152zM407 560h-99l45 169h151zM547 103l7 -99q-32 -9 -67 -9q-88 0 -107 80q-48 -80 -147 -80q-79 0 -126 50.5t-47 128.5v316h122v-291q0 -46 23 -72.5t63 -26.5q48 0 77.5 30.5t29.5 81.5v278h122v-362q0 -30 26 -30q10 0 24 5z" />
    <glyph glyph-name="umacron.ss01" horiz-adv-x="583" 
d="M429 689v-86h-299v86h299zM547 103l7 -99q-32 -9 -67 -9q-88 0 -107 80q-48 -80 -147 -80q-79 0 -126 50.5t-47 128.5v316h122v-291q0 -46 23 -72.5t63 -26.5q48 0 77.5 30.5t29.5 81.5v278h122v-362q0 -30 26 -30q10 0 24 5z" />
    <glyph glyph-name="uogonek.ss01" horiz-adv-x="583" 
d="M575 -117l31 -56q-33 -35 -95 -35q-51 0 -80 27t-29 73q0 60 51 107q-57 14 -73 76q-48 -80 -147 -80q-79 0 -126 50.5t-47 128.5v316h122v-291q0 -46 23 -72.5t63 -26.5q48 0 77.5 30.5t29.5 81.5v278h122v-362q0 -30 26 -30q10 0 24 5l7 -98v-1h-1q-1 -1 -2 -1
q-12 -6 -26 -17t-29.5 -33.5t-15.5 -46.5q0 -42 42 -42q31 0 53 19z" />
    <glyph glyph-name="uring.ss01" horiz-adv-x="583" 
d="M278 547q-43 0 -72.5 26.5t-29.5 69.5q0 44 29.5 71t72.5 27q42 0 71.5 -27t29.5 -71q0 -43 -29.5 -69.5t-71.5 -26.5zM278 677q-16 0 -25.5 -9.5t-9.5 -24.5t9.5 -24.5t25.5 -9.5t26 10t10 24q0 15 -10 24.5t-26 9.5zM547 103l7 -99q-32 -9 -67 -9q-88 0 -107 80
q-48 -80 -147 -80q-79 0 -126 50.5t-47 128.5v316h122v-291q0 -46 23 -72.5t63 -26.5q48 0 77.5 30.5t29.5 81.5v278h122v-362q0 -30 26 -30q10 0 24 5z" />
    <glyph glyph-name="utilde.ss01" horiz-adv-x="583" 
d="M210 622q-38 0 -38 -42h-82q0 131 106 131q40 0 77.5 -22.5t55.5 -22.5q37 0 37 43h82q0 -65 -27.5 -98t-77.5 -33q-39 0 -77 22t-56 22zM547 103l7 -99q-32 -9 -67 -9q-88 0 -107 80q-48 -80 -147 -80q-79 0 -126 50.5t-47 128.5v316h122v-291q0 -46 23 -72.5t63 -26.5
q48 0 77.5 30.5t29.5 81.5v278h122v-362q0 -30 26 -30q10 0 24 5z" />
    <glyph glyph-name="y.ss01" 
d="M375 490h122v-499q0 -93 -59 -147.5t-167 -54.5q-93 0 -150.5 42t-64.5 122h116q12 -69 98 -69q108 0 108 103v91q-50 -79 -148 -79q-80 0 -125 49.5t-45 129.5v312h122v-286q0 -47 24 -73.5t68 -26.5q45 0 73 31t28 82v273z" />
    <glyph glyph-name="yacute.ss01" 
d="M416 729l-95 -169h-97l47 169h145zM375 490h122v-499q0 -93 -59 -147.5t-167 -54.5q-93 0 -150.5 42t-64.5 122h116q12 -69 98 -69q108 0 108 103v91q-50 -79 -148 -79q-80 0 -125 49.5t-45 129.5v312h122v-286q0 -47 24 -73.5t68 -26.5q45 0 73 31t28 82v273z" />
    <glyph glyph-name="ycircumflex.ss01" 
d="M281 650l-70 -90h-89l97 169h124l96 -169h-88zM375 490h122v-499q0 -93 -59 -147.5t-167 -54.5q-93 0 -150.5 42t-64.5 122h116q12 -69 98 -69q108 0 108 103v91q-50 -79 -148 -79q-80 0 -125 49.5t-45 129.5v312h122v-286q0 -47 24 -73.5t68 -26.5q45 0 73 31t28 82v273
z" />
    <glyph glyph-name="ydieresis.ss01" 
d="M183 581q-30 0 -48.5 18t-18.5 47t18.5 47.5t48.5 18.5q31 0 49.5 -18.5t18.5 -47.5t-18.5 -47t-49.5 -18zM380 581q-31 0 -49.5 18t-18.5 47t18.5 47.5t49.5 18.5q30 0 48.5 -18t18.5 -48q0 -29 -18.5 -47t-48.5 -18zM375 490h122v-499q0 -93 -59 -147.5t-167 -54.5
q-93 0 -150.5 42t-64.5 122h116q12 -69 98 -69q108 0 108 103v91q-50 -79 -148 -79q-80 0 -125 49.5t-45 129.5v312h122v-286q0 -47 24 -73.5t68 -26.5q45 0 73 31t28 82v273z" />
    <glyph glyph-name="ygrave.ss01" 
d="M336 560h-97l-94 169h144zM375 490h122v-499q0 -93 -59 -147.5t-167 -54.5q-93 0 -150.5 42t-64.5 122h116q12 -69 98 -69q108 0 108 103v91q-50 -79 -148 -79q-80 0 -125 49.5t-45 129.5v312h122v-286q0 -47 24 -73.5t68 -26.5q45 0 73 31t28 82v273z" />
    <glyph glyph-name="uni0233.ss01" 
d="M438 689v-86h-299v86h299zM375 490h122v-499q0 -93 -59 -147.5t-167 -54.5q-93 0 -150.5 42t-64.5 122h116q12 -69 98 -69q108 0 108 103v91q-50 -79 -148 -79q-80 0 -125 49.5t-45 129.5v312h122v-286q0 -47 24 -73.5t68 -26.5q45 0 73 31t28 82v273z" />
    <glyph glyph-name="uni1EF9.ss01" 
d="M219 622q-38 0 -38 -42h-82q0 131 106 131q40 0 77.5 -22.5t55.5 -22.5q37 0 37 43h82q0 -65 -27.5 -98t-77.5 -33q-39 0 -77 22t-56 22zM375 490h122v-499q0 -93 -59 -147.5t-167 -54.5q-93 0 -150.5 42t-64.5 122h116q12 -69 98 -69q108 0 108 103v91q-50 -79 -148 -79
q-80 0 -125 49.5t-45 129.5v312h122v-286q0 -47 24 -73.5t68 -26.5q45 0 73 31t28 82v273z" />
    <glyph glyph-name="f.ss02" horiz-adv-x="382" 
d="M320 607q-53 0 -76 -23.5t-23 -70.5v-23h147v-98h-147v-392h-121v392h-70v98h70v27q0 92 53.5 142.5t150.5 50.5q30 0 69 -3v-102q-40 2 -53 2z" />
    <glyph glyph-name="g.ss02" horiz-adv-x="600" 
d="M413 490h116v-470q0 -106 -68 -163.5t-209 -57.5q-89 0 -166 7v95q86 -8 161 -8q90 0 125.5 30.5t35.5 92.5v59q-47 -75 -151 -79q-99 0 -159 69t-60 180q0 114 63 182t159 68q105 0 149 -73zM281 98q58 0 92.5 41t34.5 93v26q0 51 -34 92.5t-93 41.5q-54 0 -87 -40.5
t-33 -106.5t33.5 -106.5t86.5 -40.5z" />
    <glyph glyph-name="gbreve.ss02" horiz-adv-x="600" 
d="M304 557q-71 0 -111 44.5t-40 123.5h92q0 -83 58 -83t58 83h93q0 -78 -40 -123t-110 -45zM413 490h116v-470q0 -106 -68 -163.5t-209 -57.5q-89 0 -166 7v95q86 -8 161 -8q90 0 125.5 30.5t35.5 92.5v59q-47 -75 -151 -79q-99 0 -159 69t-60 180q0 114 63 182t159 68
q105 0 149 -73zM281 98q58 0 92.5 41t34.5 93v26q0 51 -34 92.5t-93 41.5q-54 0 -87 -40.5t-33 -106.5t33.5 -106.5t86.5 -40.5z" />
    <glyph glyph-name="gcaron.ss02" horiz-adv-x="600" 
d="M367 560h-124l-97 169h88l70 -90l70 90h88zM413 490h116v-470q0 -106 -68 -163.5t-209 -57.5q-89 0 -166 7v95q86 -8 161 -8q90 0 125.5 30.5t35.5 92.5v59q-47 -75 -151 -79q-99 0 -159 69t-60 180q0 114 63 182t159 68q105 0 149 -73zM281 98q58 0 92.5 41t34.5 93v26
q0 51 -34 92.5t-93 41.5q-54 0 -87 -40.5t-33 -106.5t33.5 -106.5t86.5 -40.5z" />
    <glyph glyph-name="gcircumflex.ss02" horiz-adv-x="600" 
d="M304 650l-70 -90h-89l97 169h124l96 -169h-88zM413 490h116v-470q0 -106 -68 -163.5t-209 -57.5q-89 0 -166 7v95q86 -8 161 -8q90 0 125.5 30.5t35.5 92.5v59q-47 -75 -151 -79q-99 0 -159 69t-60 180q0 114 63 182t159 68q105 0 149 -73zM281 98q58 0 92.5 41t34.5 93
v26q0 51 -34 92.5t-93 41.5q-54 0 -87 -40.5t-33 -106.5t33.5 -106.5t86.5 -40.5z" />
    <glyph glyph-name="gcommaaccent.ss02" horiz-adv-x="594" 
d="M304 544q-67 2 -67 91q0 74 38.5 119t84.5 43v-52q-22 0 -39.5 -19.5t-17.5 -49.5q30 0 49 -18.5t19 -47.5q0 -30 -19 -48t-48 -18zM413 490h116v-470q0 -106 -68 -163.5t-209 -57.5q-89 0 -166 7v95q86 -8 161 -8q90 0 125.5 30.5t35.5 92.5v59q-47 -75 -151 -79
q-99 0 -159 69t-60 180q0 114 63 182t159 68q105 0 149 -73zM281 98q58 0 92.5 41t34.5 93v26q0 51 -34 92.5t-93 41.5q-54 0 -87 -40.5t-33 -106.5t33.5 -106.5t86.5 -40.5z" />
    <glyph glyph-name="gdotaccent.ss02" horiz-adv-x="600" 
d="M305 574q-35 0 -56.5 21t-21.5 55t21.5 55t56.5 21t56.5 -21t21.5 -55t-21.5 -55t-56.5 -21zM413 490h116v-470q0 -106 -68 -163.5t-209 -57.5q-89 0 -166 7v95q86 -8 161 -8q90 0 125.5 30.5t35.5 92.5v59q-47 -75 -151 -79q-99 0 -159 69t-60 180q0 114 63 182t159 68
q105 0 149 -73zM281 98q58 0 92.5 41t34.5 93v26q0 51 -34 92.5t-93 41.5q-54 0 -87 -40.5t-33 -106.5t33.5 -106.5t86.5 -40.5z" />
    <glyph glyph-name="j.ss02" horiz-adv-x="260" 
d="M217 649q0 -34 -23.5 -56t-57.5 -22q-33 0 -56 22t-23 56q0 33 23 55t56 22q34 0 57.5 -22t23.5 -55zM-2 -206q-31 0 -69 3v102q30 -3 53 -3q91 0 91 95v499h122v-503q0 -92 -52.5 -142.5t-144.5 -50.5z" />
    <glyph glyph-name="uni0237.ss02" horiz-adv-x="260" 
d="M-2 -206q-31 0 -69 3v102q30 -3 53 -3q91 0 91 95v499h122v-503q0 -92 -52.5 -142.5t-144.5 -50.5z" />
    <glyph glyph-name="jcircumflex.ss02" horiz-adv-x="260" 
d="M-28 560l97 169h124l96 -169h-88l-70 90l-70 -90h-89zM-2 -206q-31 0 -69 3v102q30 -3 53 -3q91 0 91 95v499h122v-503q0 -92 -52.5 -142.5t-144.5 -50.5z" />
    <glyph glyph-name="t.ss02" horiz-adv-x="389" 
d="M312 103q20 -1 54 2v-102q-38 -3 -71 -3q-99 0 -151 49.5t-52 143.5v198h-73v99h80v141h115v-141h149v-98h-149v-195q0 -49 21 -71.5t77 -22.5z" />
    <glyph glyph-name="tbar.ss02" horiz-adv-x="389" 
d="M312 103q20 -1 54 2v-102q-38 -3 -71 -3q-99 0 -151 49.5t-52 143.5v40h-61v74h61v84h-73v99h80v141h115v-141h149v-98h-149v-85h137v-74h-137v-36q0 -49 21 -71.5t77 -22.5z" />
    <glyph glyph-name="tcaron.ss02" horiz-adv-x="389" 
d="M322 626q-30 0 -49 18.5t-19 47.5q0 30 19.5 48t47.5 17q30 0 48.5 -22t18.5 -69q0 -66 -38 -105t-85 -38v53q22 0 39.5 14t17.5 36zM312 103q20 -1 54 2v-102q-38 -3 -71 -3q-99 0 -151 49.5t-52 143.5v198h-73v99h80v141h115v-141h149v-98h-149v-195q0 -49 21 -71.5
t77 -22.5z" />
    <glyph glyph-name="uni0163.ss02" horiz-adv-x="389" 
d="M295 0q-22 0 -32 1l-8 -36q35 -5 57 -25t22 -56q0 -43 -33 -69t-88 -26q-37 0 -67 13l16 67q25 -10 53 -10q46 0 46 26q0 30 -81 30l22 99q-110 40 -110 179v198h-73v99h80v141h115v-141h149v-98h-149v-195q0 -49 21 -71.5t77 -22.5q20 -1 54 2v-102q-38 -3 -71 -3z" />
    <glyph glyph-name="uni021B.ss02" horiz-adv-x="389" 
d="M312 103q20 -1 54 2v-102q-38 -3 -71 -3q-99 0 -151 49.5t-52 143.5v198h-73v99h80v141h115v-141h149v-98h-149v-195q0 -49 21 -71.5t77 -22.5zM243 -41q67 -2 67 -91q0 -74 -38.5 -119t-84.5 -43v52q22 0 39.5 19.5t17.5 49.5q-30 0 -49 18.5t-19 47.5q0 30 19 48t48 18
z" />
    <glyph glyph-name="y.ss02" 
d="M375 490h122v-470q0 -105 -63 -163t-188 -58q-89 0 -166 7v95q86 -8 161 -8q74 0 105.5 31t31.5 92v62q-50 -79 -148 -79q-80 0 -125 49.5t-45 129.5v312h122v-286q0 -47 24 -73.5t68 -26.5q45 0 73 31t28 82v273z" />
    <glyph glyph-name="yacute.ss02" 
d="M416 729l-95 -169h-97l47 169h145zM375 490h122v-470q0 -105 -63 -163t-188 -58q-89 0 -166 7v95q86 -8 161 -8q74 0 105.5 31t31.5 92v62q-50 -79 -148 -79q-80 0 -125 49.5t-45 129.5v312h122v-286q0 -47 24 -73.5t68 -26.5q45 0 73 31t28 82v273z" />
    <glyph glyph-name="ycircumflex.ss02" 
d="M281 650l-70 -90h-89l97 169h124l96 -169h-88zM375 490h122v-470q0 -105 -63 -163t-188 -58q-89 0 -166 7v95q86 -8 161 -8q74 0 105.5 31t31.5 92v62q-50 -79 -148 -79q-80 0 -125 49.5t-45 129.5v312h122v-286q0 -47 24 -73.5t68 -26.5q45 0 73 31t28 82v273z" />
    <glyph glyph-name="ydieresis.ss02" 
d="M183 581q-30 0 -48.5 18t-18.5 47t18.5 47.5t48.5 18.5q31 0 49.5 -18.5t18.5 -47.5t-18.5 -47t-49.5 -18zM380 581q-31 0 -49.5 18t-18.5 47t18.5 47.5t49.5 18.5q30 0 48.5 -18t18.5 -48q0 -29 -18.5 -47t-48.5 -18zM375 490h122v-470q0 -105 -63 -163t-188 -58
q-89 0 -166 7v95q86 -8 161 -8q74 0 105.5 31t31.5 92v62q-50 -79 -148 -79q-80 0 -125 49.5t-45 129.5v312h122v-286q0 -47 24 -73.5t68 -26.5q45 0 73 31t28 82v273z" />
    <glyph glyph-name="ygrave.ss02" 
d="M336 560h-97l-94 169h144zM375 490h122v-470q0 -105 -63 -163t-188 -58q-89 0 -166 7v95q86 -8 161 -8q74 0 105.5 31t31.5 92v62q-50 -79 -148 -79q-80 0 -125 49.5t-45 129.5v312h122v-286q0 -47 24 -73.5t68 -26.5q45 0 73 31t28 82v273z" />
    <glyph glyph-name="uni0233.ss02" 
d="M438 689v-86h-299v86h299zM375 490h122v-470q0 -105 -63 -163t-188 -58q-89 0 -166 7v95q86 -8 161 -8q74 0 105.5 31t31.5 92v62q-50 -79 -148 -79q-80 0 -125 49.5t-45 129.5v312h122v-286q0 -47 24 -73.5t68 -26.5q45 0 73 31t28 82v273z" />
    <glyph glyph-name="uni1EF9.ss02" 
d="M219 622q-38 0 -38 -42h-82q0 131 106 131q40 0 77.5 -22.5t55.5 -22.5q37 0 37 43h82q0 -65 -27.5 -98t-77.5 -33q-39 0 -77 22t-56 22zM375 490h122v-470q0 -105 -63 -163t-188 -58q-89 0 -166 7v95q86 -8 161 -8q74 0 105.5 31t31.5 92v62q-50 -79 -148 -79
q-80 0 -125 49.5t-45 129.5v312h122v-286q0 -47 24 -73.5t68 -26.5q45 0 73 31t28 82v273z" />
    <glyph glyph-name="y.ss03" 
d="M375 490h122v-466q0 -111 -65 -173t-198 -62q-86 0 -162 31v99q83 -35 160 -35q79 0 112.5 35t33.5 101v58q-50 -79 -148 -79q-80 0 -125 49.5t-45 129.5v312h122v-286q0 -47 24 -73.5t68 -26.5q45 0 73 31t28 82v273z" />
    <glyph glyph-name="yacute.ss03" 
d="M416 729l-95 -169h-97l47 169h145zM375 490h122v-466q0 -111 -65 -173t-198 -62q-86 0 -162 31v99q83 -35 160 -35q79 0 112.5 35t33.5 101v58q-50 -79 -148 -79q-80 0 -125 49.5t-45 129.5v312h122v-286q0 -47 24 -73.5t68 -26.5q45 0 73 31t28 82v273z" />
    <glyph glyph-name="ycircumflex.ss03" 
d="M281 650l-70 -90h-89l97 169h124l96 -169h-88zM375 490h122v-466q0 -111 -65 -173t-198 -62q-86 0 -162 31v99q83 -35 160 -35q79 0 112.5 35t33.5 101v58q-50 -79 -148 -79q-80 0 -125 49.5t-45 129.5v312h122v-286q0 -47 24 -73.5t68 -26.5q45 0 73 31t28 82v273z" />
    <glyph glyph-name="ydieresis.ss03" 
d="M183 581q-30 0 -48.5 18t-18.5 47t18.5 47.5t48.5 18.5q31 0 49.5 -18.5t18.5 -47.5t-18.5 -47t-49.5 -18zM380 581q-31 0 -49.5 18t-18.5 47t18.5 47.5t49.5 18.5q30 0 48.5 -18t18.5 -48q0 -29 -18.5 -47t-48.5 -18zM375 490h122v-466q0 -111 -65 -173t-198 -62
q-86 0 -162 31v99q83 -35 160 -35q79 0 112.5 35t33.5 101v58q-50 -79 -148 -79q-80 0 -125 49.5t-45 129.5v312h122v-286q0 -47 24 -73.5t68 -26.5q45 0 73 31t28 82v273z" />
    <glyph glyph-name="ygrave.ss03" 
d="M336 560h-97l-94 169h144zM375 490h122v-466q0 -111 -65 -173t-198 -62q-86 0 -162 31v99q83 -35 160 -35q79 0 112.5 35t33.5 101v58q-50 -79 -148 -79q-80 0 -125 49.5t-45 129.5v312h122v-286q0 -47 24 -73.5t68 -26.5q45 0 73 31t28 82v273z" />
    <glyph glyph-name="uni0233.ss03" 
d="M438 689v-86h-299v86h299zM375 490h122v-466q0 -111 -65 -173t-198 -62q-86 0 -162 31v99q83 -35 160 -35q79 0 112.5 35t33.5 101v58q-50 -79 -148 -79q-80 0 -125 49.5t-45 129.5v312h122v-286q0 -47 24 -73.5t68 -26.5q45 0 73 31t28 82v273z" />
    <glyph glyph-name="uni1EF9.ss03" 
d="M219 622q-38 0 -38 -42h-82q0 131 106 131q40 0 77.5 -22.5t55.5 -22.5q37 0 37 43h82q0 -65 -27.5 -98t-77.5 -33q-39 0 -77 22t-56 22zM375 490h122v-466q0 -111 -65 -173t-198 -62q-86 0 -162 31v99q83 -35 160 -35q79 0 112.5 35t33.5 101v58q-50 -79 -148 -79
q-80 0 -125 49.5t-45 129.5v312h122v-286q0 -47 24 -73.5t68 -26.5q45 0 73 31t28 82v273z" />
    <glyph glyph-name="a.sc" horiz-adv-x="575" 
d="M448 0l-40 106h-241l-40 -106h-119l210 519h139l210 -519h-119zM202 197h171l-85 224z" />
    <glyph glyph-name="aacute.sc" horiz-adv-x="575" 
d="M427 758l-95 -169h-97l47 169h145zM448 0l-40 106h-241l-40 -106h-119l210 519h139l210 -519h-119zM202 197h171l-85 224z" />
    <glyph glyph-name="abreve.sc" horiz-adv-x="575" 
d="M296 586q-71 0 -111 44.5t-40 123.5h92q0 -83 58 -83t58 83h93q0 -78 -40 -123t-110 -45zM448 0l-40 106h-241l-40 -106h-119l210 519h139l210 -519h-119zM202 197h171l-85 224z" />
    <glyph glyph-name="acircumflex.sc" horiz-adv-x="575" 
d="M292 679l-70 -90h-89l97 169h124l96 -169h-88zM448 0l-40 106h-241l-40 -106h-119l210 519h139l210 -519h-119zM202 197h171l-85 224z" />
    <glyph glyph-name="adieresis.sc" horiz-adv-x="575" 
d="M197 610q-30 0 -48.5 18t-18.5 47t18.5 47.5t48.5 18.5q31 0 49.5 -18.5t18.5 -47.5t-18.5 -47t-49.5 -18zM394 610q-31 0 -49.5 18t-18.5 47t18.5 47.5t49.5 18.5q30 0 48.5 -18.5t18.5 -47.5t-18.5 -47t-48.5 -18zM448 0l-40 106h-241l-40 -106h-119l210 519h139
l210 -519h-119zM202 197h171l-85 224z" />
    <glyph glyph-name="uni1EA1.sc" horiz-adv-x="575" 
d="M567 0h-119l-40 106h-241l-40 -106h-119l210 519h139zM202 197h171l-85 224zM287 -54q35 0 56.5 -21t21.5 -55t-21.5 -55t-56.5 -21t-56.5 21t-21.5 55t21.5 55t56.5 21z" />
    <glyph glyph-name="agrave.sc" horiz-adv-x="575" 
d="M346 589h-97l-94 169h144zM448 0l-40 106h-241l-40 -106h-119l210 519h139l210 -519h-119zM202 197h171l-85 224z" />
    <glyph glyph-name="amacron.sc" horiz-adv-x="575" 
d="M442 718v-86h-299v86h299zM448 0l-40 106h-241l-40 -106h-119l210 519h139l210 -519h-119zM202 197h171l-85 224z" />
    <glyph glyph-name="aogonek.sc" horiz-adv-x="575" 
d="M588 -122l31 -56q-33 -35 -95 -35q-51 0 -80 27t-29 73q0 63 58 113h-25l-40 106h-241l-40 -106h-119l210 519h139l210 -519q-3 -2 -8 -5t-18 -12.5t-22.5 -20.5t-17.5 -27.5t-8 -33.5q0 -42 42 -42q31 0 53 19zM202 197h171l-85 224z" />
    <glyph glyph-name="aring.sc" horiz-adv-x="575" 
d="M292 576q-43 0 -72.5 26.5t-29.5 69.5q0 44 29.5 71t72.5 27q42 0 71.5 -27t29.5 -71q0 -43 -29.5 -69.5t-71.5 -26.5zM292 706q-16 0 -25.5 -9.5t-9.5 -24.5t9.5 -24.5t25.5 -9.5t26 10t10 24q0 15 -10 24.5t-26 9.5zM448 0l-40 106h-241l-40 -106h-119l210 519h139
l210 -519h-119zM202 197h171l-85 224z" />
    <glyph glyph-name="aringacute.sc" horiz-adv-x="575" 
d="M292 576q-43 0 -72.5 26.5t-29.5 69.5q0 44 29.5 71t72.5 27q46 0 74 -30l49 94h97l-119 -169q-3 -40 -32 -64.5t-69 -24.5zM292 706q-16 0 -25.5 -9.5t-9.5 -24.5t9.5 -24.5t25.5 -9.5q30 0 35 26q1 3 1 8q0 15 -10 24.5t-26 9.5zM448 0l-40 106h-241l-40 -106h-119
l210 519h139l210 -519h-119zM202 197h171l-85 224z" />
    <glyph glyph-name="atilde.sc" horiz-adv-x="575" 
d="M224 651q-38 0 -38 -42h-82q0 131 106 131q40 0 77.5 -22.5t55.5 -22.5q37 0 37 43h82q0 -65 -27.5 -98t-77.5 -33q-39 0 -77 22t-56 22zM448 0l-40 106h-241l-40 -106h-119l210 519h139l210 -519h-119zM202 197h171l-85 224z" />
    <glyph glyph-name="ae.sc" horiz-adv-x="797" 
d="M490 99h263v-99h-379v106h-190l-64 -106h-126l311 519h444v-99h-259v-107h228v-97h-228v-117zM239 197h135v222h-1z" />
    <glyph glyph-name="aeacute.sc" horiz-adv-x="797" 
d="M537 761l-95 -169h-97l47 169h145zM490 99h263v-99h-379v106h-190l-64 -106h-126l311 519h444v-99h-259v-107h228v-97h-228v-117zM239 197h135v222h-1z" />
    <glyph glyph-name="b.sc" horiz-adv-x="555" 
d="M411 269q43 -9 74 -42.5t31 -85.5q0 -63 -48 -102t-122 -39h-275v519h264q75 0 119 -36.5t44 -93.5q0 -49 -27.5 -78.5t-59.5 -38.5v-3zM381 368q0 62 -83 62h-112v-125h113q82 0 82 63zM313 90q40 0 63 17t23 49t-24.5 49.5t-65.5 17.5h-123v-133h127z" />
    <glyph glyph-name="c.sc" horiz-adv-x="608" 
d="M315 98q127 0 144 98h117q-11 -89 -77 -145t-187 -56q-120 0 -197 74t-77 191q0 118 77.5 191.5t196.5 73.5q120 0 187 -55.5t77 -145.5h-117q-7 43 -43 71t-101 28q-68 0 -113 -45t-45 -118q1 -74 45.5 -118t112.5 -44z" />
    <glyph glyph-name="cacute.sc" horiz-adv-x="608" 
d="M352 589h-97l47 169h145zM315 98q127 0 144 98h117q-11 -89 -77 -145t-187 -56q-120 0 -197 74t-77 191q0 118 77.5 191.5t196.5 73.5q120 0 187 -55.5t77 -145.5h-117q-7 43 -43 71t-101 28q-68 0 -113 -45t-45 -118q1 -74 45.5 -118t112.5 -44z" />
    <glyph glyph-name="ccaron.sc" horiz-adv-x="608" 
d="M154 758h88l70 -90l70 90h88l-95 -169h-124zM315 98q127 0 144 98h117q-11 -89 -77 -145t-187 -56q-120 0 -197 74t-77 191q0 118 77.5 191.5t196.5 73.5q120 0 187 -55.5t77 -145.5h-117q-7 43 -43 71t-101 28q-68 0 -113 -45t-45 -118q1 -74 45.5 -118t112.5 -44z" />
    <glyph glyph-name="ccedilla.sc" horiz-adv-x="608" 
d="M315 98q127 0 144 98h117q-10 -86 -71.5 -141t-174.5 -60l-6 -29q35 -5 57 -25t22 -56q0 -43 -33 -69t-88 -26q-37 0 -67 13l16 67q25 -10 53 -10q46 0 46 26q0 30 -81 30l18 82q-102 14 -165.5 85.5t-63.5 176.5q0 118 77.5 191.5t196.5 73.5q120 0 187 -55.5t77 -145.5
h-117q-7 43 -43 71t-101 28q-68 0 -113 -45t-45 -118q1 -74 45.5 -118t112.5 -44z" />
    <glyph glyph-name="ccircumflex.sc" horiz-adv-x="608" 
d="M153 589l97 169h124l96 -169h-88l-70 90l-70 -90h-89zM315 98q127 0 144 98h117q-11 -89 -77 -145t-187 -56q-120 0 -197 74t-77 191q0 118 77.5 191.5t196.5 73.5q120 0 187 -55.5t77 -145.5h-117q-7 43 -43 71t-101 28q-68 0 -113 -45t-45 -118q1 -74 45.5 -118
t112.5 -44z" />
    <glyph glyph-name="cdotaccent.sc" horiz-adv-x="608" 
d="M312 755q35 0 56.5 -21t21.5 -55t-21.5 -55t-56.5 -21t-56.5 21t-21.5 55t21.5 55t56.5 21zM315 98q127 0 144 98h117q-11 -89 -77 -145t-187 -56q-120 0 -197 74t-77 191q0 118 77.5 191.5t196.5 73.5q120 0 187 -55.5t77 -145.5h-117q-7 43 -43 71t-101 28
q-68 0 -113 -45t-45 -118q1 -74 45.5 -118t112.5 -44z" />
    <glyph glyph-name="d.sc" horiz-adv-x="624" 
d="M299 519q129 0 208 -69t79 -190t-78.5 -190.5t-208.5 -69.5h-228v519h228zM299 96q77 0 122.5 42t45.5 122t-45.5 121.5t-122.5 41.5h-110v-327h110z" />
    <glyph glyph-name="eth.sc" horiz-adv-x="633" 
d="M308 519q129 0 208 -69t79 -190t-78.5 -190.5t-208.5 -69.5h-228v227h-64v74h64v218h228zM308 96q77 0 122.5 42t45.5 122t-45.5 121.5t-122.5 41.5h-110v-122h125v-74h-125v-131h110z" />
    <glyph glyph-name="dcaron.sc" horiz-adv-x="624" 
d="M355 592h-124l-97 169h88l70 -90l70 90h88zM299 519q129 0 208 -69t79 -190t-78.5 -190.5t-208.5 -69.5h-228v519h228zM299 96q77 0 122.5 42t45.5 122t-45.5 121.5t-122.5 41.5h-110v-327h110z" />
    <glyph glyph-name="dcroat.sc" horiz-adv-x="633" 
d="M308 519q129 0 208 -69t79 -190t-78.5 -190.5t-208.5 -69.5h-228v227h-64v74h64v218h228zM308 96q77 0 122.5 42t45.5 122t-45.5 121.5t-122.5 41.5h-110v-122h125v-74h-125v-131h110z" />
    <glyph glyph-name="e.sc" horiz-adv-x="529" 
d="M188 98h297v-98h-414v519h410v-97h-293v-109h261v-97h-261v-118z" />
    <glyph glyph-name="eacute.sc" horiz-adv-x="529" 
d="M417 758l-95 -169h-97l47 169h145zM188 98h297v-98h-414v519h410v-97h-293v-109h261v-97h-261v-118z" />
    <glyph glyph-name="ebreve.sc" horiz-adv-x="529" 
d="M282 586q-71 0 -111 44.5t-40 123.5h92q0 -83 58 -83t58 83h93q0 -78 -40 -123t-110 -45zM188 98h297v-98h-414v519h410v-97h-293v-109h261v-97h-261v-118z" />
    <glyph glyph-name="ecaron.sc" horiz-adv-x="529" 
d="M345 589h-124l-97 169h88l70 -90l70 90h88zM188 98h297v-98h-414v519h410v-97h-293v-109h261v-97h-261v-118z" />
    <glyph glyph-name="ecircumflex.sc" horiz-adv-x="529" 
d="M282 679l-70 -90h-89l97 169h124l96 -169h-88zM188 98h297v-98h-414v519h410v-97h-293v-109h261v-97h-261v-118z" />
    <glyph glyph-name="edieresis.sc" horiz-adv-x="529" 
d="M187 610q-30 0 -48.5 18t-18.5 47t18.5 47.5t48.5 18.5q31 0 49.5 -18.5t18.5 -47.5t-18.5 -47t-49.5 -18zM384 610q-31 0 -49.5 18t-18.5 47t18.5 47.5t49.5 18.5q30 0 48.5 -18.5t18.5 -47.5t-18.5 -47t-48.5 -18zM188 98h297v-98h-414v519h410v-97h-293v-109h261v-97
h-261v-118z" />
    <glyph glyph-name="edotaccent.sc" horiz-adv-x="529" 
d="M282 603q-35 0 -56.5 21t-21.5 55t21.5 55t56.5 21t56.5 -21t21.5 -55t-21.5 -55t-56.5 -21zM188 98h297v-98h-414v519h410v-97h-293v-109h261v-97h-261v-118z" />
    <glyph glyph-name="uni1EB9.sc" horiz-adv-x="529" 
d="M188 98h297v-98h-414v519h410v-97h-293v-109h261v-97h-261v-118zM285 -54q35 0 56.5 -21t21.5 -55t-21.5 -55t-56.5 -21t-56.5 21t-21.5 55t21.5 55t56.5 21z" />
    <glyph glyph-name="egrave.sc" horiz-adv-x="529" 
d="M336 589h-97l-94 169h144zM188 98h297v-98h-414v519h410v-97h-293v-109h261v-97h-261v-118z" />
    <glyph glyph-name="emacron.sc" horiz-adv-x="529" 
d="M433 718v-86h-299v86h299zM188 98h297v-98h-414v519h410v-97h-293v-109h261v-97h-261v-118z" />
    <glyph glyph-name="eogonek.sc" horiz-adv-x="529" 
d="M506 -122l31 -56q-33 -35 -95 -35q-51 0 -80 27t-29 73q0 63 58 113h-320v519h410v-97h-293v-109h261v-97h-261v-118h297v-98q-3 -2 -8 -5t-18 -12.5t-22.5 -20.5t-17.5 -27.5t-8 -33.5q0 -42 42 -42q31 0 53 19z" />
    <glyph glyph-name="uni1EBD.sc" horiz-adv-x="529" 
d="M214 651q-38 0 -38 -42h-82q0 131 106 131q40 0 77.5 -22.5t55.5 -22.5q37 0 37 43h82q0 -65 -27.5 -98t-77.5 -33q-39 0 -77 22t-56 22zM188 98h297v-98h-414v519h410v-97h-293v-109h261v-97h-261v-118z" />
    <glyph glyph-name="uni0259.sc" horiz-adv-x="608" 
d="M297 525q121 0 196 -72t75 -190q0 -120 -76.5 -194t-193.5 -74q-129 0 -195.5 70.5t-66.5 193.5v23h412q-7 66 -50.5 103.5t-98.5 37.5q-54 0 -88 -21.5t-44 -54.5h-119q15 75 78.5 126.5t170.5 51.5zM299 95q47 0 86 26.5t55 76.5h-284q22 -103 143 -103z" />
    <glyph glyph-name="f.sc" horiz-adv-x="500" 
d="M471 423h-282v-135h247v-94h-247v-194h-118v519h400v-96z" />
    <glyph glyph-name="g.sc" horiz-adv-x="626" 
d="M323 275h255v-275h-85v72q-57 -77 -183 -77q-118 0 -195 74.5t-77 192.5q0 117 77.5 190t201.5 73q116 0 181 -52.5t75 -138.5h-117q-8 39 -42 64t-94 25q-73 0 -118 -44.5t-45 -118.5q1 -76 45 -121t116 -45q63 0 102.5 27.5t49.5 67.5h-147v86z" />
    <glyph glyph-name="gbreve.sc" horiz-adv-x="626" 
d="M314 594q-71 0 -111 44.5t-40 123.5h92q0 -83 58 -83t58 83h93q0 -78 -40 -123t-110 -45zM323 275h255v-275h-85v72q-57 -77 -183 -77q-118 0 -195 74.5t-77 192.5q0 117 77.5 190t201.5 73q116 0 181 -52.5t75 -138.5h-117q-8 39 -42 64t-94 25q-73 0 -118 -44.5
t-45 -118.5q1 -76 45 -121t116 -45q63 0 102.5 27.5t49.5 67.5h-147v86z" />
    <glyph glyph-name="gcaron.sc" horiz-adv-x="626" 
d="M376 597h-124l-97 169h88l70 -90l70 90h88zM323 275h255v-275h-85v72q-57 -77 -183 -77q-118 0 -195 74.5t-77 192.5q0 117 77.5 190t201.5 73q116 0 181 -52.5t75 -138.5h-117q-8 39 -42 64t-94 25q-73 0 -118 -44.5t-45 -118.5q1 -76 45 -121t116 -45q63 0 102.5 27.5
t49.5 67.5h-147v86z" />
    <glyph glyph-name="gcircumflex.sc" horiz-adv-x="626" 
d="M314 687l-70 -90h-89l97 169h124l96 -169h-88zM323 275h255v-275h-85v72q-57 -77 -183 -77q-118 0 -195 74.5t-77 192.5q0 117 77.5 190t201.5 73q116 0 181 -52.5t75 -138.5h-117q-8 39 -42 64t-94 25q-73 0 -118 -44.5t-45 -118.5q1 -76 45 -121t116 -45
q63 0 102.5 27.5t49.5 67.5h-147v86z" />
    <glyph glyph-name="gcommaaccent.sc" horiz-adv-x="626" 
d="M323 275h255v-275h-85v72q-57 -77 -183 -77q-118 0 -195 74.5t-77 192.5q0 117 77.5 190t201.5 73q116 0 181 -52.5t75 -138.5h-117q-8 39 -42 64t-94 25q-73 0 -118 -44.5t-45 -118.5q1 -76 45 -121t116 -45q63 0 102.5 27.5t49.5 67.5h-147v86zM311 -41q67 -2 67 -91
q0 -74 -38.5 -119t-84.5 -43v52q22 0 39.5 19.5t17.5 49.5q-30 0 -49 18.5t-19 47.5q0 30 19 48t48 18z" />
    <glyph glyph-name="gdotaccent.sc" horiz-adv-x="626" 
d="M314 611q-35 0 -56.5 21t-21.5 55t21.5 55t56.5 21t56.5 -21t21.5 -55t-21.5 -55t-56.5 -21zM323 275h255v-275h-85v72q-57 -77 -183 -77q-118 0 -195 74.5t-77 192.5q0 117 77.5 190t201.5 73q116 0 181 -52.5t75 -138.5h-117q-8 39 -42 64t-94 25q-73 0 -118 -44.5
t-45 -118.5q1 -76 45 -121t116 -45q63 0 102.5 27.5t49.5 67.5h-147v86z" />
    <glyph glyph-name="h.sc" horiz-adv-x="638" 
d="M449 519h118v-519h-118v211h-260v-211h-118v519h118v-204h260v204z" />
    <glyph glyph-name="hbar.sc" horiz-adv-x="650" 
d="M624 464v-84h-51v-380h-118v211h-260v-211h-118v380h-52v84h52v55h118v-55h260v55h118v-55h51zM455 315v65h-260v-65h260z" />
    <glyph glyph-name="hcircumflex.sc" horiz-adv-x="638" 
d="M321 682l-70 -90h-89l97 169h124l96 -169h-88zM449 519h118v-519h-118v211h-260v-211h-118v519h118v-204h260v204z" />
    <glyph glyph-name="i.sc" horiz-adv-x="260" 
d="M71 0v519h118v-519h-118z" />
    <glyph glyph-name="iacute.sc" horiz-adv-x="260" 
d="M170 592h-97l47 169h145zM71 0v519h118v-519h-118z" />
    <glyph glyph-name="ibreve.sc" horiz-adv-x="260" 
d="M280 757q0 -78 -40 -123t-110 -45q-71 0 -111 44.5t-40 123.5h92q0 -83 58 -83t58 83h93zM71 0v519h118v-519h-118z" />
    <glyph glyph-name="icircumflex.sc" horiz-adv-x="260" 
d="M-29 592l97 169h124l96 -169h-88l-70 90l-70 -90h-89zM71 0v519h118v-519h-118z" />
    <glyph glyph-name="idieresis.sc" horiz-adv-x="260" 
d="M36 744q31 0 49.5 -18.5t18.5 -47.5t-18.5 -47t-49.5 -18q-30 0 -48.5 18t-18.5 47t18.5 47.5t48.5 18.5zM233 744q31 0 49 -18t18 -48q0 -29 -18.5 -47t-48.5 -18q-31 0 -49.5 18t-18.5 47t18.5 47.5t49.5 18.5zM71 0v519h118v-519h-118z" />
    <glyph glyph-name="i.sc.loclTRK" horiz-adv-x="260" 
d="M130 758q35 0 56.5 -21t21.5 -55t-21.5 -55t-56.5 -21t-56.5 21t-21.5 55t21.5 55t56.5 21zM71 0v519h118v-519h-118z" />
    <glyph glyph-name="uni1ECB.sc" horiz-adv-x="260" 
d="M71 0v519h118v-519h-118zM130 -54q35 0 56.5 -21t21.5 -55t-21.5 -55t-56.5 -21t-56.5 21t-21.5 55t21.5 55t56.5 21z" />
    <glyph glyph-name="igrave.sc" horiz-adv-x="260" 
d="M88 592l-94 169h144l47 -169h-97zM71 0v519h118v-519h-118z" />
    <glyph glyph-name="ij.sc" horiz-adv-x="741" 
d="M71 0v519h118v-519h-118zM400 178q1 -80 79 -80q77 0 77 77v344h118v-344q0 -84 -50.5 -131t-145.5 -47t-144.5 47t-49.5 134h116z" />
    <glyph glyph-name="imacron.sc" horiz-adv-x="260" 
d="M-18 635v86h299v-86h-299zM71 0v519h118v-519h-118z" />
    <glyph glyph-name="iogonek.sc" horiz-adv-x="260" 
d="M210 -122l31 -56q-33 -35 -95 -35q-51 0 -80 27t-29 73q0 63 58 113h-24v519h118v-519q-3 -2 -8 -5t-18 -12.5t-22.5 -20.5t-17.5 -27.5t-8 -33.5q0 -42 42 -42q31 0 53 19z" />
    <glyph glyph-name="itilde.sc" horiz-adv-x="260" 
d="M62 654q-38 0 -38 -42h-82q0 131 106 131q40 0 77.5 -22.5t55.5 -22.5q37 0 37 43h82q0 -65 -27.5 -98t-77.5 -33q-39 0 -77 22t-56 22zM71 0v519h118v-519h-118z" />
    <glyph glyph-name="j.sc" horiz-adv-x="472" 
d="M132 178q1 -80 79 -80q77 0 77 77v344h118v-344q0 -84 -50.5 -131t-145.5 -47t-144.5 47t-49.5 134h116z" />
    <glyph glyph-name="jcircumflex.sc" horiz-adv-x="472" 
d="M186 593l97 169h124l96 -169h-88l-70 90l-70 -90h-89zM132 178q1 -80 79 -80q77 0 77 77v344h118v-344q0 -84 -50.5 -131t-145.5 -47t-144.5 47t-49.5 134h116z" />
    <glyph glyph-name="k.sc" horiz-adv-x="582" 
d="M449 0l-175 219l-85 -87v-132h-118v519h118v-252l241 252h140l-211 -224l227 -295h-137z" />
    <glyph glyph-name="kcommaaccent.sc" horiz-adv-x="582" 
d="M359 295l227 -295h-137l-175 219l-85 -87v-132h-118v519h118v-252l241 252h140zM298 -41q67 -2 67 -91q0 -74 -38.5 -119t-84.5 -43v52q22 0 39.5 19.5t17.5 49.5q-30 0 -49 18.5t-19 47.5q0 30 19 48t48 18z" />
    <glyph glyph-name="l.sc" horiz-adv-x="493" 
d="M189 103h288v-103h-406v519h118v-416z" />
    <glyph glyph-name="lacute.sc" horiz-adv-x="493" 
d="M261 761l-95 -169h-97l47 169h145zM189 103h288v-103h-406v519h118v-416z" />
    <glyph glyph-name="lcaron.sc" horiz-adv-x="503" 
d="M378 403q-30 0 -49 18.5t-19 47.5q0 30 19 47.5t48 18.5q67 -2 67 -91q0 -74 -38.5 -119t-84.5 -43v52q22 0 39.5 19.5t17.5 49.5zM189 103h288v-103h-406v519h118v-416z" />
    <glyph glyph-name="lcommaaccent.sc" horiz-adv-x="493" 
d="M189 103h288v-103h-406v519h118v-416zM282 -41q67 -2 67 -91q0 -74 -38.5 -119t-84.5 -43v52q22 0 39.5 19.5t17.5 49.5q-30 0 -49 18.5t-19 47.5q0 30 19 48t48 18z" />
    <glyph glyph-name="ldot.sc" horiz-adv-x="508" 
d="M189 103h288v-103h-406v519h118v-416zM368 210q-35 0 -56.5 21t-21.5 55t21.5 55t56.5 21q36 0 57.5 -21t21.5 -55t-21.5 -55t-57.5 -21z" />
    <glyph glyph-name="lslash.sc" horiz-adv-x="524" 
d="M221 103h288v-103h-406v192l-60 -36l-37 66l97 57v240h118v-170l72 42l37 -65l-109 -65v-158z" />
    <glyph glyph-name="m.sc" horiz-adv-x="755" 
d="M524 519h160l-1 -519h-113v391l-152 -391h-82l-151 388v-388h-114l-1 519h161l147 -386z" />
    <glyph glyph-name="n.sc" horiz-adv-x="638" 
d="M451 519h115v-519h-111l-269 357v-357h-115v519h111l269 -357v357z" />
    <glyph glyph-name="nacute.sc" horiz-adv-x="638" 
d="M454 761l-95 -169h-97l47 169h145zM451 519h115v-519h-111l-269 357v-357h-115v519h111l269 -357v357z" />
    <glyph glyph-name="ncaron.sc" horiz-adv-x="638" 
d="M382 592h-124l-97 169h88l70 -90l70 90h88zM451 519h115v-519h-111l-269 357v-357h-115v519h111l269 -357v357z" />
    <glyph glyph-name="ncommaaccent.sc" horiz-adv-x="638" 
d="M451 519h115v-519h-111l-269 357v-357h-115v519h111l269 -357v357zM319 -41q67 -2 67 -91q0 -74 -38.5 -119t-84.5 -43v52q22 0 39.5 19.5t17.5 49.5q-30 0 -49 18.5t-19 47.5q0 30 19 48t48 18z" />
    <glyph glyph-name="eng.sc" horiz-adv-x="637" 
d="M450 519h116v-527q0 -67 -44.5 -108t-119.5 -41q-41 0 -69 7l7 96q21 -7 40 -7q32 0 50.5 14.5t18.5 41.5v13l-263 349v-357h-115v519h111l268 -357v357z" />
    <glyph glyph-name="uni0272.sc" horiz-adv-x="637" 
d="M451 519h115v-519h-111l-269 357v-365q0 -67 -44 -108t-119 -41q-41 0 -69 7l7 96q23 -7 41 -7q32 0 50.5 14.5t18.5 41.5v524h111l269 -357v357z" />
    <glyph glyph-name="ntilde.sc" horiz-adv-x="638" 
d="M251 654q-38 0 -38 -42h-82q0 131 106 131q40 0 77.5 -22.5t55.5 -22.5q37 0 37 43h82q0 -65 -27.5 -98t-77.5 -33q-39 0 -77 22t-56 22zM451 519h115v-519h-111l-269 357v-357h-115v519h111l269 -357v357z" />
    <glyph glyph-name="o.sc" horiz-adv-x="648" 
d="M323 -5q-127 0 -206 72t-79 193t79 193.5t206 72.5q128 0 206.5 -72.5t78.5 -193.5t-79 -193t-206 -72zM323 97q74 0 120 43.5t46 119.5t-46 119.5t-120 43.5t-120 -43.5t-46 -119.5t46 -119.5t120 -43.5z" />
    <glyph glyph-name="oacute.sc" horiz-adv-x="648" 
d="M363 597h-97l47 169h145zM323 -5q-127 0 -206 72t-79 193t79 193.5t206 72.5q128 0 206.5 -72.5t78.5 -193.5t-79 -193t-206 -72zM323 97q74 0 120 43.5t46 119.5t-46 119.5t-120 43.5t-120 -43.5t-46 -119.5t46 -119.5t120 -43.5z" />
    <glyph glyph-name="obreve.sc" horiz-adv-x="648" 
d="M473 762q0 -78 -40 -123t-110 -45q-71 0 -111 44.5t-40 123.5h92q0 -83 58 -83t58 83h93zM323 -5q-127 0 -206 72t-79 193t79 193.5t206 72.5q128 0 206.5 -72.5t78.5 -193.5t-79 -193t-206 -72zM323 97q74 0 120 43.5t46 119.5t-46 119.5t-120 43.5t-120 -43.5
t-46 -119.5t46 -119.5t120 -43.5z" />
    <glyph glyph-name="ocircumflex.sc" horiz-adv-x="648" 
d="M165 597l97 169h124l96 -169h-88l-70 90l-70 -90h-89zM323 -5q-127 0 -206 72t-79 193t79 193.5t206 72.5q128 0 206.5 -72.5t78.5 -193.5t-79 -193t-206 -72zM323 97q74 0 120 43.5t46 119.5t-46 119.5t-120 43.5t-120 -43.5t-46 -119.5t46 -119.5t120 -43.5z" />
    <glyph glyph-name="odieresis.sc" horiz-adv-x="648" 
d="M229 749q31 0 49.5 -18.5t18.5 -47.5t-18.5 -47t-49.5 -18q-30 0 -48.5 18t-18.5 47t18.5 47.5t48.5 18.5zM426 749q30 0 48.5 -18.5t18.5 -47.5t-18.5 -47t-48.5 -18q-31 0 -49.5 18t-18.5 47t18.5 47.5t49.5 18.5zM323 -5q-127 0 -206 72t-79 193t79 193.5t206 72.5
q128 0 206.5 -72.5t78.5 -193.5t-79 -193t-206 -72zM323 97q74 0 120 43.5t46 119.5t-46 119.5t-120 43.5t-120 -43.5t-46 -119.5t46 -119.5t120 -43.5z" />
    <glyph glyph-name="uni1ECD.sc" horiz-adv-x="648" 
d="M323 -5q-127 0 -206 72t-79 193t79 193.5t206 72.5q128 0 206.5 -72.5t78.5 -193.5t-79 -193t-206 -72zM323 97q74 0 120 43.5t46 119.5t-46 119.5t-120 43.5t-120 -43.5t-46 -119.5t46 -119.5t120 -43.5zM323 -54q35 0 56.5 -21t21.5 -55t-21.5 -55t-56.5 -21t-56.5 21
t-21.5 55t21.5 55t56.5 21z" />
    <glyph glyph-name="ograve.sc" horiz-adv-x="648" 
d="M281 597l-94 169h144l47 -169h-97zM323 -5q-127 0 -206 72t-79 193t79 193.5t206 72.5q128 0 206.5 -72.5t78.5 -193.5t-79 -193t-206 -72zM323 97q74 0 120 43.5t46 119.5t-46 119.5t-120 43.5t-120 -43.5t-46 -119.5t46 -119.5t120 -43.5z" />
    <glyph glyph-name="ohungarumlaut.sc" horiz-adv-x="648" 
d="M258 597h-99l45 169h152zM453 597h-99l45 169h151zM323 -5q-127 0 -206 72t-79 193t79 193.5t206 72.5q128 0 206.5 -72.5t78.5 -193.5t-79 -193t-206 -72zM323 97q74 0 120 43.5t46 119.5t-46 119.5t-120 43.5t-120 -43.5t-46 -119.5t46 -119.5t120 -43.5z" />
    <glyph glyph-name="omacron.sc" horiz-adv-x="648" 
d="M175 640v86h299v-86h-299zM323 -5q-127 0 -206 72t-79 193t79 193.5t206 72.5q128 0 206.5 -72.5t78.5 -193.5t-79 -193t-206 -72zM323 97q74 0 120 43.5t46 119.5t-46 119.5t-120 43.5t-120 -43.5t-46 -119.5t46 -119.5t120 -43.5z" />
    <glyph glyph-name="uni01EB.sc" horiz-adv-x="648" 
d="M408 5q-68 -44 -68 -96q0 -42 42 -42q31 0 53 19l31 -56q-33 -35 -95 -35q-51 0 -80 27t-29 73q0 56 44 100q-121 5 -194.5 76.5t-73.5 188.5q0 121 79 193.5t206 72.5q128 0 206.5 -72.5t78.5 -193.5q0 -99 -54 -166t-146 -89zM157 260q0 -76 46 -119.5t120 -43.5
t120 43.5t46 119.5t-46 119.5t-120 43.5t-120 -43.5t-46 -119.5z" />
    <glyph glyph-name="oslash.sc" horiz-adv-x="648" 
d="M499 477q109 -72 109 -217q0 -121 -79 -193t-206 -72q-60 0 -111 17l-32 -51h-84l51 82q-109 74 -109 217q0 121 79 193.5t206 72.5q62 0 113 -18l28 45h82zM157 260q0 -78 49 -122l173 278q-31 7 -56 7q-74 0 -120 -43.5t-46 -119.5zM323 97q74 0 120 43.5t46 119.5
q0 78 -49 122l-171 -278q22 -7 54 -7z" />
    <glyph glyph-name="oslashacute.sc" horiz-adv-x="648" 
d="M458 766l-95 -169h-97l47 169h145zM499 477q109 -72 109 -217q0 -121 -79 -193t-206 -72q-60 0 -111 17l-32 -51h-84l51 82q-109 74 -109 217q0 121 79 193.5t206 72.5q62 0 113 -18l28 45h82zM157 260q0 -78 49 -122l173 278q-31 7 -56 7q-74 0 -120 -43.5t-46 -119.5z
M323 97q74 0 120 43.5t46 119.5q0 78 -49 122l-171 -278q22 -7 54 -7z" />
    <glyph glyph-name="otilde.sc" horiz-adv-x="648" 
d="M255 659q-38 0 -38 -42h-82q0 131 106 131q40 0 77.5 -22.5t55.5 -22.5q37 0 37 43h82q0 -65 -27.5 -98t-77.5 -33q-39 0 -77 22t-56 22zM323 -5q-127 0 -206 72t-79 193t79 193.5t206 72.5q128 0 206.5 -72.5t78.5 -193.5t-79 -193t-206 -72zM323 97q74 0 120 43.5
t46 119.5t-46 119.5t-120 43.5t-120 -43.5t-46 -119.5t46 -119.5t120 -43.5z" />
    <glyph glyph-name="oe.sc" horiz-adv-x="947" 
d="M607 98h297v-98h-414v38q-71 -43 -167 -43q-127 0 -206 72t-79 193t79 193.5t206 72.5q96 0 167 -43v36h410v-97h-293v-109h261v-97h-261v-118zM323 97q74 0 120 43.5t46 119.5t-46 119.5t-120 43.5t-120 -43.5t-46 -119.5t46 -119.5t120 -43.5z" />
    <glyph glyph-name="p.sc" horiz-adv-x="548" 
d="M312 519q99 0 155 -44t56 -125t-56 -125t-155 -44h-123v-181h-118v519h241zM312 277q44 0 68 19.5t24 53.5q0 33 -24 53t-68 20h-123v-146h123z" />
    <glyph glyph-name="thorn.sc" horiz-adv-x="557" 
d="M312 433q99 0 155 -44t56 -125t-56 -125t-155 -44h-123v-95h-118v519h118v-86h123zM312 191q44 0 68 19.5t24 53.5q0 33 -24 53t-68 20h-123v-146h123z" />
    <glyph glyph-name="q.sc" horiz-adv-x="648" 
d="M608 260q0 -103 -58 -171t-156 -87q43 -29 116 -29l4 -106q-81 0 -143 36t-92 94q-109 13 -175 83t-66 180q0 121 79 193.5t206 72.5q128 0 206.5 -72.5t78.5 -193.5zM323 97q74 0 120 43.5t46 119.5t-46 119.5t-120 43.5t-120 -43.5t-46 -119.5t46 -119.5t120 -43.5z
" />
    <glyph glyph-name="r.sc" horiz-adv-x="579" 
d="M546 92l7 -88q-30 -8 -60 -8q-58 0 -90 21t-57 64l-60 103h-98v-184h-117v519h233q99 0 156 -44t57 -123q0 -56 -29 -94t-81 -57l50 -81q20 -32 56 -32q17 0 33 4zM188 424v-149h115q46 0 70.5 19.5t24.5 54.5q0 34 -24.5 54.5t-70.5 20.5h-115z" />
    <glyph glyph-name="racute.sc" horiz-adv-x="579" 
d="M406 766l-95 -169h-97l47 169h145zM546 92l7 -88q-30 -8 -60 -8q-58 0 -90 21t-57 64l-60 103h-98v-184h-117v519h233q99 0 156 -44t57 -123q0 -56 -29 -94t-81 -57l50 -81q20 -32 56 -32q17 0 33 4zM188 424v-149h115q46 0 70.5 19.5t24.5 54.5q0 34 -24.5 54.5
t-70.5 20.5h-115z" />
    <glyph glyph-name="rcaron.sc" horiz-adv-x="579" 
d="M333 597h-124l-97 169h88l70 -90l70 90h88zM546 92l7 -88q-30 -8 -60 -8q-58 0 -90 21t-57 64l-60 103h-98v-184h-117v519h233q99 0 156 -44t57 -123q0 -56 -29 -94t-81 -57l50 -81q20 -32 56 -32q17 0 33 4zM188 424v-149h115q46 0 70.5 19.5t24.5 54.5q0 34 -24.5 54.5
t-70.5 20.5h-115z" />
    <glyph glyph-name="rcommaaccent.sc" horiz-adv-x="579" 
d="M546 92l7 -88q-30 -8 -60 -8q-58 0 -90 21t-57 64l-60 103h-98v-184h-117v519h233q99 0 156 -44t57 -123q0 -56 -29 -94t-81 -57l50 -81q20 -32 56 -32q17 0 33 4zM188 424v-149h115q46 0 70.5 19.5t24.5 54.5q0 34 -24.5 54.5t-70.5 20.5h-115zM292 -41q67 -2 67 -91
q0 -74 -38.5 -119t-84.5 -43v52q22 0 39.5 19.5t17.5 49.5q-30 0 -49 18.5t-19 47.5q0 30 19 48t48 18z" />
    <glyph glyph-name="s.sc" horiz-adv-x="537" 
d="M163 375q0 -24 25 -38t62 -19t81 -14.5t81 -23t62 -47t25 -84.5q0 -73 -61.5 -114t-168.5 -41q-109 0 -172 43t-63 120h117q2 -67 119 -67q112 0 112 59q0 26 -25 41.5t-62 20.5t-81 15t-81 23t-62 45t-25 81q0 68 61.5 109t161.5 41q102 0 161.5 -43t59.5 -119l-118 1
q0 66 -105 66q-104 0 -104 -55z" />
    <glyph glyph-name="sacute.sc" horiz-adv-x="537" 
d="M403 763l-95 -169h-97l47 169h145zM163 375q0 -24 25 -38t62 -19t81 -14.5t81 -23t62 -47t25 -84.5q0 -73 -61.5 -114t-168.5 -41q-109 0 -172 43t-63 120h117q2 -67 119 -67q112 0 112 59q0 26 -25 41.5t-62 20.5t-81 15t-81 23t-62 45t-25 81q0 68 61.5 109t161.5 41
q102 0 161.5 -43t59.5 -119l-118 1q0 66 -105 66q-104 0 -104 -55z" />
    <glyph glyph-name="scaron.sc" horiz-adv-x="537" 
d="M331 594h-124l-97 169h88l70 -90l70 90h88zM163 375q0 -24 25 -38t62 -19t81 -14.5t81 -23t62 -47t25 -84.5q0 -73 -61.5 -114t-168.5 -41q-109 0 -172 43t-63 120h117q2 -67 119 -67q112 0 112 59q0 26 -25 41.5t-62 20.5t-81 15t-81 23t-62 45t-25 81q0 68 61.5 109
t161.5 41q102 0 161.5 -43t59.5 -119l-118 1q0 66 -105 66q-104 0 -104 -55z" />
    <glyph glyph-name="scedilla.sc" horiz-adv-x="537" 
d="M499 149q0 -69 -56 -110t-155 -45l-6 -29q35 -5 57 -25t22 -56q0 -43 -33 -69t-88 -26q-37 0 -67 13l16 67q25 -10 53 -10q46 0 46 26q0 30 -81 30l18 81q-90 8 -140.5 50t-50.5 111h117q2 -67 119 -67q112 0 112 59q0 26 -25 41.5t-62 20.5t-81 15t-81 23t-62 45t-25 81
q0 68 61.5 109t161.5 41q102 0 161.5 -43t59.5 -119l-118 1q0 66 -105 66q-104 0 -104 -55q0 -24 25 -38t62 -19t81 -14.5t81 -23t62 -47t25 -84.5z" />
    <glyph glyph-name="scircumflex.sc" horiz-adv-x="537" 
d="M268 684l-70 -90h-89l97 169h124l96 -169h-88zM163 375q0 -24 25 -38t62 -19t81 -14.5t81 -23t62 -47t25 -84.5q0 -73 -61.5 -114t-168.5 -41q-109 0 -172 43t-63 120h117q2 -67 119 -67q112 0 112 59q0 26 -25 41.5t-62 20.5t-81 15t-81 23t-62 45t-25 81q0 68 61.5 109
t161.5 41q102 0 161.5 -43t59.5 -119l-118 1q0 66 -105 66q-104 0 -104 -55z" />
    <glyph glyph-name="scommaaccent.sc" horiz-adv-x="537" 
d="M163 375q0 -24 25 -38t62 -19t81 -14.5t81 -23t62 -47t25 -84.5q0 -73 -61.5 -114t-168.5 -41q-109 0 -172 43t-63 120h117q2 -67 119 -67q112 0 112 59q0 26 -25 41.5t-62 20.5t-81 15t-81 23t-62 45t-25 81q0 68 61.5 109t161.5 41q102 0 161.5 -43t59.5 -119l-118 1
q0 66 -105 66q-104 0 -104 -55zM270 -41q67 -2 67 -91q0 -74 -38.5 -119t-84.5 -43v52q22 0 39.5 19.5t17.5 49.5q-30 0 -49 18.5t-19 47.5q0 30 19 48t48 18z" />
    <glyph glyph-name="germandbls.sc" horiz-adv-x="590" 
d="M422 296q62 -14 96.5 -49.5t34.5 -89.5q0 -71 -56.5 -114t-154.5 -43h-55v91h55q92 0 92 66q0 32 -24.5 50.5t-67.5 18.5h-41v78l77 118h-124q-70 0 -70 -62v-360h-118v365q0 67 46 110.5t125 43.5h286v-75z" />
    <glyph glyph-name="t.sc" horiz-adv-x="520" 
d="M201 0v421h-186v98h490v-98h-186v-421h-118z" />
    <glyph glyph-name="tbar.sc" horiz-adv-x="531" 
d="M511 421h-186v-124h111v-74h-111v-223h-118v223h-114v74h114v124h-186v98h490v-98z" />
    <glyph glyph-name="tcaron.sc" horiz-adv-x="520" 
d="M103 758h88l70 -90l70 90h88l-95 -169h-124zM201 0v421h-186v98h490v-98h-186v-421h-118z" />
    <glyph glyph-name="uni0163.sc" horiz-adv-x="520" 
d="M319 0h-31l-7 -35q35 -5 57 -25t22 -56q0 -43 -33 -69t-88 -26q-37 0 -67 13l16 67q25 -10 53 -10q46 0 46 26q0 30 -81 30l19 85h-24v421h-186v98h490v-98h-186v-421z" />
    <glyph glyph-name="uni021B.sc" horiz-adv-x="520" 
d="M201 0v421h-186v98h490v-98h-186v-421h-118zM210 -242q22 0 39.5 19.5t17.5 49.5q-30 0 -49 18.5t-19 47.5q0 30 19 48t48 18q67 -2 67 -91q0 -74 -38.5 -119t-84.5 -43v52z" />
    <glyph glyph-name="u.sc" horiz-adv-x="620" 
d="M437 519h118v-310q0 -100 -65.5 -157t-179.5 -57q-115 0 -180.5 56.5t-65.5 156.5v311h118v-310q0 -55 33 -83.5t95 -28.5q127 0 127 112v310z" />
    <glyph glyph-name="uacute.sc" horiz-adv-x="620" 
d="M350 589h-97l47 169h145zM437 519h118v-310q0 -100 -65.5 -157t-179.5 -57q-115 0 -180.5 56.5t-65.5 156.5v311h118v-310q0 -55 33 -83.5t95 -28.5q127 0 127 112v310z" />
    <glyph glyph-name="ubreve.sc" horiz-adv-x="620" 
d="M460 754q0 -78 -40 -123t-110 -45q-71 0 -111 44.5t-40 123.5h92q0 -83 58 -83t58 83h93zM437 519h118v-310q0 -100 -65.5 -157t-179.5 -57q-115 0 -180.5 56.5t-65.5 156.5v311h118v-310q0 -55 33 -83.5t95 -28.5q127 0 127 112v310z" />
    <glyph glyph-name="ucircumflex.sc" horiz-adv-x="620" 
d="M151 589l97 169h124l96 -169h-88l-70 90l-70 -90h-89zM437 519h118v-310q0 -100 -65.5 -157t-179.5 -57q-115 0 -180.5 56.5t-65.5 156.5v311h118v-310q0 -55 33 -83.5t95 -28.5q127 0 127 112v310z" />
    <glyph glyph-name="udieresis.sc" horiz-adv-x="620" 
d="M216 741q31 0 49.5 -18.5t18.5 -47.5t-18.5 -47t-49.5 -18q-30 0 -48.5 18t-18.5 47t18.5 47.5t48.5 18.5zM413 741q31 0 49 -18.5t18 -47.5t-18.5 -47t-48.5 -18q-31 0 -49.5 18t-18.5 47t18.5 47.5t49.5 18.5zM437 519h118v-310q0 -100 -65.5 -157t-179.5 -57
q-115 0 -180.5 56.5t-65.5 156.5v311h118v-310q0 -55 33 -83.5t95 -28.5q127 0 127 112v310z" />
    <glyph glyph-name="uni1EE5.sc" horiz-adv-x="620" 
d="M437 519h118v-310q0 -100 -65.5 -157t-179.5 -57q-115 0 -180.5 56.5t-65.5 156.5v311h118v-310q0 -55 33 -83.5t95 -28.5q127 0 127 112v310zM310 -54q35 0 56.5 -21t21.5 -55t-21.5 -55t-56.5 -21t-56.5 21t-21.5 55t21.5 55t56.5 21z" />
    <glyph glyph-name="ugrave.sc" horiz-adv-x="620" 
d="M268 589l-94 169h144l47 -169h-97zM437 519h118v-310q0 -100 -65.5 -157t-179.5 -57q-115 0 -180.5 56.5t-65.5 156.5v311h118v-310q0 -55 33 -83.5t95 -28.5q127 0 127 112v310z" />
    <glyph glyph-name="uhungarumlaut.sc" horiz-adv-x="620" 
d="M244 589h-99l45 169h152zM439 589h-99l45 169h151zM437 519h118v-310q0 -100 -65.5 -157t-179.5 -57q-115 0 -180.5 56.5t-65.5 156.5v311h118v-310q0 -55 33 -83.5t95 -28.5q127 0 127 112v310z" />
    <glyph glyph-name="umacron.sc" horiz-adv-x="620" 
d="M162 632v86h299v-86h-299zM437 519h118v-310q0 -100 -65.5 -157t-179.5 -57q-115 0 -180.5 56.5t-65.5 156.5v311h118v-310q0 -55 33 -83.5t95 -28.5q127 0 127 112v310z" />
    <glyph glyph-name="uogonek.sc" horiz-adv-x="620" 
d="M437 519h118v-310q0 -77 -39 -129t-109 -72q-74 -44 -74 -99q0 -42 42 -42q31 0 53 19l31 -56q-33 -35 -95 -35q-51 0 -80 27t-29 73q0 56 44 100q-110 3 -172.5 59.5t-62.5 153.5v311h118v-310q0 -55 33 -83.5t95 -28.5q127 0 127 112v310z" />
    <glyph glyph-name="uring.sc" horiz-adv-x="620" 
d="M310 576q-43 0 -72.5 26.5t-29.5 69.5q0 44 29.5 71t72.5 27q42 0 71.5 -27t29.5 -71q0 -43 -29.5 -69.5t-71.5 -26.5zM310 638q16 0 26 10t10 24q0 15 -10 24.5t-26 9.5t-25.5 -9.5t-9.5 -24.5t9.5 -24.5t25.5 -9.5zM437 519h118v-310q0 -100 -65.5 -157t-179.5 -57
q-115 0 -180.5 56.5t-65.5 156.5v311h118v-310q0 -55 33 -83.5t95 -28.5q127 0 127 112v310z" />
    <glyph glyph-name="utilde.sc" horiz-adv-x="620" 
d="M242 651q-38 0 -38 -42h-82q0 131 106 131q40 0 77.5 -22.5t55.5 -22.5q37 0 37 43h82q0 -65 -27.5 -98t-77.5 -33q-39 0 -77 22t-56 22zM437 519h118v-310q0 -100 -65.5 -157t-179.5 -57q-115 0 -180.5 56.5t-65.5 156.5v311h118v-310q0 -55 33 -83.5t95 -28.5
q127 0 127 112v310z" />
    <glyph glyph-name="v.sc" horiz-adv-x="565" 
d="M438 519h118l-210 -519h-128l-210 519h118l156 -403z" />
    <glyph glyph-name="w.sc" horiz-adv-x="833" 
d="M703 519h117l-162 -519h-134l-107 392l-108 -392h-134l-162 519h117l114 -413l110 413h125l109 -415z" />
    <glyph glyph-name="wacute.sc" horiz-adv-x="833" 
d="M552 758l-95 -169h-97l47 169h145zM703 519h117l-162 -519h-134l-107 392l-108 -392h-134l-162 519h117l114 -413l110 413h125l109 -415z" />
    <glyph glyph-name="wcircumflex.sc" horiz-adv-x="833" 
d="M417 679l-70 -90h-89l97 169h124l96 -169h-88zM703 519h117l-162 -519h-134l-107 392l-108 -392h-134l-162 519h117l114 -413l110 413h125l109 -415z" />
    <glyph glyph-name="wdieresis.sc" horiz-adv-x="833" 
d="M323 610q-30 0 -48.5 18t-18.5 47t18.5 47.5t48.5 18.5q31 0 49.5 -18.5t18.5 -47.5t-18.5 -47t-49.5 -18zM520 610q-31 0 -49.5 18t-18.5 47t18.5 47.5t49.5 18.5q30 0 48.5 -18.5t18.5 -47.5t-18.5 -47t-48.5 -18zM703 519h117l-162 -519h-134l-107 392l-108 -392h-134
l-162 519h117l114 -413l110 413h125l109 -415z" />
    <glyph glyph-name="wgrave.sc" horiz-adv-x="833" 
d="M472 589h-97l-94 169h144zM703 519h117l-162 -519h-134l-107 392l-108 -392h-134l-162 519h117l114 -413l110 413h125l109 -415z" />
    <glyph glyph-name="x.sc" horiz-adv-x="552" 
d="M545 0h-132l-136 198l-137 -198h-131l183 265l-178 254h132l130 -186l128 186h131l-174 -251z" />
    <glyph glyph-name="y.sc" horiz-adv-x="543" 
d="M535 519l-205 -321v-198h-118v198l-205 321h126l138 -220l138 220h126z" />
    <glyph glyph-name="yacute.sc" horiz-adv-x="543" 
d="M406 758l-95 -169h-97l47 169h145zM535 519l-205 -321v-198h-118v198l-205 321h126l138 -220l138 220h126z" />
    <glyph glyph-name="ycircumflex.sc" horiz-adv-x="543" 
d="M272 679l-70 -90h-89l97 169h124l96 -169h-88zM535 519l-205 -321v-198h-118v198l-205 321h126l138 -220l138 220h126z" />
    <glyph glyph-name="ydieresis.sc" horiz-adv-x="543" 
d="M177 610q-30 0 -48.5 18t-18.5 47t18.5 47.5t48.5 18.5q31 0 49.5 -18.5t18.5 -47.5t-18.5 -47t-49.5 -18zM374 610q-31 0 -49.5 18t-18.5 47t18.5 47.5t49.5 18.5q30 0 48.5 -18.5t18.5 -47.5t-18.5 -47t-48.5 -18zM535 519l-205 -321v-198h-118v198l-205 321h126
l138 -220l138 220h126z" />
    <glyph glyph-name="ygrave.sc" horiz-adv-x="543" 
d="M326 589h-97l-94 169h144zM535 519l-205 -321v-198h-118v198l-205 321h126l138 -220l138 220h126z" />
    <glyph glyph-name="uni0233.sc" horiz-adv-x="543" 
d="M422 718v-86h-299v86h299zM535 519l-205 -321v-198h-118v198l-205 321h126l138 -220l138 220h126z" />
    <glyph glyph-name="uni1EF9.sc" horiz-adv-x="543" 
d="M203 651q-38 0 -38 -42h-82q0 131 106 131q40 0 77.5 -22.5t55.5 -22.5q37 0 37 43h82q0 -65 -27.5 -98t-77.5 -33q-39 0 -77 22t-56 22zM535 519l-205 -321v-198h-118v198l-205 321h126l138 -220l138 220h126z" />
    <glyph glyph-name="z.sc" horiz-adv-x="540" 
d="M192 99h308v-99h-463v97l306 324h-298v98h454l-1 -96z" />
    <glyph glyph-name="zacute.sc" horiz-adv-x="540" 
d="M397 763l-95 -169h-97l47 169h145zM192 99h308v-99h-463v97l306 324h-298v98h454l-1 -96z" />
    <glyph glyph-name="zcaron.sc" horiz-adv-x="540" 
d="M325 594h-124l-97 169h88l70 -90l70 90h88zM192 99h308v-99h-463v97l306 324h-298v98h454l-1 -96z" />
    <glyph glyph-name="zdotaccent.sc" horiz-adv-x="540" 
d="M263 608q-35 0 -56.5 21t-21.5 55t21.5 55t56.5 21t56.5 -21t21.5 -55t-21.5 -55t-56.5 -21zM192 99h308v-99h-463v97l306 324h-298v98h454l-1 -96z" />
    <glyph glyph-name="k.sc.ss01" horiz-adv-x="582" 
d="M577 93l7 -89q-30 -8 -60 -8q-50 0 -81.5 19t-65.5 66l-102 139l-86 -88v-132h-118v519h118v-252l241 252h140l-211 -223l126 -172q28 -35 58 -35q23 0 34 4z" />
    <glyph glyph-name="kcommaaccent.sc.ss01" horiz-adv-x="582" 
d="M577 93l7 -89q-30 -8 -60 -8q-50 0 -81.5 19t-65.5 66l-102 139l-86 -88v-132h-118v519h118v-252l241 252h140l-211 -223l126 -172q28 -35 58 -35q23 0 34 4zM298 -41q67 -2 67 -91q0 -74 -38.5 -119t-84.5 -43v52q22 0 39.5 19.5t17.5 49.5q-30 0 -49 18.5t-19 47.5
q0 30 19 48t48 18z" />
    <glyph glyph-name="r.sc.ss01" horiz-adv-x="564" 
d="M401 0l-100 184h-112v-184h-118v519h234q99 0 156 -44t57 -124q0 -105 -100 -146l115 -205h-132zM189 423v-148h116q46 0 70 20t24 54t-24.5 54t-69.5 20h-116z" />
    <glyph glyph-name="racute.sc.ss01" horiz-adv-x="564" 
d="M406 766l-95 -169h-97l47 169h145zM401 0l-100 184h-112v-184h-118v519h234q99 0 156 -44t57 -124q0 -105 -100 -146l115 -205h-132zM189 423v-148h116q46 0 70 20t24 54t-24.5 54t-69.5 20h-116z" />
    <glyph glyph-name="rcaron.sc.ss01" horiz-adv-x="564" 
d="M333 597h-124l-97 169h88l70 -90l70 90h88zM401 0l-100 184h-112v-184h-118v519h234q99 0 156 -44t57 -124q0 -105 -100 -146l115 -205h-132zM189 423v-148h116q46 0 70 20t24 54t-24.5 54t-69.5 20h-116z" />
    <glyph glyph-name="rcommaaccent.sc.ss01" horiz-adv-x="564" 
d="M418 205l115 -205h-132l-100 184h-112v-184h-118v519h234q99 0 156 -44t57 -124q0 -105 -100 -146zM189 423v-148h116q46 0 70 20t24 54t-24.5 54t-69.5 20h-116zM292 -41q67 -2 67 -91q0 -74 -38.5 -119t-84.5 -43v52q22 0 39.5 19.5t17.5 49.5q-30 0 -49 18.5t-19 47.5
q0 30 19 48t48 18z" />
    <glyph glyph-name="zero.sinf" horiz-adv-x="413" 
d="M206 -84q-83 0 -130 55t-47 155q0 101 47 156.5t130 55.5q84 0 130.5 -55.5t46.5 -156.5t-46.5 -155.5t-130.5 -54.5zM206 -2q80 0 80 128q0 130 -80 130t-80 -130q0 -128 80 -128z" />
    <glyph glyph-name="one.sinf" horiz-adv-x="288" 
d="M206 -1h66v-79h-239v79h78l-1 215q-27 -11 -76 -11v78q71 0 97 52h75v-334z" />
    <glyph glyph-name="two.sinf" horiz-adv-x="360" 
d="M175 -1h153v-79h-298v63l152 140q46 43 46 84q0 49 -49 49q-25 0 -39.5 -16.5t-14.5 -45.5l-97 -1q0 67 42 106t109 39t106 -35.5t39 -95.5q0 -71 -75 -140z" />
    <glyph glyph-name="three.sinf" horiz-adv-x="371" 
d="M289 131q51 -31 52 -91q0 -58 -45 -91t-115 -33q-69 0 -112 35.5t-43 97.5h96q0 -51 62 -51q28 0 44 12t16 34q0 47 -64 47h-40v73h37q56 0 58 46q0 46 -52 46q-54 0 -54 -57l-96 -1q0 65 40.5 102.5t107.5 37.5q65 0 107.5 -34t43.5 -91q0 -52 -43 -82z" />
    <glyph glyph-name="four.sinf" horiz-adv-x="382" 
d="M359 84v-79h-51v-85h-96v85h-194v77l167 251h123v-249h51zM114 86v-1h103v159h-1z" />
    <glyph glyph-name="five.sinf" horiz-adv-x="361" 
d="M187 191q65 0 107 -36t42 -102q0 -63 -45 -100t-114 -37q-68 0 -112 34.5t-44 93.5h96q0 -46 59 -46q28 0 45.5 14.5t17.5 40.5q0 27 -16.5 42t-45.5 15q-30 0 -57 -19l-82 28l23 214h250v-80h-173l-8 -70q27 8 57 8z" />
    <glyph glyph-name="six.sinf" horiz-adv-x="386" 
d="M216 181q61 0 101.5 -35t40.5 -93q0 -61 -41.5 -99t-112.5 -38q-83 0 -129 55t-46 153q0 102 46.5 157.5t128.5 55.5q64 0 104.5 -34t40.5 -88h-93q0 40 -52 40q-74 0 -80 -110q36 36 92 36zM201 -2q29 0 45.5 15t16.5 40t-16 39.5t-46 14.5q-35 0 -54.5 -22t-5.5 -55
q17 -32 60 -32z" />
    <glyph glyph-name="seven.sinf" horiz-adv-x="332" 
d="M58 -80l155 332v1h-198v80h302v-76l-153 -337h-106z" />
    <glyph glyph-name="eight.sinf" horiz-adv-x="376" 
d="M294 137q54 -34 54 -95t-42.5 -93.5t-117.5 -32.5t-117.5 32.5t-42.5 93.5q0 60 55 95q-42 33 -42 82q0 57 41.5 88t105.5 31q65 0 106 -31t41 -88q0 -51 -41 -82zM188 263q-26 0 -41 -13t-15 -35t15.5 -34.5t41.5 -12.5q27 0 41.5 13t13.5 34q1 21 -14 34.5t-42 13.5z
M188 -9q65 0 65 53q0 25 -17 39t-47 14q-31 0 -48.5 -14t-17.5 -39q0 -53 65 -53z" />
    <glyph glyph-name="nine.sinf" horiz-adv-x="386" 
d="M180 337q83 0 129.5 -54t46.5 -154q0 -102 -46.5 -157.5t-128.5 -55.5q-64 0 -104.5 34t-40.5 88h92q1 -40 53 -40q74 0 80 109q-37 -35 -92 -35q-61 -1 -101.5 34t-40.5 94q0 61 41 99t112 38zM184 146q33 0 53 20.5t11 50.5q-17 38 -64 38q-29 0 -45.5 -15t-16.5 -40
t16 -39.5t46 -14.5z" />
    <glyph glyph-name="zero.tf" horiz-adv-x="638" 
d="M319 -6q-129 0 -201 90.5t-72 259.5q0 168 72 259.5t201 91.5t201 -91.5t72 -259.5q0 -169 -72 -259.5t-201 -90.5zM319 101q149 0 149 243q0 120 -38.5 182t-110.5 62q-73 0 -111.5 -62t-38.5 -182q0 -121 38.5 -182t111.5 -61z" />
    <glyph glyph-name="one.tf" horiz-adv-x="638" 
d="M409 104h154v-104h-456v104h180v423q-61 -25 -179 -25v102q75 0 124.5 19.5t84.5 63.5h92v-583z" />
    <glyph glyph-name="two.tf" horiz-adv-x="638" 
d="M263 104h312v-104h-505v83l268 236q102 90 102 167q0 50 -32.5 76t-87.5 26q-59 0 -95 -32.5t-36 -91.5h-123q0 107 73 169.5t184 62.5q109 0 175 -56.5t66 -153.5q0 -120 -133 -235z" />
    <glyph glyph-name="three.tf" horiz-adv-x="638" 
d="M575 194q1 -91 -73.5 -145.5t-187.5 -54.5q-115 0 -187.5 57t-73.5 157h122q1 -54 39.5 -80.5t101.5 -26.5q62 0 99 25t37 71q-1 103 -145 103h-66v97h59q61 0 98 24t38 71q0 48 -33.5 72t-87.5 24q-55 0 -90 -27.5t-35 -85.5h-122q-1 102 67 161t178 59q106 1 176 -53.5
t70 -145.5q-1 -94 -83 -143q98 -50 99 -159z" />
    <glyph glyph-name="four.tf" horiz-adv-x="638" 
d="M594 261v-104h-92v-157h-122v157h-345v100l306 430h161v-426h92zM161 262v-1h224v308h-1z" />
    <glyph glyph-name="five.tf" horiz-adv-x="638" 
d="M329 447q109 0 179.5 -60t70.5 -167q0 -103 -74.5 -164.5t-188.5 -61.5q-112 0 -185 57.5t-73 154.5l122 -1q0 -51 38 -77.5t97 -26.5q63 0 101.5 31.5t38.5 87.5q0 60 -37 90.5t-99 30.5q-67 0 -124 -39l-108 40l34 345h419v-104h-319l-15 -159q59 23 123 23z" />
    <glyph glyph-name="six.tf" horiz-adv-x="638" 
d="M350 433q100 1 165.5 -58t65.5 -156q0 -99 -67 -162t-177 -63q-129 0 -201 90t-72 257q0 170 72.5 261.5t201.5 91.5q101 0 165 -54t63 -140h-122q-1 43 -30 65t-75 22q-151 0 -155 -231q62 77 166 77zM334 101q56 0 90 32t34 86q0 53 -32.5 84.5t-89.5 31.5
q-72 0 -112 -48.5t-7 -121.5h-1q35 -64 118 -64z" />
    <glyph glyph-name="seven.tf" horiz-adv-x="638" 
d="M153 0l292 582v1h-388v104h521v-98l-291 -589h-134z" />
    <glyph glyph-name="eight.tf" horiz-adv-x="638" 
d="M476 362q101 -53 101 -162q0 -99 -70.5 -152.5t-187.5 -53.5q-118 0 -188 53.5t-70 152.5q0 109 101 162q-78 54 -78 141q0 91 66.5 141.5t168.5 50.5t168.5 -50.5t66.5 -141.5q0 -87 -78 -141zM319 595q-53 0 -85 -26.5t-32 -69.5t32 -69t85 -26q55 0 86.5 26.5
t30.5 68.5q1 42 -31 69t-86 27zM319 95q64 0 101 28t36 78q1 51 -36 79.5t-101 28.5q-63 0 -100 -28.5t-37 -79.5q0 -50 37 -78t100 -28z" />
    <glyph glyph-name="nine.tf" horiz-adv-x="638" 
d="M300 694q132 0 205 -88t73 -259q0 -170 -73.5 -261.5t-204.5 -91.5q-103 0 -168 54t-65 140h122q1 -43 31 -65t78 -22q157 0 160 232q-63 -78 -170 -78q-102 -1 -169 58t-67 156q0 99 68 162t180 63zM302 353q73 0 114.5 48.5t8.5 121.5q-36 64 -122 64q-58 0 -93 -32
t-35 -86q0 -53 34 -84.5t93 -31.5z" />
    <glyph glyph-name="zero.dnom" horiz-adv-x="413" 
d="M206 -4q-83 0 -130 55t-47 155q0 101 47 156.5t130 55.5q84 0 130.5 -55.5t46.5 -156.5t-46.5 -155.5t-130.5 -54.5zM206 78q80 0 80 128q0 130 -80 130t-80 -130q0 -128 80 -128z" />
    <glyph glyph-name="one.dnom" horiz-adv-x="288" 
d="M206 79h66v-79h-239v79h77v215q-27 -11 -76 -11v78q71 0 97 52h75v-334z" />
    <glyph glyph-name="two.dnom" horiz-adv-x="360" 
d="M176 79h154v-79h-299v63l151 140q46 43 46 84q0 49 -49 49q-25 0 -39.5 -16.5t-14.5 -45.5l-97 -1q0 67 42 106t109 39t106 -35.5t39 -95.5q1 -39 -17 -71t-58 -69z" />
    <glyph glyph-name="three.dnom" horiz-adv-x="371" 
d="M289 211q51 -31 52 -91q0 -58 -45.5 -91t-114.5 -33t-112.5 35.5t-43.5 97.5h96q1 -51 62 -51q29 0 45 12t16 34q-1 47 -65 47h-40v73h38q57 0 57 46q0 23 -14.5 34.5t-36.5 11.5q-54 0 -54 -57l-96 -1q-1 65 39.5 102.5t108.5 37.5q65 0 107.5 -34t42.5 -90
q0 -53 -42 -83z" />
    <glyph glyph-name="four.dnom" horiz-adv-x="382" 
d="M358 164v-79h-52v-85h-95v85h-194v77l166 251h123v-249h52zM112 166v-1h104v159h-1z" />
    <glyph glyph-name="five.dnom" horiz-adv-x="361" 
d="M188 271q65 0 106.5 -36t42.5 -102q0 -63 -45 -100t-114 -37q-68 0 -112 34.5t-44 93.5h96q0 -46 59 -46q28 0 45.5 14.5t17.5 40.5q0 27 -17 42t-45 15q-30 0 -57 -19l-82 28l23 214h250v-80h-174l-8 -70q27 8 58 8z" />
    <glyph glyph-name="six.dnom" horiz-adv-x="386" 
d="M216 261q61 0 101.5 -35t40.5 -93q0 -61 -41 -99t-112 -38q-83 0 -129.5 55t-46.5 153q0 102 46.5 157.5t128.5 55.5q64 0 104.5 -34t40.5 -88h-92q-1 40 -53 40q-73 0 -79 -109q37 35 91 35zM202 78q28 0 44.5 15t16.5 40t-16 39.5t-45 14.5q-33 0 -52.5 -19t-12.5 -48
q15 -42 65 -42z" />
    <glyph glyph-name="seven.dnom" horiz-adv-x="332" 
d="M58 0l155 333v1l-198 -1v80h302v-76l-153 -337h-106z" />
    <glyph glyph-name="eight.dnom" horiz-adv-x="376" 
d="M294 217q54 -34 54 -95t-42.5 -93.5t-117.5 -32.5t-117.5 32.5t-42.5 93.5q0 60 55 95q-42 33 -42 82q0 57 41.5 88t105.5 31q65 0 106 -31t41 -88q0 -51 -41 -82zM188 343q-26 0 -41 -13t-15 -35t15.5 -34.5t41.5 -12.5q27 0 41.5 13t13.5 34q1 21 -14 34.5t-42 13.5z
M188 71q32 0 49 14t16 39q1 25 -16.5 39t-47.5 14q-31 0 -48.5 -14t-17.5 -39q2 -53 65 -53z" />
    <glyph glyph-name="nine.dnom" horiz-adv-x="386" 
d="M180 417q83 0 129 -54t46 -154q0 -102 -46 -157.5t-128 -55.5q-64 0 -104.5 34t-40.5 88h92q0 -40 52 -40q74 0 80 108q-37 -34 -91 -34q-61 -1 -101.5 34t-40.5 94q0 61 41 99t112 38zM183 226q32 0 52.5 19t13.5 47q-17 43 -66 43q-28 0 -44.5 -14.5t-16.5 -40.5
q0 -25 15.5 -39.5t45.5 -14.5z" />
    <glyph glyph-name="zero.numr" horiz-adv-x="413" 
d="M206 276q-83 0 -130 55t-47 156t47 156t130 55q84 0 130.5 -55t46.5 -156t-46.5 -156t-130.5 -55zM206 358q80 0 80 129t-80 129t-80 -129t80 -129z" />
    <glyph glyph-name="one.numr" horiz-adv-x="288" 
d="M206 361h66v-79h-239v79h78l-1 215q-29 -12 -76 -12v79q71 0 97 52h75v-334z" />
    <glyph glyph-name="two.numr" horiz-adv-x="360" 
d="M175 359h153v-79h-298v63l152 140q46 43 46 84q0 49 -49 49q-25 0 -39.5 -16.5t-14.5 -45.5l-97 -1q0 67 42 106t109 39t106 -35.5t39 -95.5q1 -39 -17 -71t-58 -69z" />
    <glyph glyph-name="three.numr" horiz-adv-x="371" 
d="M289 491q51 -31 52 -91q0 -58 -45.5 -91t-114.5 -33t-112.5 36t-43.5 98h96q1 -51 62 -51t61 45q-1 48 -65 48h-40v72h38q57 0 57 46q0 23 -14.5 35t-36.5 12q-54 0 -54 -58h-96q-1 64 39.5 101.5t108.5 37.5q65 0 107.5 -34t42.5 -90q0 -52 -42 -83z" />
    <glyph glyph-name="four.numr" horiz-adv-x="382" 
d="M357 446v-79h-51v-85h-95v85h-195v77l167 251h123v-249h51zM112 447v-1h104v160h-1z" />
    <glyph glyph-name="five.numr" horiz-adv-x="361" 
d="M188 553q65 0 106.5 -36t42.5 -102q0 -63 -45 -100t-114 -37q-68 0 -112 34.5t-44 93.5h96q0 -46 59 -46q28 0 45.5 14.5t17.5 40.5q0 27 -17 42t-45 15q-30 0 -57 -19l-82 28l23 214h250v-80h-174l-8 -70q27 8 58 8z" />
    <glyph glyph-name="six.numr" horiz-adv-x="386" 
d="M216 542q61 1 101.5 -34t40.5 -94q0 -61 -41 -99t-112 -38q-83 0 -129.5 55t-46.5 154q0 101 46.5 156.5t128.5 55.5q64 0 104.5 -34t40.5 -88h-92q-1 40 -53 40q-73 0 -79 -109q37 35 91 35zM202 359q28 0 44.5 15t16.5 40t-16 40t-45 14q-33 0 -52.5 -19.5t-12.5 -48.5
q17 -41 65 -41z" />
    <glyph glyph-name="seven.numr" horiz-adv-x="332" 
d="M58 282l154 332v1h-197v80h302v-76l-153 -337h-106z" />
    <glyph glyph-name="eight.numr" horiz-adv-x="376" 
d="M294 498q54 -34 54 -95t-42.5 -94t-117.5 -33q-74 0 -117 33t-43 94q0 60 55 95q-42 33 -42 82q0 57 41 87.5t106 30.5t106 -30.5t41 -87.5q0 -51 -41 -82zM188 623q-26 0 -41 -12.5t-15 -34.5t15.5 -34.5t41.5 -12.5q27 0 41.5 13t13.5 34q1 21 -14 34t-42 13zM188 352
q32 0 49 13.5t16 38.5q1 25 -16.5 39t-47.5 14q-31 0 -48.5 -14t-17.5 -39q2 -52 65 -52z" />
    <glyph glyph-name="nine.numr" horiz-adv-x="386" 
d="M180 698q83 0 129 -54t46 -154q0 -102 -46 -157.5t-128 -55.5q-64 0 -104.5 34t-40.5 88h92q0 -19 14.5 -29.5t37.5 -10.5q74 0 80 108q-37 -34 -91 -34q-61 0 -101.5 35t-40.5 93q0 61 41 99t112 38zM183 507q32 0 52.5 19t13.5 47q-17 43 -66 43q-28 0 -44.5 -14.5
t-16.5 -40.5q0 -25 15.5 -39.5t45.5 -14.5z" />
    <glyph glyph-name="zero.sups" horiz-adv-x="413" 
d="M206 348q-83 0 -130 55t-47 156t47 156t130 55q84 0 130.5 -55t46.5 -156t-46.5 -156t-130.5 -55zM206 430q80 0 80 129t-80 129t-80 -129t80 -129z" />
    <glyph glyph-name="one.sups" horiz-adv-x="288" 
d="M206 431h65v-79h-239v79h78v215q-31 -12 -77 -12v79q72 0 98 52h75v-334z" />
    <glyph glyph-name="two.sups" horiz-adv-x="360" 
d="M176 432h152v-80h-298v63l152 140q45 43 45 84q0 49 -47 49q-25 0 -40 -16t-15 -46l-97 -1q0 67 42 106.5t109 39.5t106 -36t39 -96q1 -39 -17 -71t-58 -69z" />
    <glyph glyph-name="three.sups" horiz-adv-x="371" 
d="M340 472q1 -55 -45 -89.5t-114 -34.5q-69 0 -112 35.5t-44 98.5h96q1 -51 63 -51q60 0 60 44q-1 49 -65 49h-40v72h38q57 0 57 46t-51 46q-54 0 -54 -57h-96q-1 64 39.5 101.5t108.5 37.5q65 0 107.5 -34t42.5 -90q0 -54 -42 -83q51 -31 51 -91z" />
    <glyph glyph-name="four.sups" horiz-adv-x="382" 
d="M357 517v-79h-51v-86h-95v86h-195v76l167 251h123v-248h51zM112 518v-1h104v159h-1z" />
    <glyph glyph-name="five.sups" horiz-adv-x="361" 
d="M188 623q65 0 106.5 -35.5t42.5 -101.5q0 -64 -45 -101t-114 -37q-68 0 -112 35t-44 94l96 -1q0 -45 59 -45q28 0 45.5 14t17.5 41t-16.5 41.5t-45.5 14.5q-33 0 -57 -19l-82 28l23 214h250v-79h-174l-8 -71q27 8 58 8z" />
    <glyph glyph-name="six.sups" horiz-adv-x="386" 
d="M216 614q61 0 101.5 -35t40.5 -93q0 -61 -41 -99.5t-112 -38.5q-83 0 -129.5 55t-46.5 154q0 101 46.5 157t128.5 56q64 0 104.5 -34.5t40.5 -88.5l-96 1q0 40 -49 40q-73 0 -79 -109q37 35 91 35zM202 430q28 0 44.5 15.5t16.5 40.5q0 24 -16 39t-45 15
q-33 0 -52.5 -19.5t-12.5 -49.5q17 -41 65 -41z" />
    <glyph glyph-name="seven.sups" horiz-adv-x="332" 
d="M58 352l154 333v1h-197v79h302v-76l-153 -337h-106z" />
    <glyph glyph-name="eight.sups" horiz-adv-x="376" 
d="M294 570q54 -34 54 -95t-42.5 -94t-117.5 -33t-117.5 33t-42.5 94t54 95q-41 31 -41 81q0 58 41 88.5t106 30.5t106 -30.5t41 -88.5q0 -50 -41 -81zM188 695q-26 0 -41 -13t-15 -34q0 -22 15.5 -34.5t41.5 -12.5q27 0 41.5 13t13.5 34q1 21 -14 34t-42 13zM188 424
q32 0 49 13.5t16 38.5q1 25 -16.5 39t-47.5 14q-31 0 -48.5 -14t-17.5 -39q2 -52 65 -52z" />
    <glyph glyph-name="nine.sups" horiz-adv-x="386" 
d="M180 770q83 0 129 -54t46 -155q0 -102 -46 -157.5t-128 -55.5q-64 0 -104.5 34.5t-40.5 87.5h96q0 -40 48 -40q74 0 80 109q-37 -35 -91 -35q-61 0 -101.5 35t-40.5 93q0 61 41 99.5t112 38.5zM183 578q33 0 53 19.5t12 48.5q-15 42 -65 42q-28 0 -44.5 -15t-16.5 -41
q0 -25 16 -39.5t45 -14.5z" />
    <glyph glyph-name="zero.sc" horiz-adv-x="564" 
d="M282 -5q-113 0 -177 69t-64 196t64 196.5t177 69.5t177 -69.5t64 -196.5t-64 -196t-177 -69zM282 101q117 0 117 159t-117 159t-117 -159t117 -159z" />
    <glyph glyph-name="one.sc" horiz-adv-x="387" 
d="M273 102h91v-102h-320v102h107v269q-40 -16 -105 -16v101q50 0 81 14t51 49h95v-417z" />
    <glyph glyph-name="two.sc" horiz-adv-x="489" 
d="M232 98h212v-98h-404v77l213 178q35 29 51.5 52.5t16.5 52.5q0 31 -20.5 47t-56.5 16q-40 0 -64 -20.5t-23 -59.5h-118q-1 86 55.5 134t148.5 48q90 0 143.5 -44.5t52.5 -119.5q1 -51 -24 -92.5t-82 -87.5z" />
    <glyph glyph-name="three.sc" horiz-adv-x="501" 
d="M388 265q70 -37 71 -115q0 -71 -58.5 -113t-153.5 -42t-153.5 45.5t-58.5 126.5h115q0 -71 99 -71q43 0 68 15.5t25 43.5q0 64 -99 64h-55v86h50q41 0 66.5 16t25.5 45q0 30 -23 45t-60 15q-38 0 -62 -18.5t-24 -55.5h-116q0 81 55 127.5t145 46.5q87 0 144 -42t58 -113
q0 -67 -59 -106z" />
    <glyph glyph-name="four.sc" horiz-adv-x="518" 
d="M484 204v-96h-73v-108h-115v108h-273v91l240 320h148v-315h73zM139 205v-1h163v206h-1z" />
    <glyph glyph-name="five.sc" horiz-adv-x="491" 
d="M255 339q88 0 144.5 -45t57.5 -127q0 -79 -60.5 -125.5t-153.5 -46.5q-92 0 -151 44t-59 117h115q0 -29 26.5 -44.5t67.5 -15.5q44 0 71 18.5t27 52.5q0 35 -26 54t-70 19q-49 0 -89 -26l-99 33l30 273l338 -1v-96h-246l-11 -98q44 14 88 14z" />
    <glyph glyph-name="six.sc" horiz-adv-x="521" 
d="M289 328q85 1 140 -43.5t55 -116.5q0 -75 -56.5 -124t-151.5 -49q-110 0 -172.5 69t-62.5 192q0 129 62 199.5t173 70.5q86 0 140.5 -42t54.5 -109l-116 1q0 24 -22 36.5t-57 12.5q-115 0 -121 -149q50 52 134 52zM272 95q44 0 70 20t26 53q0 32 -25 52t-70 20
q-48 0 -79.5 -27.5t-19.5 -64.5q27 -53 98 -53z" />
    <glyph glyph-name="seven.sc" horiz-adv-x="449" 
d="M86 0l217 422v1h-283v96h408v-93l-215 -426h-127z" />
    <glyph glyph-name="eight.sc" horiz-adv-x="513" 
d="M397 272q76 -41 76 -120q0 -75 -58.5 -116t-158.5 -41q-99 0 -157.5 41.5t-58.5 115.5q0 78 76 120q-58 39 -58 106q0 70 55.5 109t142.5 39q88 0 143 -38.5t55 -109.5q0 -66 -57 -106zM256 435q-41 0 -64.5 -17.5t-23.5 -44.5q0 -29 24 -46t65 -17q42 0 65 17.5t23 45.5
q0 27 -23.5 44.5t-65.5 17.5zM256 86q49 0 76 18t27 50t-27 50.5t-75 18.5t-75.5 -18.5t-27.5 -50.5q0 -33 27.5 -50.5t74.5 -17.5z" />
    <glyph glyph-name="nine.sc" horiz-adv-x="520" 
d="M244 526q111 0 173 -68.5t62 -193.5q0 -129 -62 -199t-172 -70q-87 0 -141.5 41.5t-53.5 108.5h115q1 -25 22.5 -37.5t56.5 -12.5q115 0 121 149q-52 -52 -134 -52q-85 0 -139.5 44t-54.5 116q0 75 56 124.5t151 49.5zM247 281q48 0 79 26t21 61q-26 57 -99 57
q-44 0 -70 -20t-26 -52t25 -52.5t70 -19.5z" />
    <glyph glyph-name="exclam.case" horiz-adv-x="284" 
d="M139 549q-35 0 -56.5 21t-21.5 55t21.5 55t56.5 21q36 0 57.5 -21t21.5 -55t-21.5 -55t-57.5 -21zM207 0h-130l12 461h106z" />
    <glyph glyph-name="exclamdown.case" horiz-adv-x="284" 
d="M207 686l-11 -456h-106l-12 456h129zM140 142q35 0 56.5 -21t21.5 -55q0 -33 -21.5 -54.5t-56.5 -21.5t-56.5 21.5t-21.5 54.5q0 34 21.5 55t56.5 21z" />
    <glyph glyph-name="question.case" horiz-adv-x="476" 
d="M256 546q-35 0 -57 22t-22 55t22 54.5t57 20.5q35 1 56.5 -20.5t21.5 -55.5t-22 -55t-56 -21zM330 201h119q0 -95 -58 -150.5t-156 -55.5q-95 0 -149.5 50t-55.5 133q0 37 17 69t41.5 54.5t49.5 43t42 44.5t17 49v21h114v-28q0 -34 -16.5 -64t-40 -52t-47.5 -42.5
t-40.5 -45t-16.5 -50.5q1 -37 23.5 -56.5t61.5 -19.5q44 0 69.5 26t25.5 74z" />
    <glyph glyph-name="questiondown.case" horiz-adv-x="475" 
d="M240 698q95 0 150 -50t55 -133q0 -35 -17 -67t-41.5 -56t-49.5 -46t-42 -47.5t-17 -50.5v-21h-114v29q0 34 16.5 65t40 54.5t47.5 45.5t40.5 46.5t16.5 48.5q0 37 -23 56.5t-62 19.5q-44 0 -69 -25.5t-26 -74.5h-118q0 94 57.5 150t155.5 56zM220 140q34 0 56 -21.5
t22 -54.5t-22 -54.5t-57 -21.5t-56.5 21t-21.5 55t22 55t57 21z" />
    <glyph glyph-name="braceleft.case" horiz-adv-x="362" 
d="M33 389h10q26 0 45 17t19 52v77q0 80 47.5 125t134.5 45h32v-103h-28q-70 0 -70 -76v-92q0 -43 -15.5 -67.5t-35.5 -29.5q19 -5 35 -31.5t16 -66.5v-81q0 -76 70 -76h28v-103h-32q-87 0 -134.5 45t-47.5 125v66q0 35 -19 52t-45 17h-10v105z" />
    <glyph glyph-name="braceright.case" horiz-adv-x="362" 
d="M329 389v-105h-10q-26 0 -44.5 -17t-18.5 -52v-66q0 -80 -48 -125t-135 -45h-32v103h28q70 0 70 76v81q0 40 16 66.5t35 31.5q-20 5 -35.5 30t-15.5 67v92q0 76 -70 76h-28v103h32q87 0 135 -45t48 -125v-77q0 -35 18.5 -52t44.5 -17h10z" />
    <glyph glyph-name="bracketleft.case" horiz-adv-x="366" 
d="M82 -21v726h248v-101h-134v-525h134v-100h-248z" />
    <glyph glyph-name="bracketright.case" horiz-adv-x="366" 
d="M284 -21h-248v100h134v525h-134v101h248v-726z" />
    <glyph glyph-name="parenleft.case" horiz-adv-x="313" 
d="M44 345q0 98 37.5 194t88.5 165h116q-119 -169 -119 -359q0 -201 119 -367h-116q-50 67 -88 168t-38 199z" />
    <glyph glyph-name="parenright.case" horiz-adv-x="313" 
d="M268 345q0 -98 -38 -199t-88 -168h-116q119 170 119 367q0 186 -119 359h116q51 -69 88.5 -165t37.5 -194z" />
    <glyph glyph-name="emdash.case" horiz-adv-x="822" 
d="M62 295v93h698v-93h-698z" />
    <glyph glyph-name="endash.case" horiz-adv-x="558" 
d="M62 295v93h435v-93h-435z" />
    <glyph glyph-name="hyphen.case" horiz-adv-x="458" 
d="M62 296v93h335v-93h-335z" />
    <glyph glyph-name="guillemotleft.case" horiz-adv-x="526" 
d="M33 326v11l125 156h119l-128 -162l129 -162h-120zM234 326v11l125 156h118l-127 -162l128 -162h-119z" />
    <glyph glyph-name="guillemotright.case" horiz-adv-x="526" 
d="M293 326l-124 -157h-120l128 162l-127 162h119l124 -156v-11zM494 326l-125 -157h-120l129 162l-128 162h119l125 -156v-11z" />
    <glyph glyph-name="guilsinglleft.case" horiz-adv-x="326" 
d="M33 326v11l125 156h119l-128 -162l129 -162h-120z" />
    <glyph glyph-name="guilsinglright.case" horiz-adv-x="326" 
d="M293 326l-124 -157h-120l128 162l-127 162h119l124 -156v-11z" />
    <glyph glyph-name="ampersand.sc" horiz-adv-x="539" 
d="M539 0h-117l-34 31q-63 -36 -147 -36q-95 0 -152.5 42.5t-57.5 112.5q0 46 21.5 78t71.5 59q-41 52 -41 103q0 61 45 99t116 38q70 0 111.5 -34.5t40.5 -91.5q1 -41 -24 -72.5t-89 -60.5l-15 -7l115 -111q20 33 20 85h98q0 -89 -50 -150zM244 442q-28 0 -44.5 -14
t-17.5 -38q0 -32 25 -65l27 11q65 27 63 63q1 20 -13.5 31.5t-39.5 11.5zM250 84q40 0 70 12l-135 126q-43 -25 -44 -67q1 -34 30 -52.5t79 -18.5z" />
    <glyph glyph-name="cent.sc" horiz-adv-x="537" 
d="M283 112q85 0 101 90h119q-9 -73 -51 -122.5t-118 -62.5v-99h-109v99q-84 18 -135 84t-51 160q0 95 51 162t135 84v98h109v-98q75 -14 118 -64.5t51 -123.5h-119q-16 92 -101 92q-55 0 -88 -40t-33 -110q0 -69 33 -109t88 -40z" />
    <glyph glyph-name="dollar.sc" horiz-adv-x="483" 
d="M457 144q0 -58 -43.5 -96t-118.5 -49v-81h-109v80q-78 10 -120.5 50.5t-42.5 107.5h111q2 -70 110 -70q101 0 103 58q0 31 -32 47t-78 24t-92.5 20.5t-78.5 46.5t-32 91q-1 57 40.5 96.5t111.5 51.5v84h109v-83q73 -11 114 -51.5t40 -105.5h-111q0 69 -97 69
q-96 0 -96 -58q0 -25 23 -40t58 -20.5t75 -15.5t75 -24t58 -48t23 -84z" />
    <glyph glyph-name="Euro.sc" horiz-adv-x="614" 
d="M355 92q83 0 113 65h114q-20 -74 -78.5 -118t-151.5 -44q-91 0 -155 46t-87 128h-85l13 70h61q-1 7 -1 21q0 13 1 20h-74l13 69h71q23 84 87.5 130t155.5 46q93 0 152 -44t78 -118h-114q-32 65 -114 65q-91 0 -126 -79h142l-13 -69h-145q-1 -6 -1 -20t1 -21h158l-13 -70
h-128q35 -77 126 -77z" />
    <glyph glyph-name="sterling.sc" horiz-adv-x="518" 
d="M288 428q-81 0 -82 -74q0 -34 7 -78h191v-70h-180q2 -24 2 -33q0 -43 -22 -76h276v-97h-443v94q43 0 60 16.5t17 57.5q0 18 -3 38h-72v70h62q-6 50 -6 78q0 79 52.5 125.5t142.5 46.5q89 0 142 -46t52 -123h-110q0 71 -86 71z" />
    <glyph glyph-name="yen.sc" horiz-adv-x="561" 
d="M543 526l-162 -257h79v-69h-122v-39h122v-70h-122v-91h-115v91h-124v70h124v38l-1 1h-123v69h80l-162 257h123l140 -225l140 225h123z" />
    <glyph glyph-name="caroncomb.alt" horiz-adv-x="0" 
d="M-151 265q22 0 39.5 19.5t17.5 49.5q-30 0 -49 18.5t-19 47.5q0 30 19 47.5t48 18.5q67 -2 67 -91q0 -74 -38.5 -119t-84.5 -43v52z" />
    <glyph glyph-name="uni0306.case.001" horiz-adv-x="0" 
d="M-20 699q0 -60 -41 -101t-109 -41q-69 0 -110 40.5t-41 101.5h92q0 -28 15.5 -43t42.5 -15t42.5 15.5t15.5 42.5h93z" />
    <glyph glyph-name="uni0308.case" horiz-adv-x="0" 
d="M-288 700q30 0 48.5 -18t18.5 -48q0 -29 -18.5 -47t-48.5 -18q-31 0 -49.5 18t-18.5 47t18.5 47.5t49.5 18.5zM-92 700q31 0 49.5 -18.5t18.5 -47.5t-18.5 -47t-49.5 -18q-30 0 -48.5 18t-18.5 47t18.5 47.5t48.5 18.5z" />
    <glyph glyph-name="uni0307.case" horiz-adv-x="0" 
d="M-112 711q36 0 57.5 -21t21.5 -55t-21.5 -55t-56.5 -21t-57 21t-22 55t21.5 55t56.5 21z" />
    <glyph glyph-name="gravecomb.case" horiz-adv-x="0" 
d="M-151 560l-97 134h163l47 -134h-113z" />
    <glyph glyph-name="acutecomb.case" horiz-adv-x="0" 
d="M-138 560h-113l45 134h166z" />
    <glyph glyph-name="uni030B.case" horiz-adv-x="0" 
d="M-301 560h-95l54 134h143zM-123 560h-94l54 134h143z" />
    <glyph glyph-name="uni0302.case" horiz-adv-x="0" 
d="M-119 694l90 -134h-91l-66 66l-67 -66h-91l91 134h134z" />
    <glyph glyph-name="uni030C.case" horiz-adv-x="0" 
d="M-119 560h-134l-91 134h91l67 -67l66 67h91z" />
    <glyph glyph-name="uni0306.case" horiz-adv-x="0" 
d="M-25 694q0 -57 -39 -96.5t-105 -39.5q-67 0 -105.5 39t-38.5 97h91q0 -26 14 -41t39 -15t38.5 15t13.5 41h92z" />
    <glyph glyph-name="uni030A.case" horiz-adv-x="0" 
d="M-137 544q-42 0 -71.5 26.5t-29.5 69.5q0 44 29.5 70.5t71.5 26.5q43 0 72 -26.5t29 -70.5q0 -43 -29 -69.5t-72 -26.5zM-137 605q16 0 26 10t10 25t-10 24.5t-26 9.5t-25.5 -9.5t-9.5 -24.5t9.5 -25t25.5 -10z" />
    <glyph glyph-name="tildecomb.case" horiz-adv-x="0" 
d="M-267 607q-18 0 -28 -11.5t-10 -29.5h-82q0 130 108 130q39 0 76 -21.5t52 -21.5q17 0 26.5 11t8.5 30h83q0 -63 -28 -96t-76 -33q-39 0 -77.5 21t-52.5 21z" />
    <glyph glyph-name="uni0304.case" horiz-adv-x="0" 
d="M-349 587v85h299v-85h-299z" />
    <glyph glyph-name="uni0337.case" horiz-adv-x="0" 
d="M-417 359l340 202l44 -77l-340 -203z" />
    <glyph glyph-name="uni0338.case" horiz-adv-x="0" 
d="M47 745l-475 -762h-108l476 762h107z" />
    <glyph glyph-name="caron.alt" horiz-adv-x="189" 
d="M36 284q22 0 39.5 14t17.5 36q-30 0 -49 18.5t-19 47.5q0 30 19.5 48t47.5 17q30 0 48.5 -22t18.5 -69q0 -66 -38 -105t-85 -38v53z" />
    <glyph glyph-name="acute.case" horiz-adv-x="288" 
d="M150 560h-113l45 134h166z" />
    <glyph glyph-name="breve.case" horiz-adv-x="342" 
d="M314 694q0 -57 -39 -96.5t-105 -39.5q-67 0 -105.5 39t-38.5 97h91q0 -26 14 -41t39 -15t38.5 15t13.5 41h92z" />
    <glyph glyph-name="caron.case" horiz-adv-x="361" 
d="M251 560h-134l-91 134h91l67 -67l66 67h91z" />
    <glyph glyph-name="circumflex.case" horiz-adv-x="370" 
d="M251 694l90 -134h-91l-66 66l-67 -66h-91l91 134h134z" />
    </font>
</defs>
</svg>
