<?xml version="1.0" encoding="iso-8859-1"?>
<!-- Generator: Adobe Illustrator 19.0.0, SVG Export Plug-In . SVG Version: 6.00 Build 0)  -->
<svg version="1.1" id="Layer_1" xmlns="http://www.w3.org/2000/svg" xmlns:xlink="http://www.w3.org/1999/xlink" x="0px" y="0px"
	 viewBox="0 0 481.882 481.882" style="enable-background:new 0 0 481.882 481.882;" xml:space="preserve">
<path style="fill:#FCD462;" d="M196.367,0C114.447,1.205,49.393,69.873,49.393,151.793v157.816c0,3.012-1.807,6.024-4.216,7.831
	l-40.96,30.118C1.807,349.365,0,352.376,0,355.388v48.188c0,5.421,4.216,10.24,10.24,10.24h188.536V0C198.174,0,196.969,0,196.367,0
	z"/>
<path style="fill:#F6C358;" d="M393.336,348.16l-40.96-30.118c-2.409-1.807-4.216-4.819-4.216-7.831V149.384
	C348.16,66.861,281.299,0,198.777,0v414.419h188.536c5.421,0,10.24-4.216,10.24-10.24v-48.188
	C397.553,352.979,396.348,349.967,393.336,348.16z"/>
<path style="fill:#64798A;" d="M131.313,414.419c0,37.346,30.118,67.464,67.464,67.464s67.464-30.118,67.464-67.464H131.313z"/>
<circle style="fill:#EBF0F3;" cx="367.435" cy="114.447" r="114.447"/>
<circle style="fill:#E56353;" cx="367.435" cy="114.447" r="92.762"/>
<path style="fill:#FFFFFF;" d="M344.546,51.2h46.381v126.494h-20.48V69.873h-25.901V51.2z"/>
<g>
</g>
<g>
</g>
<g>
</g>
<g>
</g>
<g>
</g>
<g>
</g>
<g>
</g>
<g>
</g>
<g>
</g>
<g>
</g>
<g>
</g>
<g>
</g>
<g>
</g>
<g>
</g>
<g>
</g>
</svg>
