<?xml version="1.0" encoding="iso-8859-1"?>
<!-- Generator: Adobe Illustrator 19.0.0, SVG Export Plug-In . SVG Version: 6.00 Build 0)  -->
<svg version="1.1" id="Layer_1" xmlns="http://www.w3.org/2000/svg" xmlns:xlink="http://www.w3.org/1999/xlink" x="0px" y="0px"
	 viewBox="0 0 512 512" style="enable-background:new 0 0 512 512;" xml:space="preserve">
<rect x="64" style="fill:#FFFFFF;" width="384" height="512"/>
<rect x="106.4" y="368.1" style="fill:#2D2D2D;" width="181.6" height="11"/>
<g>
	<rect x="106.4" y="410.5" style="fill:#D8D6D6;" width="181.6" height="11"/>
	<rect x="106.4" y="432.1" style="fill:#D8D6D6;" width="181.6" height="11"/>
	<rect x="106.4" y="452.9" style="fill:#D8D6D6;" width="181.6" height="11"/>
	<rect x="316" y="410.5" style="fill:#D8D6D6;" width="89.6" height="11"/>
	<rect x="316" y="388.9" style="fill:#D8D6D6;" width="89.6" height="11"/>
	<rect x="316" y="368.1" style="fill:#D8D6D6;" width="89.6" height="11"/>
	<rect x="316" y="432.1" style="fill:#D8D6D6;" width="89.6" height="11"/>
	<rect x="316" y="452.9" style="fill:#D8D6D6;" width="89.6" height="11"/>
</g>
<path style="fill:#E81241;" d="M396,336H116c-6.4,0-12-5.6-12-12V118.4c0-6.4,5.6-12,12-12h280c6.4,0,12,5.6,12,12V324
	C408,330.4,402.4,336,396,336z"/>
<polygon style="fill:#FFFFFF;" points="224,160 320,215.2 224,271.2 "/>
<rect x="96" y="42.4" style="fill:#E81241;" width="53.6" height="32"/>
<rect x="181.6" y="42.4" style="fill:#D8D6D6;" width="234.4" height="32"/>
<g>
</g>
<g>
</g>
<g>
</g>
<g>
</g>
<g>
</g>
<g>
</g>
<g>
</g>
<g>
</g>
<g>
</g>
<g>
</g>
<g>
</g>
<g>
</g>
<g>
</g>
<g>
</g>
<g>
</g>
</svg>
